{"glyphs":{"0":{"ha":942,"x_min":28,"x_max":914,"o":"m 392 -33 q 447 -31 419 -33 q 501 -26 475 -29 q 558 -22 532 -24 q 608 -19 583 -19 l 668 1 q 693 13 678 7 q 729 25 708 18 l 778 57 q 824 90 803 72 q 894 203 874 135 q 914 393 914 271 l 914 428 l 911 479 l 910 490 q 906 508 908 500 q 903 522 904 515 q 900 535 901 529 q 896 546 899 540 q 889 570 893 557 q 882 601 885 583 q 880 614 882 613 q 865 615 878 615 q 856 653 865 631 q 833 693 847 675 q 771 742 804 742 l 771 754 q 754 771 771 763 q 685 799 725 786 q 671 803 675 803 q 579 819 619 814 q 497 829 539 825 q 396 835 454 833 q 374 832 386 833 q 343 831 361 831 q 317 828 333 831 q 292 825 301 826 q 194 792 235 815 q 176 778 186 788 q 167 769 172 774 q 157 761 163 765 q 125 740 136 740 q 118 735 119 740 l 113 726 q 108 719 110 722 q 106 714 107 717 q 97 699 103 704 q 65 644 71 649 q 42 558 50 594 q 31 485 33 521 q 28 397 28 449 q 32 289 28 331 q 65 151 43 204 q 122 67 88 97 q 131 60 125 64 q 142 53 136 57 l 161 39 q 192 25 176 31 q 208 17 200 21 q 222 11 215 14 q 228 4 222 6 q 250 -4 236 0 q 265 -11 254 -6 l 340 -26 l 372 -31 q 384 -33 379 -32 q 392 -33 389 -33 m 472 168 q 444 185 464 168 q 419 213 421 199 q 415 226 418 218 q 408 246 413 235 q 396 289 397 269 q 386 376 386 322 q 396 444 386 419 l 406 513 q 410 550 410 542 q 419 589 411 568 q 475 633 435 633 q 518 581 513 633 l 529 544 q 551 421 551 465 q 550 388 551 393 q 546 307 550 349 l 544 268 q 542 233 544 251 q 535 206 539 215 q 472 168 517 168 "},"1":{"ha":649,"x_min":13,"x_max":600,"o":"m 554 0 q 583 19 575 0 q 592 85 592 38 q 596 192 592 136 q 600 306 600 244 l 600 768 q 589 794 600 783 q 563 804 578 804 l 378 806 q 301 806 346 806 q 186 807 257 807 q 154 800 172 807 q 123 790 144 797 q 82 768 101 782 q 67 759 75 764 q 50 749 58 754 l 28 736 q 21 732 24 735 l 15 728 q 13 721 13 725 l 13 456 q 23 436 13 444 q 47 428 33 428 q 78 438 64 428 q 131 490 110 465 q 147 501 142 501 q 151 486 151 501 q 151 419 151 438 q 153 386 151 401 l 153 261 q 153 223 153 232 q 154 208 153 214 l 156 199 q 157 189 156 192 q 158 178 158 186 l 161 139 l 158 108 q 157 97 158 100 q 156 88 156 94 l 154 75 q 169 19 154 33 q 229 4 185 4 l 288 4 q 333 3 310 4 q 388 1 357 3 l 439 1 q 449 1 442 1 q 481 0 457 0 q 554 0 506 0 "},"2":{"ha":751,"x_min":7,"x_max":731,"o":"m 235 0 l 533 0 q 612 0 594 0 q 638 1 629 0 q 656 6 651 1 q 712 22 696 6 q 728 82 728 39 l 728 154 q 730 200 729 178 q 731 244 731 222 q 710 273 731 264 q 646 282 690 282 l 531 282 q 681 424 633 354 q 729 567 729 493 q 619 772 729 704 q 513 815 575 800 q 381 831 450 831 q 68 782 222 831 l 19 760 q 7 753 7 757 q 7 744 7 749 l 8 719 l 10 690 l 14 618 q 18 574 17 594 q 22 533 19 554 q 28 517 22 522 q 42 518 33 513 q 82 538 69 532 q 107 546 94 543 q 152 551 136 550 q 181 553 168 553 q 260 538 238 553 q 283 483 283 522 q 288 451 283 467 q 281 418 292 436 q 253 376 260 388 q 228 349 247 365 q 202 325 217 339 q 185 307 188 311 q 97 246 140 264 q 35 213 54 228 q 15 190 19 201 q 10 156 10 179 q 10 133 10 153 q 10 87 10 113 q 10 42 10 61 q 28 19 10 28 q 76 7 38 14 q 147 2 106 4 q 235 0 188 0 "},"3":{"ha":735,"x_min":3,"x_max":728,"o":"m 307 -40 q 399 -38 356 -40 q 476 -33 442 -36 q 636 11 563 -26 q 665 33 649 14 q 693 78 681 51 q 728 261 728 146 q 617 438 728 372 q 673 505 653 465 q 693 588 693 544 q 685 629 688 608 q 674 665 685 636 l 664 692 q 657 707 658 699 q 647 724 654 715 q 601 764 626 764 l 601 775 q 590 785 601 781 q 573 793 585 788 q 546 804 561 799 l 535 807 q 451 824 500 815 l 354 831 q 29 772 179 831 q 8 735 3 767 l 19 589 q 28 574 19 578 q 49 576 36 571 q 125 602 97 596 q 185 608 153 608 q 263 594 239 608 q 286 549 286 581 q 172 479 286 479 q 149 479 154 479 q 140 481 143 479 q 122 454 118 481 l 122 368 q 125 345 122 358 q 147 332 128 332 q 194 335 179 335 q 236 335 210 335 q 324 276 324 329 q 219 203 324 203 q 156 206 181 203 q 88 219 131 210 q 56 208 57 229 l 44 57 q 47 32 39 35 q 63 25 56 29 q 87 11 72 18 q 111 1 101 4 q 119 0 115 0 q 129 -3 124 0 l 143 -7 q 154 -14 143 -11 l 185 -22 q 224 -31 200 -26 q 271 -37 247 -35 q 307 -40 294 -40 "},"4":{"ha":889,"x_min":7,"x_max":896,"o":"m 507 -74 l 521 -74 q 541 -68 531 -71 q 563 -62 551 -65 l 572 -61 l 649 -61 q 657 -57 653 -57 q 667 -60 664 -57 l 674 -60 l 701 -61 q 708 -60 703 -60 l 713 -60 q 718 -57 715 -57 q 722 -60 724 -60 q 744 -53 738 -60 q 754 13 754 -37 q 755 37 754 25 q 757 61 756 49 l 758 83 q 770 85 763 85 q 800 85 778 85 l 828 85 q 835 85 831 85 q 844 88 839 86 q 862 88 853 88 q 879 90 871 89 q 889 96 888 93 q 890 111 890 99 q 892 138 892 121 q 893 171 893 156 q 896 189 896 178 q 847 331 896 331 l 761 331 l 761 354 q 762 419 761 386 q 764 483 763 453 q 765 581 764 528 q 766 675 765 633 q 767 725 767 717 l 768 772 q 765 805 768 796 q 751 814 761 814 q 747 815 750 814 q 736 817 743 815 l 669 817 q 650 817 661 819 l 640 817 q 632 818 633 817 l 579 818 l 576 817 l 574 817 q 517 818 526 817 q 502 819 511 819 q 461 819 493 819 q 414 813 425 819 q 333 817 364 817 l 246 817 l 240 813 q 237 810 239 811 q 233 807 235 808 q 226 802 228 804 q 222 799 224 800 q 208 775 218 792 q 182 729 197 758 l 121 594 l 99 528 q 86 485 89 501 q 81 463 83 469 l 72 442 l 36 361 q 18 301 21 326 q 14 265 15 276 q 9 224 11 246 q 7 175 7 201 l 7 101 q 18 88 7 92 q 69 74 33 75 q 139 76 106 75 q 188 76 172 76 q 269 77 221 76 q 382 78 318 78 l 472 78 l 475 26 q 476 22 476 25 q 476 4 476 18 q 478 -14 476 -10 q 479 -32 479 -18 q 507 -74 485 -74 m 404 331 q 385 332 396 332 q 340 332 375 332 q 346 348 342 338 q 356 376 350 358 q 383 449 372 421 q 403 499 393 476 q 408 540 404 522 q 413 568 411 557 l 424 597 q 437 619 426 606 q 447 646 447 632 l 447 668 q 454 674 450 676 q 458 661 458 671 l 458 331 l 404 331 "},"5":{"ha":751,"x_min":3,"x_max":744,"o":"m 265 -26 q 388 -24 343 -25 q 460 -22 433 -24 q 504 -19 486 -21 q 576 -5 538 -17 q 650 25 614 7 q 710 96 676 32 q 738 180 731 146 q 744 261 744 214 q 739 301 744 278 q 725 344 733 325 q 717 367 718 353 l 700 400 q 654 442 678 442 l 654 450 q 643 463 654 456 q 596 481 621 476 l 588 483 q 485 487 521 488 q 430 486 450 486 q 386 488 410 486 q 394 554 389 533 l 400 581 l 411 588 q 426 585 414 585 l 453 585 q 479 586 475 585 q 510 588 482 588 q 606 588 538 588 q 626 590 618 590 q 640 590 633 590 l 675 590 q 688 590 682 589 q 695 591 692 590 q 704 593 699 592 q 718 608 718 596 q 714 726 718 676 q 703 793 710 776 q 689 810 697 810 l 682 810 q 672 807 676 808 q 657 806 668 806 q 650 804 656 804 q 640 810 643 804 l 421 810 l 404 813 q 390 810 397 813 l 379 810 q 369 813 372 810 l 238 813 l 232 810 q 200 810 214 810 q 176 811 186 810 q 148 813 161 813 q 124 814 135 814 q 92 810 107 814 q 76 808 79 810 q 58 807 72 807 q 53 810 58 807 l 50 810 q 38 796 40 803 l 38 594 q 43 529 38 544 q 43 517 43 519 q 44 511 43 514 l 44 422 l 43 400 l 47 331 q 119 333 75 332 q 207 334 163 333 q 279 335 251 335 q 365 274 365 328 q 263 203 365 203 q 178 206 228 203 q 85 215 129 210 q 17 226 40 221 l 13 171 l 10 132 l 11 82 l 3 35 l 40 26 q 54 22 47 25 q 71 15 61 18 l 100 7 q 114 0 101 1 q 122 -3 117 -1 q 142 -8 128 -4 q 205 -21 167 -15 q 265 -26 243 -26 "},"6":{"ha":890,"x_min":28,"x_max":883,"o":"m 472 -43 q 628 -24 554 -43 q 757 32 701 -4 q 851 128 818 71 q 883 254 883 186 q 765 464 883 396 q 676 494 738 482 q 551 506 615 506 q 385 478 476 506 q 394 525 388 500 q 438 569 401 550 q 553 601 497 601 q 642 598 594 601 q 740 588 690 594 q 767 583 757 583 l 774 583 q 808 624 811 594 l 817 743 q 800 775 817 769 q 792 779 794 778 q 789 781 790 781 q 786 782 788 781 q 769 792 779 789 q 744 801 758 796 l 699 818 q 616 833 660 829 q 510 838 572 838 q 326 816 404 838 q 174 744 247 794 q 53 578 90 665 q 33 503 39 544 q 28 386 28 463 q 97 146 28 249 q 258 5 163 53 q 472 -43 354 -43 m 493 181 q 396 278 418 181 q 413 285 404 282 q 428 289 421 288 q 500 300 465 300 q 564 249 564 300 q 493 181 564 181 "},"7":{"ha":746,"x_min":7,"x_max":732,"o":"m 374 -107 q 401 -96 394 -107 q 424 -65 408 -89 q 458 -11 439 -42 q 494 50 478 19 q 521 100 511 81 l 547 147 q 582 207 565 179 q 608 265 599 235 q 614 280 611 274 q 618 292 617 286 l 700 463 q 726 522 719 504 q 732 553 732 539 l 732 775 q 718 793 732 783 q 663 806 699 804 q 456 803 558 804 q 240 803 353 803 q 200 801 221 803 q 160 797 179 800 l 79 793 l 61 793 q 43 792 54 793 q 24 789 32 790 q 13 781 15 785 q 11 765 11 778 q 10 756 10 761 q 10 735 10 751 l 10 701 q 8 690 8 694 q 7 681 7 685 q 20 531 7 579 q 60 483 33 483 l 157 483 l 283 503 q 316 503 293 503 q 363 506 339 504 q 393 507 386 507 q 374 484 392 500 q 351 460 356 468 q 324 426 342 449 q 290 380 307 404 q 261 337 274 356 q 246 311 249 318 l 201 263 q 182 235 197 254 q 149 191 167 215 q 115 146 131 167 q 96 115 100 125 q 90 100 93 108 q 81 82 86 92 q 78 74 79 76 q 76 68 78 71 q 74 63 74 63 q 94 35 74 47 q 156 6 115 24 q 260 -47 197 -12 q 334 -92 313 -76 q 374 -107 356 -107 "},"8":{"ha":951,"x_min":28,"x_max":931,"o":"m 489 -15 q 548 -15 521 -15 q 607 -7 575 -14 q 634 -3 619 -4 q 663 -1 649 -1 q 675 -1 668 -1 q 690 1 682 0 l 731 11 q 824 51 793 32 q 883 104 856 69 q 931 261 931 161 q 819 438 931 372 q 875 507 853 465 q 890 590 890 556 q 858 707 890 646 q 809 756 844 731 q 733 796 774 781 q 521 838 647 838 l 340 838 q 175 796 238 826 q 118 758 153 789 q 108 751 114 757 q 103 747 106 749 q 97 743 100 746 q 78 724 82 731 q 35 588 35 668 q 56 505 35 547 q 111 438 78 463 q 47 371 67 411 q 28 261 28 331 q 42 153 28 186 q 104 76 54 108 q 119 67 106 71 l 139 60 q 489 -15 267 -15 m 467 479 q 424 494 439 479 q 407 576 407 518 q 413 636 407 615 q 450 682 424 678 q 465 685 465 685 q 482 681 469 683 q 504 665 493 678 q 524 576 524 638 q 508 497 524 521 q 467 479 499 479 m 486 136 q 444 157 451 136 q 425 269 425 185 q 438 347 425 317 q 465 372 449 372 l 486 372 q 524 344 510 372 q 539 269 539 317 q 524 157 539 185 q 486 136 513 136 "},"9":{"ha":897,"x_min":14,"x_max":869,"o":"m 386 -43 q 569 -22 492 -43 q 724 50 647 0 q 843 217 813 131 q 863 303 857 257 q 869 410 869 349 q 806 640 869 543 q 621 790 743 736 q 523 828 565 818 q 424 838 481 838 q 139 764 256 838 q 14 542 14 685 q 44 417 14 468 q 110 351 65 381 q 217 306 156 322 q 343 289 278 289 q 511 318 428 289 q 499 266 507 288 q 458 226 492 244 q 343 203 418 203 q 283 208 317 203 q 183 222 249 213 q 169 225 176 224 q 153 226 161 226 q 132 215 140 224 q 114 185 124 206 q 94 138 111 169 q 79 78 79 94 q 97 33 75 43 q 108 26 106 29 q 125 17 108 26 q 153 4 135 10 l 196 -14 q 386 -43 299 -43 m 396 494 q 333 547 333 494 q 404 615 333 615 q 501 518 476 615 q 468 506 485 510 q 426 497 443 500 q 396 494 410 494 "},"A":{"ha":1085,"x_min":7,"x_max":1078,"o":"m 1032 -3 l 1049 -3 q 1072 25 1067 -3 q 1078 38 1078 26 q 1072 71 1078 49 q 1064 103 1065 93 q 1062 115 1063 110 q 1058 135 1061 121 q 1025 278 1044 199 q 985 446 1006 358 q 944 618 964 533 q 906 777 924 703 q 874 904 888 851 q 869 912 874 906 q 861 919 865 918 l 856 919 q 850 917 856 917 q 834 917 843 917 q 814 924 825 918 q 796 928 804 929 q 779 926 788 926 q 753 926 765 926 q 725 924 740 925 q 715 924 722 924 q 700 922 707 924 q 685 920 693 921 q 671 919 678 919 q 665 921 668 919 q 658 924 661 922 l 589 924 q 578 925 583 925 q 567 925 574 925 q 554 926 554 925 l 422 926 q 378 926 394 926 q 349 924 361 925 q 339 923 346 924 q 332 919 332 922 q 320 920 326 919 q 311 922 314 921 q 304 924 308 925 q 297 924 300 924 q 278 926 288 925 q 260 926 269 926 q 243 924 254 926 q 235 919 239 922 q 225 917 232 917 l 222 919 l 217 919 q 208 911 211 917 q 204 904 204 906 q 110 508 150 679 q 47 237 69 338 q 21 119 24 136 q 17 99 21 114 q 10 76 13 92 q 8 62 8 68 q 8 49 8 56 q 7 35 7 44 q 17 4 7 18 q 32 -3 21 -3 l 46 -3 q 65 -2 57 -3 q 78 0 72 -1 l 263 0 l 263 3 q 278 4 267 4 q 282 3 281 4 q 283 0 282 0 l 296 0 q 322 3 301 3 q 358 4 343 4 q 385 4 374 4 q 401 54 392 15 q 421 144 411 93 q 424 164 422 157 q 425 176 425 171 q 460 171 443 172 q 499 169 476 169 l 576 169 l 588 131 q 607 45 603 75 q 614 4 611 15 q 621 4 617 4 q 629 3 625 4 q 635 1 629 1 l 636 0 l 640 0 q 651 3 649 0 q 658 4 653 4 l 718 3 l 760 3 q 767 1 764 1 q 771 0 769 0 l 1001 0 q 1015 -2 1008 -1 q 1032 -3 1022 -3 m 442 335 q 458 442 453 388 q 475 551 464 496 l 488 617 q 492 639 490 628 q 496 661 493 650 l 496 678 q 501 692 501 686 l 501 697 q 503 692 503 697 q 506 685 503 688 l 506 678 l 508 661 q 512 640 510 651 q 518 617 514 629 l 524 578 q 533 509 529 539 q 538 472 538 479 q 540 452 538 463 q 546 426 543 442 l 551 400 l 561 338 l 496 338 l 486 344 l 485 344 q 468 342 475 344 q 458 338 461 339 l 450 338 q 442 335 450 335 "},"Á":{"ha":1085,"x_min":7,"x_max":1078,"o":"m 1032 -3 l 1049 -3 q 1072 25 1067 -3 q 1078 38 1078 26 q 1072 71 1078 49 q 1064 103 1065 93 q 1062 115 1063 110 q 1058 135 1061 121 q 1025 278 1044 199 q 985 446 1006 358 q 944 618 964 533 q 906 777 924 703 q 874 904 888 851 q 869 912 874 906 q 861 919 865 918 l 856 919 q 850 917 856 917 q 834 917 843 917 q 814 924 825 918 q 796 928 804 929 q 779 926 788 926 q 753 926 765 926 q 725 924 740 925 q 715 924 722 924 q 700 922 707 924 q 685 920 693 921 q 671 919 678 919 q 665 921 668 919 q 658 924 661 922 l 589 924 q 578 925 583 925 q 567 925 574 925 q 554 926 554 925 l 422 926 q 378 926 394 926 q 349 924 361 925 q 339 923 346 924 q 332 919 332 922 q 320 920 326 919 q 311 922 314 921 q 304 924 308 925 q 297 924 300 924 q 278 926 288 925 q 260 926 269 926 q 243 924 254 926 q 235 919 239 922 q 225 917 232 917 l 222 919 l 217 919 q 208 911 211 917 q 204 904 204 906 q 110 508 150 679 q 47 237 69 338 q 21 119 24 136 q 17 99 21 114 q 10 76 13 92 q 8 62 8 68 q 8 49 8 56 q 7 35 7 44 q 17 4 7 18 q 32 -3 21 -3 l 46 -3 q 65 -2 57 -3 q 78 0 72 -1 l 263 0 l 263 3 q 278 4 267 4 q 282 3 281 4 q 283 0 282 0 l 296 0 q 322 3 301 3 q 358 4 343 4 q 385 4 374 4 q 401 54 392 15 q 421 144 411 93 q 424 164 422 157 q 425 176 425 171 q 460 171 443 172 q 499 169 476 169 l 576 169 l 588 131 q 607 45 603 75 q 614 4 611 15 q 621 4 617 4 q 629 3 625 4 q 635 1 629 1 l 636 0 l 640 0 q 651 3 649 0 q 658 4 653 4 l 718 3 l 760 3 q 767 1 764 1 q 771 0 769 0 l 1001 0 q 1015 -2 1008 -1 q 1032 -3 1022 -3 m 442 335 q 458 442 453 388 q 475 551 464 496 l 488 617 q 492 639 490 628 q 496 661 493 650 l 496 678 q 501 692 501 686 l 501 697 q 503 692 503 697 q 506 685 503 688 l 506 678 l 508 661 q 512 640 510 651 q 518 617 514 629 l 524 578 q 533 509 529 539 q 538 472 538 479 q 540 452 538 463 q 546 426 543 442 l 551 400 l 561 338 l 496 338 l 486 344 l 485 344 q 468 342 475 344 q 458 338 461 339 l 450 338 q 442 335 450 335 m 554 1018 l 606 1018 q 629 1039 615 1018 q 645 1063 639 1053 q 664 1091 651 1074 q 700 1142 676 1108 l 718 1175 q 726 1189 721 1181 q 739 1210 732 1197 q 767 1258 757 1240 q 781 1282 778 1276 q 794 1308 792 1301 q 799 1322 799 1317 q 790 1335 799 1331 q 753 1346 782 1340 l 746 1346 q 743 1344 746 1344 l 732 1349 l 674 1351 l 665 1353 q 660 1354 661 1353 q 656 1356 658 1356 l 642 1356 q 628 1353 633 1356 l 619 1357 l 538 1353 l 478 1343 l 467 1335 q 438 1231 451 1279 q 408 1132 424 1182 q 402 1102 407 1121 q 397 1060 397 1083 q 402 1029 397 1040 q 424 1018 407 1018 l 539 1018 l 543 1022 l 554 1018 "},"Ă":{"ha":1085,"x_min":7,"x_max":1078,"o":"m 1032 -3 l 1049 -3 q 1072 25 1067 -3 q 1078 38 1078 26 q 1072 71 1078 49 q 1064 103 1065 93 q 1062 115 1063 110 q 1058 135 1061 121 q 1025 278 1044 199 q 985 446 1006 358 q 944 618 964 533 q 906 777 924 703 q 874 904 888 851 q 869 912 874 906 q 861 919 865 918 l 856 919 q 850 917 856 917 q 834 917 843 917 q 814 924 825 918 q 796 928 804 929 q 779 926 788 926 q 753 926 765 926 q 725 924 740 925 q 715 924 722 924 q 700 922 707 924 q 685 920 693 921 q 671 919 678 919 q 665 921 668 919 q 658 924 661 922 l 589 924 q 578 925 583 925 q 567 925 574 925 q 554 926 554 925 l 422 926 q 378 926 394 926 q 349 924 361 925 q 339 923 346 924 q 332 919 332 922 q 320 920 326 919 q 311 922 314 921 q 304 924 308 925 q 297 924 300 924 q 278 926 288 925 q 260 926 269 926 q 243 924 254 926 q 235 919 239 922 q 225 917 232 917 l 222 919 l 217 919 q 208 911 211 917 q 204 904 204 906 q 110 508 150 679 q 47 237 69 338 q 21 119 24 136 q 17 99 21 114 q 10 76 13 92 q 8 62 8 68 q 8 49 8 56 q 7 35 7 44 q 17 4 7 18 q 32 -3 21 -3 l 46 -3 q 65 -2 57 -3 q 78 0 72 -1 l 263 0 l 263 3 q 278 4 267 4 q 282 3 281 4 q 283 0 282 0 l 296 0 q 322 3 301 3 q 358 4 343 4 q 385 4 374 4 q 401 54 392 15 q 421 144 411 93 q 424 164 422 157 q 425 176 425 171 q 460 171 443 172 q 499 169 476 169 l 576 169 l 588 131 q 607 45 603 75 q 614 4 611 15 q 621 4 617 4 q 629 3 625 4 q 635 1 629 1 l 636 0 l 640 0 q 651 3 649 0 q 658 4 653 4 l 718 3 l 760 3 q 767 1 764 1 q 771 0 769 0 l 1001 0 q 1015 -2 1008 -1 q 1032 -3 1022 -3 m 442 335 q 458 442 453 388 q 475 551 464 496 l 488 617 q 492 639 490 628 q 496 661 493 650 l 496 678 q 501 692 501 686 l 501 697 q 503 692 503 697 q 506 685 503 688 l 506 678 l 508 661 q 512 640 510 651 q 518 617 514 629 l 524 578 q 533 509 529 539 q 538 472 538 479 q 540 452 538 463 q 546 426 543 442 l 551 400 l 561 338 l 496 338 l 486 344 l 485 344 q 468 342 475 344 q 458 338 461 339 l 450 338 q 442 335 450 335 m 525 1013 q 669 1031 607 1013 q 775 1099 732 1050 q 858 1276 858 1194 q 862 1325 858 1303 q 857 1364 865 1347 q 851 1368 856 1368 l 657 1375 q 649 1367 649 1375 q 649 1333 650 1350 q 649 1299 649 1317 q 619 1226 649 1256 q 553 1197 590 1197 q 483 1210 515 1197 q 443 1240 450 1222 q 442 1243 442 1242 q 440 1246 442 1244 l 439 1247 l 438 1274 q 442 1350 438 1308 q 439 1359 443 1356 q 431 1363 435 1363 l 247 1364 q 235 1354 238 1364 q 226 1306 229 1331 q 224 1256 224 1282 q 249 1159 224 1204 q 317 1082 274 1114 q 415 1032 360 1051 q 525 1013 469 1013 "},"Ắ":{"ha":1085,"x_min":7,"x_max":1078,"o":"m 1032 -3 l 1049 -3 q 1072 25 1067 -3 q 1078 38 1078 26 q 1072 71 1078 49 q 1064 103 1065 93 q 1062 115 1063 110 q 1058 135 1061 121 q 1025 278 1044 199 q 985 446 1006 358 q 944 618 964 533 q 906 777 924 703 q 874 904 888 851 q 869 912 874 906 q 861 919 865 918 l 856 919 q 850 917 856 917 q 834 917 843 917 q 814 924 825 918 q 796 928 804 929 q 779 926 788 926 q 753 926 765 926 q 725 924 740 925 q 715 924 722 924 q 700 922 707 924 q 685 920 693 921 q 671 919 678 919 q 665 921 668 919 q 658 924 661 922 l 589 924 q 578 925 583 925 q 567 925 574 925 q 554 926 554 925 l 422 926 q 378 926 394 926 q 349 924 361 925 q 339 923 346 924 q 332 919 332 922 q 320 920 326 919 q 311 922 314 921 q 304 924 308 925 q 297 924 300 924 q 278 926 288 925 q 260 926 269 926 q 243 924 254 926 q 235 919 239 922 q 225 917 232 917 l 222 919 l 217 919 q 208 911 211 917 q 204 904 204 906 q 110 508 150 679 q 47 237 69 338 q 21 119 24 136 q 17 99 21 114 q 10 76 13 92 q 8 62 8 68 q 8 49 8 56 q 7 35 7 44 q 17 4 7 18 q 32 -3 21 -3 l 46 -3 q 65 -2 57 -3 q 78 0 72 -1 l 263 0 l 263 3 q 278 4 267 4 q 282 3 281 4 q 283 0 282 0 l 296 0 q 322 3 301 3 q 358 4 343 4 q 385 4 374 4 q 401 54 392 15 q 421 144 411 93 q 424 164 422 157 q 425 176 425 171 q 460 171 443 172 q 499 169 476 169 l 576 169 l 588 131 q 607 45 603 75 q 614 4 611 15 q 621 4 617 4 q 629 3 625 4 q 635 1 629 1 l 636 0 l 640 0 q 651 3 649 0 q 658 4 653 4 l 718 3 l 760 3 q 767 1 764 1 q 771 0 769 0 l 1001 0 q 1015 -2 1008 -1 q 1032 -3 1022 -3 m 442 335 q 458 442 453 388 q 475 551 464 496 l 488 617 q 492 639 490 628 q 496 661 493 650 l 496 678 q 501 692 501 686 l 501 697 q 503 692 503 697 q 506 685 503 688 l 506 678 l 508 661 q 512 640 510 651 q 518 617 514 629 l 524 578 q 533 509 529 539 q 538 472 538 479 q 540 452 538 463 q 546 426 543 442 l 551 400 l 561 338 l 496 338 l 486 344 l 485 344 q 468 342 475 344 q 458 338 461 339 l 450 338 q 442 335 450 335 m 526 1017 q 651 1034 596 1017 q 750 1099 707 1051 q 790 1165 774 1125 q 815 1242 807 1206 q 818 1292 822 1278 l 786 1308 l 642 1314 l 619 1297 q 622 1284 621 1289 q 622 1276 622 1279 q 612 1243 622 1264 q 585 1206 601 1222 q 554 1189 569 1189 q 506 1207 536 1189 q 465 1250 475 1225 q 460 1272 460 1263 q 461 1282 460 1275 q 465 1299 463 1289 l 438 1315 l 306 1315 l 275 1299 q 268 1256 269 1279 q 267 1197 267 1233 q 287 1141 267 1169 q 343 1082 307 1113 q 434 1033 383 1050 q 526 1017 485 1017 m 533 1353 l 585 1353 q 607 1371 594 1353 q 635 1413 622 1390 q 661 1463 649 1436 q 686 1506 671 1483 q 711 1550 700 1525 q 720 1568 717 1561 q 725 1579 724 1575 q 735 1592 732 1586 q 739 1601 738 1599 q 743 1614 743 1610 q 737 1626 743 1622 q 718 1632 731 1629 q 707 1635 713 1633 q 697 1638 701 1636 l 690 1638 q 688 1636 690 1636 l 676 1639 l 589 1644 q 553 1643 575 1643 q 500 1643 532 1643 l 465 1633 l 454 1625 q 458 1531 454 1613 q 460 1498 460 1511 q 461 1478 461 1485 q 460 1454 461 1460 q 458 1428 458 1444 q 458 1390 458 1413 q 463 1363 458 1372 q 485 1353 468 1353 l 517 1353 l 522 1356 l 533 1353 "},"Ặ":{"ha":1085,"x_min":7,"x_max":1078,"o":"m 1032 -3 l 1049 -3 q 1072 25 1067 -3 q 1078 38 1078 26 q 1072 71 1078 49 q 1064 103 1065 93 q 1062 115 1063 110 q 1058 135 1061 121 q 1025 278 1044 199 q 985 446 1006 358 q 944 618 964 533 q 906 777 924 703 q 874 904 888 851 q 869 912 874 906 q 861 919 865 918 l 856 919 q 850 917 856 917 q 834 917 843 917 q 814 924 825 918 q 796 928 804 929 q 779 926 788 926 q 753 926 765 926 q 725 924 740 925 q 715 924 722 924 q 700 922 707 924 q 685 920 693 921 q 671 919 678 919 q 665 921 668 919 q 658 924 661 922 l 589 924 q 578 925 583 925 q 567 925 574 925 q 554 926 554 925 l 422 926 q 378 926 394 926 q 349 924 361 925 q 339 923 346 924 q 332 919 332 922 q 320 920 326 919 q 311 922 314 921 q 304 924 308 925 q 297 924 300 924 q 278 926 288 925 q 260 926 269 926 q 243 924 254 926 q 235 919 239 922 q 225 917 232 917 l 222 919 l 217 919 q 208 911 211 917 q 204 904 204 906 q 110 508 150 679 q 47 237 69 338 q 21 119 24 136 q 17 99 21 114 q 10 76 13 92 q 8 62 8 68 q 8 49 8 56 q 7 35 7 44 q 17 4 7 18 q 32 -3 21 -3 l 46 -3 q 65 -2 57 -3 q 78 0 72 -1 l 263 0 l 263 3 q 278 4 267 4 q 282 3 281 4 q 283 0 282 0 l 296 0 q 322 3 301 3 q 358 4 343 4 q 385 4 374 4 q 401 54 392 15 q 421 144 411 93 q 424 164 422 157 q 425 176 425 171 q 460 171 443 172 q 499 169 476 169 l 576 169 l 588 131 q 607 45 603 75 q 614 4 611 15 q 621 4 617 4 q 629 3 625 4 q 635 1 629 1 l 636 0 l 640 0 q 651 3 649 0 q 658 4 653 4 l 718 3 l 760 3 q 767 1 764 1 q 771 0 769 0 l 1001 0 q 1015 -2 1008 -1 q 1032 -3 1022 -3 m 442 335 q 458 442 453 388 q 475 551 464 496 l 488 617 q 492 639 490 628 q 496 661 493 650 l 496 678 q 501 692 501 686 l 501 697 q 503 692 503 697 q 506 685 503 688 l 506 678 l 508 661 q 512 640 510 651 q 518 617 514 629 l 524 578 q 533 509 529 539 q 538 472 538 479 q 540 452 538 463 q 546 426 543 442 l 551 400 l 561 338 l 496 338 l 486 344 l 485 344 q 468 342 475 344 q 458 338 461 339 l 450 338 q 442 335 450 335 m 526 1017 q 651 1034 596 1017 q 750 1099 707 1051 q 790 1165 774 1125 q 815 1242 807 1206 q 818 1292 822 1278 l 786 1308 l 642 1314 l 619 1297 q 622 1284 621 1289 q 622 1276 622 1279 q 612 1243 622 1264 q 585 1206 601 1222 q 554 1189 569 1189 q 506 1207 536 1189 q 465 1250 475 1225 q 460 1272 460 1263 q 461 1282 460 1275 q 465 1299 463 1289 l 438 1315 l 306 1315 l 275 1299 q 268 1256 269 1279 q 267 1197 267 1233 q 287 1141 267 1169 q 343 1082 307 1113 q 434 1033 383 1050 q 526 1017 485 1017 m 572 -412 l 579 -410 q 582 -407 579 -407 q 588 -408 586 -407 q 589 -409 588 -408 q 592 -410 590 -410 q 599 -410 597 -410 q 603 -411 601 -411 l 613 -410 q 615 -409 615 -410 q 617 -408 615 -408 q 622 -407 618 -407 l 650 -404 l 660 -400 l 665 -400 q 668 -403 665 -403 q 679 -401 676 -403 q 682 -401 681 -401 q 686 -400 683 -400 q 700 -382 697 -392 q 701 -372 700 -375 q 704 -367 701 -372 l 704 -207 q 703 -193 703 -203 l 703 -162 q 703 -154 703 -158 q 706 -143 704 -150 l 706 -140 q 674 -124 706 -124 q 661 -124 664 -124 q 656 -125 658 -125 l 549 -125 q 531 -127 539 -126 q 515 -128 522 -128 q 504 -128 510 -128 q 492 -126 499 -128 q 469 -125 488 -125 q 451 -124 464 -124 q 424 -124 439 -124 q 388 -143 390 -124 l 388 -179 q 385 -206 386 -193 q 385 -228 385 -218 q 379 -332 379 -262 q 380 -365 379 -349 q 382 -392 381 -381 l 390 -400 l 497 -410 q 508 -410 501 -410 q 519 -411 514 -410 q 540 -412 524 -412 l 572 -412 "},"Ằ":{"ha":1085,"x_min":7,"x_max":1078,"o":"m 1032 -3 l 1049 -3 q 1072 25 1067 -3 q 1078 38 1078 26 q 1072 71 1078 49 q 1064 103 1065 93 q 1062 115 1063 110 q 1058 135 1061 121 q 1025 278 1044 199 q 985 446 1006 358 q 944 618 964 533 q 906 777 924 703 q 874 904 888 851 q 869 912 874 906 q 861 919 865 918 l 856 919 q 850 917 856 917 q 834 917 843 917 q 814 924 825 918 q 796 928 804 929 q 779 926 788 926 q 753 926 765 926 q 725 924 740 925 q 715 924 722 924 q 700 922 707 924 q 685 920 693 921 q 671 919 678 919 q 665 921 668 919 q 658 924 661 922 l 589 924 q 578 925 583 925 q 567 925 574 925 q 554 926 554 925 l 422 926 q 378 926 394 926 q 349 924 361 925 q 339 923 346 924 q 332 919 332 922 q 320 920 326 919 q 311 922 314 921 q 304 924 308 925 q 297 924 300 924 q 278 926 288 925 q 260 926 269 926 q 243 924 254 926 q 235 919 239 922 q 225 917 232 917 l 222 919 l 217 919 q 208 911 211 917 q 204 904 204 906 q 110 508 150 679 q 47 237 69 338 q 21 119 24 136 q 17 99 21 114 q 10 76 13 92 q 8 62 8 68 q 8 49 8 56 q 7 35 7 44 q 17 4 7 18 q 32 -3 21 -3 l 46 -3 q 65 -2 57 -3 q 78 0 72 -1 l 263 0 l 263 3 q 278 4 267 4 q 282 3 281 4 q 283 0 282 0 l 296 0 q 322 3 301 3 q 358 4 343 4 q 385 4 374 4 q 401 54 392 15 q 421 144 411 93 q 424 164 422 157 q 425 176 425 171 q 460 171 443 172 q 499 169 476 169 l 576 169 l 588 131 q 607 45 603 75 q 614 4 611 15 q 621 4 617 4 q 629 3 625 4 q 635 1 629 1 l 636 0 l 640 0 q 651 3 649 0 q 658 4 653 4 l 718 3 l 760 3 q 767 1 764 1 q 771 0 769 0 l 1001 0 q 1015 -2 1008 -1 q 1032 -3 1022 -3 m 442 335 q 458 442 453 388 q 475 551 464 496 l 488 617 q 492 639 490 628 q 496 661 493 650 l 496 678 q 501 692 501 686 l 501 697 q 503 692 503 697 q 506 685 503 688 l 506 678 l 508 661 q 512 640 510 651 q 518 617 514 629 l 524 578 q 533 509 529 539 q 538 472 538 479 q 540 452 538 463 q 546 426 543 442 l 551 400 l 561 338 l 496 338 l 486 344 l 485 344 q 468 342 475 344 q 458 338 461 339 l 450 338 q 442 335 450 335 m 526 1017 q 651 1034 596 1017 q 750 1099 707 1051 q 790 1165 774 1125 q 815 1242 807 1206 q 818 1292 822 1278 l 786 1308 l 642 1314 l 619 1297 q 622 1284 621 1289 q 622 1276 622 1279 q 612 1243 622 1264 q 585 1206 601 1222 q 554 1189 569 1189 q 506 1207 536 1189 q 465 1250 475 1225 q 460 1272 460 1263 q 461 1282 460 1275 q 465 1299 463 1289 l 438 1315 l 306 1315 l 275 1299 q 268 1256 269 1279 q 267 1197 267 1233 q 287 1141 267 1169 q 343 1082 307 1113 q 434 1033 383 1050 q 526 1017 485 1017 m 554 1350 l 565 1354 l 569 1350 l 603 1350 q 624 1361 619 1350 q 629 1392 629 1372 q 629 1433 629 1415 q 628 1463 629 1451 q 626 1475 626 1468 q 626 1492 626 1482 q 627 1515 626 1500 q 629 1550 628 1529 q 631 1604 631 1579 q 632 1651 632 1629 l 622 1660 l 588 1671 q 535 1671 557 1671 q 499 1672 513 1671 l 410 1665 l 400 1663 q 396 1664 396 1663 l 389 1664 q 380 1661 385 1663 q 369 1658 375 1660 q 353 1651 358 1657 q 343 1639 343 1647 q 347 1625 343 1633 q 353 1613 350 1619 q 361 1600 357 1607 l 374 1575 q 388 1546 381 1560 q 401 1519 394 1532 q 408 1508 404 1514 q 415 1494 413 1501 q 421 1483 418 1489 q 426 1472 424 1478 q 453 1416 440 1442 q 479 1371 465 1390 q 503 1350 494 1350 l 554 1350 "},"Ẳ":{"ha":1085,"x_min":7,"x_max":1078,"o":"m 1032 -3 l 1049 -3 q 1072 25 1067 -3 q 1078 38 1078 26 q 1072 71 1078 49 q 1064 103 1065 93 q 1062 115 1063 110 q 1058 135 1061 121 q 1025 278 1044 199 q 985 446 1006 358 q 944 618 964 533 q 906 777 924 703 q 874 904 888 851 q 869 912 874 906 q 861 919 865 918 l 856 919 q 850 917 856 917 q 834 917 843 917 q 814 924 825 918 q 796 928 804 929 q 779 926 788 926 q 753 926 765 926 q 725 924 740 925 q 715 924 722 924 q 700 922 707 924 q 685 920 693 921 q 671 919 678 919 q 665 921 668 919 q 658 924 661 922 l 589 924 q 578 925 583 925 q 567 925 574 925 q 554 926 554 925 l 422 926 q 378 926 394 926 q 349 924 361 925 q 339 923 346 924 q 332 919 332 922 q 320 920 326 919 q 311 922 314 921 q 304 924 308 925 q 297 924 300 924 q 278 926 288 925 q 260 926 269 926 q 243 924 254 926 q 235 919 239 922 q 225 917 232 917 l 222 919 l 217 919 q 208 911 211 917 q 204 904 204 906 q 110 508 150 679 q 47 237 69 338 q 21 119 24 136 q 17 99 21 114 q 10 76 13 92 q 8 62 8 68 q 8 49 8 56 q 7 35 7 44 q 17 4 7 18 q 32 -3 21 -3 l 46 -3 q 65 -2 57 -3 q 78 0 72 -1 l 263 0 l 263 3 q 278 4 267 4 q 282 3 281 4 q 283 0 282 0 l 296 0 q 322 3 301 3 q 358 4 343 4 q 385 4 374 4 q 401 54 392 15 q 421 144 411 93 q 424 164 422 157 q 425 176 425 171 q 460 171 443 172 q 499 169 476 169 l 576 169 l 588 131 q 607 45 603 75 q 614 4 611 15 q 621 4 617 4 q 629 3 625 4 q 635 1 629 1 l 636 0 l 640 0 q 651 3 649 0 q 658 4 653 4 l 718 3 l 760 3 q 767 1 764 1 q 771 0 769 0 l 1001 0 q 1015 -2 1008 -1 q 1032 -3 1022 -3 m 442 335 q 458 442 453 388 q 475 551 464 496 l 488 617 q 492 639 490 628 q 496 661 493 650 l 496 678 q 501 692 501 686 l 501 697 q 503 692 503 697 q 506 685 503 688 l 506 678 l 508 661 q 512 640 510 651 q 518 617 514 629 l 524 578 q 533 509 529 539 q 538 472 538 479 q 540 452 538 463 q 546 426 543 442 l 551 400 l 561 338 l 496 338 l 486 344 l 485 344 q 468 342 475 344 q 458 338 461 339 l 450 338 q 442 335 450 335 m 526 1017 q 651 1034 596 1017 q 750 1099 707 1051 q 790 1165 774 1125 q 815 1242 807 1206 q 818 1292 822 1278 l 786 1308 l 642 1314 l 619 1297 q 622 1284 621 1289 q 622 1276 622 1279 q 612 1243 622 1264 q 585 1206 601 1222 q 554 1189 569 1189 q 506 1207 536 1189 q 465 1250 475 1225 q 460 1272 460 1263 q 461 1282 460 1275 q 465 1299 463 1289 l 438 1315 l 306 1315 l 275 1299 q 268 1256 269 1279 q 267 1197 267 1233 q 287 1141 267 1169 q 343 1082 307 1113 q 434 1033 383 1050 q 526 1017 485 1017 m 482 1350 q 513 1350 499 1350 q 533 1351 526 1350 l 560 1351 l 571 1350 l 579 1350 q 592 1367 592 1350 l 593 1401 q 599 1400 593 1400 q 613 1408 604 1400 q 638 1426 622 1415 q 679 1444 653 1438 q 766 1489 738 1463 q 803 1545 794 1515 q 813 1601 813 1575 q 804 1626 813 1617 q 789 1646 796 1636 q 767 1674 776 1664 q 738 1692 757 1683 q 663 1712 708 1701 q 574 1722 618 1722 q 535 1722 554 1722 q 494 1721 515 1722 q 406 1713 451 1719 q 399 1712 404 1713 q 389 1708 393 1711 q 381 1690 381 1701 q 378 1681 379 1685 q 376 1674 378 1678 q 372 1627 374 1650 q 369 1581 369 1604 q 381 1568 369 1568 q 407 1572 385 1568 q 442 1576 421 1575 q 493 1578 464 1578 q 567 1572 546 1578 q 589 1556 589 1567 q 578 1540 589 1546 q 549 1522 568 1533 q 523 1516 543 1519 q 496 1508 503 1513 q 455 1457 461 1483 q 449 1401 449 1431 q 455 1365 449 1379 q 482 1350 461 1350 "},"Ẵ":{"ha":1085,"x_min":7,"x_max":1078,"o":"m 1032 -3 l 1049 -3 q 1072 25 1067 -3 q 1078 38 1078 26 q 1072 71 1078 49 q 1064 103 1065 93 q 1062 115 1063 110 q 1058 135 1061 121 q 1025 278 1044 199 q 985 446 1006 358 q 944 618 964 533 q 906 777 924 703 q 874 904 888 851 q 869 912 874 906 q 861 919 865 918 l 856 919 q 850 917 856 917 q 834 917 843 917 q 814 924 825 918 q 796 928 804 929 q 779 926 788 926 q 753 926 765 926 q 725 924 740 925 q 715 924 722 924 q 700 922 707 924 q 685 920 693 921 q 671 919 678 919 q 665 921 668 919 q 658 924 661 922 l 589 924 q 578 925 583 925 q 567 925 574 925 q 554 926 554 925 l 422 926 q 378 926 394 926 q 349 924 361 925 q 339 923 346 924 q 332 919 332 922 q 320 920 326 919 q 311 922 314 921 q 304 924 308 925 q 297 924 300 924 q 278 926 288 925 q 260 926 269 926 q 243 924 254 926 q 235 919 239 922 q 225 917 232 917 l 222 919 l 217 919 q 208 911 211 917 q 204 904 204 906 q 110 508 150 679 q 47 237 69 338 q 21 119 24 136 q 17 99 21 114 q 10 76 13 92 q 8 62 8 68 q 8 49 8 56 q 7 35 7 44 q 17 4 7 18 q 32 -3 21 -3 l 46 -3 q 65 -2 57 -3 q 78 0 72 -1 l 263 0 l 263 3 q 278 4 267 4 q 282 3 281 4 q 283 0 282 0 l 296 0 q 322 3 301 3 q 358 4 343 4 q 385 4 374 4 q 401 54 392 15 q 421 144 411 93 q 424 164 422 157 q 425 176 425 171 q 460 171 443 172 q 499 169 476 169 l 576 169 l 588 131 q 607 45 603 75 q 614 4 611 15 q 621 4 617 4 q 629 3 625 4 q 635 1 629 1 l 636 0 l 640 0 q 651 3 649 0 q 658 4 653 4 l 718 3 l 760 3 q 767 1 764 1 q 771 0 769 0 l 1001 0 q 1015 -2 1008 -1 q 1032 -3 1022 -3 m 442 335 q 458 442 453 388 q 475 551 464 496 l 488 617 q 492 639 490 628 q 496 661 493 650 l 496 678 q 501 692 501 686 l 501 697 q 503 692 503 697 q 506 685 503 688 l 506 678 l 508 661 q 512 640 510 651 q 518 617 514 629 l 524 578 q 533 509 529 539 q 538 472 538 479 q 540 452 538 463 q 546 426 543 442 l 551 400 l 561 338 l 496 338 l 486 344 l 485 344 q 468 342 475 344 q 458 338 461 339 l 450 338 q 442 335 450 335 m 526 1017 q 651 1034 596 1017 q 750 1099 707 1051 q 790 1165 774 1125 q 815 1242 807 1206 q 818 1292 822 1278 l 786 1308 l 642 1314 l 619 1297 q 622 1284 621 1289 q 622 1276 622 1279 q 612 1243 622 1264 q 585 1206 601 1222 q 554 1189 569 1189 q 506 1207 536 1189 q 465 1250 475 1225 q 460 1272 460 1263 q 461 1282 460 1275 q 465 1299 463 1289 l 438 1315 l 306 1315 l 275 1299 q 268 1256 269 1279 q 267 1197 267 1233 q 287 1141 267 1169 q 343 1082 307 1113 q 434 1033 383 1050 q 526 1017 485 1017 m 643 1640 l 653 1618 l 653 1617 q 660 1592 658 1604 q 663 1572 663 1581 q 632 1547 663 1547 q 593 1572 610 1547 q 585 1584 589 1579 q 576 1592 582 1589 q 569 1599 571 1594 q 565 1608 567 1604 q 544 1637 560 1624 q 500 1656 528 1650 q 488 1659 496 1657 q 468 1667 481 1661 q 447 1674 456 1671 q 431 1676 438 1676 q 279 1635 325 1676 q 239 1574 253 1611 q 220 1499 225 1536 q 215 1435 215 1461 q 217 1426 217 1431 q 221 1419 218 1422 q 222 1410 221 1413 q 229 1393 224 1399 q 260 1375 231 1383 q 369 1369 278 1369 q 375 1369 372 1364 q 380 1391 378 1376 q 382 1413 382 1406 q 389 1447 382 1428 q 410 1467 396 1467 q 446 1458 425 1467 q 511 1401 479 1443 q 521 1391 515 1396 q 535 1382 526 1386 q 545 1374 542 1378 q 550 1369 549 1371 q 602 1346 575 1354 q 661 1338 629 1338 q 726 1346 699 1338 q 778 1369 753 1354 q 857 1457 831 1404 q 867 1482 864 1468 q 871 1514 871 1496 l 869 1556 q 864 1605 868 1583 q 849 1644 860 1626 q 841 1654 846 1650 q 831 1664 836 1658 l 678 1658 q 656 1657 669 1658 q 643 1640 643 1656 "},"Â":{"ha":1085,"x_min":7,"x_max":1078,"o":"m 1032 -3 l 1049 -3 q 1072 25 1067 -3 q 1078 38 1078 26 q 1072 71 1078 49 q 1064 103 1065 93 q 1062 115 1063 110 q 1058 135 1061 121 q 1025 278 1044 199 q 985 446 1006 358 q 944 618 964 533 q 906 777 924 703 q 874 904 888 851 q 869 912 874 906 q 861 919 865 918 l 856 919 q 850 917 856 917 q 834 917 843 917 q 814 924 825 918 q 796 928 804 929 q 779 926 788 926 q 753 926 765 926 q 725 924 740 925 q 715 924 722 924 q 700 922 707 924 q 685 920 693 921 q 671 919 678 919 q 665 921 668 919 q 658 924 661 922 l 589 924 q 578 925 583 925 q 567 925 574 925 q 554 926 554 925 l 422 926 q 378 926 394 926 q 349 924 361 925 q 339 923 346 924 q 332 919 332 922 q 320 920 326 919 q 311 922 314 921 q 304 924 308 925 q 297 924 300 924 q 278 926 288 925 q 260 926 269 926 q 243 924 254 926 q 235 919 239 922 q 225 917 232 917 l 222 919 l 217 919 q 208 911 211 917 q 204 904 204 906 q 110 508 150 679 q 47 237 69 338 q 21 119 24 136 q 17 99 21 114 q 10 76 13 92 q 8 62 8 68 q 8 49 8 56 q 7 35 7 44 q 17 4 7 18 q 32 -3 21 -3 l 46 -3 q 65 -2 57 -3 q 78 0 72 -1 l 263 0 l 263 3 q 278 4 267 4 q 282 3 281 4 q 283 0 282 0 l 296 0 q 322 3 301 3 q 358 4 343 4 q 385 4 374 4 q 401 54 392 15 q 421 144 411 93 q 424 164 422 157 q 425 176 425 171 q 460 171 443 172 q 499 169 476 169 l 576 169 l 588 131 q 607 45 603 75 q 614 4 611 15 q 621 4 617 4 q 629 3 625 4 q 635 1 629 1 l 636 0 l 640 0 q 651 3 649 0 q 658 4 653 4 l 718 3 l 760 3 q 767 1 764 1 q 771 0 769 0 l 1001 0 q 1015 -2 1008 -1 q 1032 -3 1022 -3 m 442 335 q 458 442 453 388 q 475 551 464 496 l 488 617 q 492 639 490 628 q 496 661 493 650 l 496 678 q 501 692 501 686 l 501 697 q 503 692 503 697 q 506 685 503 688 l 506 678 l 508 661 q 512 640 510 651 q 518 617 514 629 l 524 578 q 533 509 529 539 q 538 472 538 479 q 540 452 538 463 q 546 426 543 442 l 551 400 l 561 338 l 496 338 l 486 344 l 485 344 q 468 342 475 344 q 458 338 461 339 l 450 338 q 442 335 450 335 m 314 1013 q 329 1014 317 1014 q 339 1013 333 1013 l 369 1013 l 374 1014 l 378 1013 l 417 1013 q 440 1033 425 1013 q 478 1076 454 1053 l 492 1090 q 513 1121 501 1100 q 542 1174 524 1142 q 572 1132 558 1151 q 600 1096 586 1113 q 608 1085 604 1090 q 618 1074 613 1081 q 631 1053 624 1064 q 656 1022 638 1043 q 669 1013 663 1013 l 800 1013 q 815 1031 815 1013 l 815 1036 l 814 1040 q 788 1118 808 1071 q 714 1263 756 1193 l 671 1331 l 649 1344 l 619 1347 l 467 1347 l 421 1338 l 414 1331 q 395 1299 403 1313 q 382 1278 388 1285 l 353 1224 l 331 1176 q 317 1151 322 1163 q 308 1133 313 1140 q 271 1040 276 1072 l 271 1031 q 283 1013 271 1013 l 314 1013 "},"Ấ":{"ha":1085,"x_min":7,"x_max":1078,"o":"m 1032 -3 l 1049 -3 q 1072 25 1067 -3 q 1078 38 1078 26 q 1072 71 1078 49 q 1064 103 1065 93 q 1062 115 1063 110 q 1058 135 1061 121 q 1025 278 1044 199 q 985 446 1006 358 q 944 618 964 533 q 906 777 924 703 q 874 904 888 851 q 869 912 874 906 q 861 919 865 918 l 856 919 q 850 917 856 917 q 834 917 843 917 q 814 924 825 918 q 796 928 804 929 q 779 926 788 926 q 753 926 765 926 q 725 924 740 925 q 715 924 722 924 q 700 922 707 924 q 685 920 693 921 q 671 919 678 919 q 665 921 668 919 q 658 924 661 922 l 589 924 q 578 925 583 925 q 567 925 574 925 q 554 926 554 925 l 422 926 q 378 926 394 926 q 349 924 361 925 q 339 923 346 924 q 332 919 332 922 q 320 920 326 919 q 311 922 314 921 q 304 924 308 925 q 297 924 300 924 q 278 926 288 925 q 260 926 269 926 q 243 924 254 926 q 235 919 239 922 q 225 917 232 917 l 222 919 l 217 919 q 208 911 211 917 q 204 904 204 906 q 110 508 150 679 q 47 237 69 338 q 21 119 24 136 q 17 99 21 114 q 10 76 13 92 q 8 62 8 68 q 8 49 8 56 q 7 35 7 44 q 17 4 7 18 q 32 -3 21 -3 l 46 -3 q 65 -2 57 -3 q 78 0 72 -1 l 263 0 l 263 3 q 278 4 267 4 q 282 3 281 4 q 283 0 282 0 l 296 0 q 322 3 301 3 q 358 4 343 4 q 385 4 374 4 q 401 54 392 15 q 421 144 411 93 q 424 164 422 157 q 425 176 425 171 q 460 171 443 172 q 499 169 476 169 l 576 169 l 588 131 q 607 45 603 75 q 614 4 611 15 q 621 4 617 4 q 629 3 625 4 q 635 1 629 1 l 636 0 l 640 0 q 651 3 649 0 q 658 4 653 4 l 718 3 l 760 3 q 767 1 764 1 q 771 0 769 0 l 1001 0 q 1015 -2 1008 -1 q 1032 -3 1022 -3 m 442 335 q 458 442 453 388 q 475 551 464 496 l 488 617 q 492 639 490 628 q 496 661 493 650 l 496 678 q 501 692 501 686 l 501 697 q 503 692 503 697 q 506 685 503 688 l 506 678 l 508 661 q 512 640 510 651 q 518 617 514 629 l 524 578 q 533 509 529 539 q 538 472 538 479 q 540 452 538 463 q 546 426 543 442 l 551 400 l 561 338 l 496 338 l 486 344 l 485 344 q 468 342 475 344 q 458 338 461 339 l 450 338 q 442 335 450 335 m 344 1024 l 349 1018 l 394 1018 q 433 1049 406 1018 q 457 1072 438 1053 q 501 1113 476 1090 q 543 1149 526 1135 q 588 1108 564 1128 q 638 1065 613 1089 l 674 1032 q 690 1018 681 1018 l 843 1018 q 861 1042 861 1018 l 861 1049 l 858 1057 q 841 1080 850 1068 q 822 1106 832 1092 l 796 1142 l 692 1299 l 668 1314 l 631 1317 l 608 1317 q 600 1318 603 1317 q 594 1321 597 1319 l 454 1321 l 403 1290 l 399 1279 q 367 1247 386 1265 q 339 1213 346 1226 l 303 1168 q 256 1096 292 1143 q 240 1078 247 1088 q 226 1057 233 1068 q 225 1049 225 1056 l 225 1042 q 228 1025 225 1032 q 240 1018 232 1018 l 340 1018 l 344 1024 m 861 1228 l 913 1228 q 935 1246 922 1228 q 963 1288 950 1265 q 989 1338 976 1311 q 1014 1381 999 1358 q 1039 1425 1028 1400 q 1048 1443 1044 1436 q 1053 1454 1051 1450 q 1063 1467 1060 1461 q 1067 1476 1065 1474 q 1071 1489 1071 1485 q 1065 1501 1071 1497 q 1046 1507 1058 1504 q 1035 1510 1040 1508 q 1025 1513 1029 1511 l 1018 1513 q 1015 1511 1018 1511 l 1004 1514 l 917 1519 q 881 1518 903 1518 q 828 1518 860 1518 l 793 1508 l 782 1500 q 786 1406 782 1488 q 788 1373 788 1386 q 789 1353 789 1360 q 788 1329 789 1335 q 786 1303 786 1319 q 786 1265 786 1288 q 791 1238 786 1247 q 813 1228 796 1228 l 844 1228 l 850 1231 l 861 1228 "},"Ậ":{"ha":1085,"x_min":7,"x_max":1078,"o":"m 1032 -3 l 1049 -3 q 1072 25 1067 -3 q 1078 38 1078 26 q 1072 71 1078 49 q 1064 103 1065 93 q 1062 115 1063 110 q 1058 135 1061 121 q 1025 278 1044 199 q 985 446 1006 358 q 944 618 964 533 q 906 777 924 703 q 874 904 888 851 q 869 912 874 906 q 861 919 865 918 l 856 919 q 850 917 856 917 q 834 917 843 917 q 814 924 825 918 q 796 928 804 929 q 779 926 788 926 q 753 926 765 926 q 725 924 740 925 q 715 924 722 924 q 700 922 707 924 q 685 920 693 921 q 671 919 678 919 q 665 921 668 919 q 658 924 661 922 l 589 924 q 578 925 583 925 q 567 925 574 925 q 554 926 554 925 l 422 926 q 378 926 394 926 q 349 924 361 925 q 339 923 346 924 q 332 919 332 922 q 320 920 326 919 q 311 922 314 921 q 304 924 308 925 q 297 924 300 924 q 278 926 288 925 q 260 926 269 926 q 243 924 254 926 q 235 919 239 922 q 225 917 232 917 l 222 919 l 217 919 q 208 911 211 917 q 204 904 204 906 q 110 508 150 679 q 47 237 69 338 q 21 119 24 136 q 17 99 21 114 q 10 76 13 92 q 8 62 8 68 q 8 49 8 56 q 7 35 7 44 q 17 4 7 18 q 32 -3 21 -3 l 46 -3 q 65 -2 57 -3 q 78 0 72 -1 l 263 0 l 263 3 q 278 4 267 4 q 282 3 281 4 q 283 0 282 0 l 296 0 q 322 3 301 3 q 358 4 343 4 q 385 4 374 4 q 401 54 392 15 q 421 144 411 93 q 424 164 422 157 q 425 176 425 171 q 460 171 443 172 q 499 169 476 169 l 576 169 l 588 131 q 607 45 603 75 q 614 4 611 15 q 621 4 617 4 q 629 3 625 4 q 635 1 629 1 l 636 0 l 640 0 q 651 3 649 0 q 658 4 653 4 l 718 3 l 760 3 q 767 1 764 1 q 771 0 769 0 l 1001 0 q 1015 -2 1008 -1 q 1032 -3 1022 -3 m 442 335 q 458 442 453 388 q 475 551 464 496 l 488 617 q 492 639 490 628 q 496 661 493 650 l 496 678 q 501 692 501 686 l 501 697 q 503 692 503 697 q 506 685 503 688 l 506 678 l 508 661 q 512 640 510 651 q 518 617 514 629 l 524 578 q 533 509 529 539 q 538 472 538 479 q 540 452 538 463 q 546 426 543 442 l 551 400 l 561 338 l 496 338 l 486 344 l 485 344 q 468 342 475 344 q 458 338 461 339 l 450 338 q 442 335 450 335 m 344 1024 l 349 1018 l 394 1018 q 433 1049 406 1018 q 457 1072 438 1053 q 501 1113 476 1090 q 543 1149 526 1135 q 588 1108 564 1128 q 638 1065 613 1089 l 674 1032 q 690 1018 681 1018 l 843 1018 q 861 1042 861 1018 l 861 1049 l 858 1057 q 841 1080 850 1068 q 822 1106 832 1092 l 796 1142 l 692 1299 l 668 1314 l 631 1317 l 608 1317 q 600 1318 603 1317 q 594 1321 597 1319 l 454 1321 l 403 1290 l 399 1279 q 367 1247 386 1265 q 339 1213 346 1226 l 303 1168 q 256 1096 292 1143 q 240 1078 247 1088 q 226 1057 233 1068 q 225 1049 225 1056 l 225 1042 q 228 1025 225 1032 q 240 1018 232 1018 l 340 1018 l 344 1024 m 572 -412 l 579 -410 q 582 -407 579 -407 q 588 -408 586 -407 q 589 -409 588 -408 q 592 -410 590 -410 q 599 -410 597 -410 q 603 -411 601 -411 l 613 -410 q 615 -409 615 -410 q 617 -408 615 -408 q 622 -407 618 -407 l 650 -404 l 660 -400 l 665 -400 q 668 -403 665 -403 q 679 -401 676 -403 q 682 -401 681 -401 q 686 -400 683 -400 q 700 -382 697 -392 q 701 -372 700 -375 q 704 -367 701 -372 l 704 -207 q 703 -193 703 -203 l 703 -162 q 703 -154 703 -158 q 706 -143 704 -150 l 706 -140 q 674 -124 706 -124 q 661 -124 664 -124 q 656 -125 658 -125 l 549 -125 q 531 -127 539 -126 q 515 -128 522 -128 q 504 -128 510 -128 q 492 -126 499 -128 q 469 -125 488 -125 q 451 -124 464 -124 q 424 -124 439 -124 q 388 -143 390 -124 l 388 -179 q 385 -206 386 -193 q 385 -228 385 -218 q 379 -332 379 -262 q 380 -365 379 -349 q 382 -392 381 -381 l 390 -400 l 497 -410 q 508 -410 501 -410 q 519 -411 514 -410 q 540 -412 524 -412 l 572 -412 "},"Ầ":{"ha":1085,"x_min":7,"x_max":1078,"o":"m 1032 -3 l 1049 -3 q 1072 25 1067 -3 q 1078 38 1078 26 q 1072 71 1078 49 q 1064 103 1065 93 q 1062 115 1063 110 q 1058 135 1061 121 q 1025 278 1044 199 q 985 446 1006 358 q 944 618 964 533 q 906 777 924 703 q 874 904 888 851 q 869 912 874 906 q 861 919 865 918 l 856 919 q 850 917 856 917 q 834 917 843 917 q 814 924 825 918 q 796 928 804 929 q 779 926 788 926 q 753 926 765 926 q 725 924 740 925 q 715 924 722 924 q 700 922 707 924 q 685 920 693 921 q 671 919 678 919 q 665 921 668 919 q 658 924 661 922 l 589 924 q 578 925 583 925 q 567 925 574 925 q 554 926 554 925 l 422 926 q 378 926 394 926 q 349 924 361 925 q 339 923 346 924 q 332 919 332 922 q 320 920 326 919 q 311 922 314 921 q 304 924 308 925 q 297 924 300 924 q 278 926 288 925 q 260 926 269 926 q 243 924 254 926 q 235 919 239 922 q 225 917 232 917 l 222 919 l 217 919 q 208 911 211 917 q 204 904 204 906 q 110 508 150 679 q 47 237 69 338 q 21 119 24 136 q 17 99 21 114 q 10 76 13 92 q 8 62 8 68 q 8 49 8 56 q 7 35 7 44 q 17 4 7 18 q 32 -3 21 -3 l 46 -3 q 65 -2 57 -3 q 78 0 72 -1 l 263 0 l 263 3 q 278 4 267 4 q 282 3 281 4 q 283 0 282 0 l 296 0 q 322 3 301 3 q 358 4 343 4 q 385 4 374 4 q 401 54 392 15 q 421 144 411 93 q 424 164 422 157 q 425 176 425 171 q 460 171 443 172 q 499 169 476 169 l 576 169 l 588 131 q 607 45 603 75 q 614 4 611 15 q 621 4 617 4 q 629 3 625 4 q 635 1 629 1 l 636 0 l 640 0 q 651 3 649 0 q 658 4 653 4 l 718 3 l 760 3 q 767 1 764 1 q 771 0 769 0 l 1001 0 q 1015 -2 1008 -1 q 1032 -3 1022 -3 m 442 335 q 458 442 453 388 q 475 551 464 496 l 488 617 q 492 639 490 628 q 496 661 493 650 l 496 678 q 501 692 501 686 l 501 697 q 503 692 503 697 q 506 685 503 688 l 506 678 l 508 661 q 512 640 510 651 q 518 617 514 629 l 524 578 q 533 509 529 539 q 538 472 538 479 q 540 452 538 463 q 546 426 543 442 l 551 400 l 561 338 l 496 338 l 486 344 l 485 344 q 468 342 475 344 q 458 338 461 339 l 450 338 q 442 335 450 335 m 344 1024 l 349 1018 l 394 1018 q 433 1049 406 1018 q 457 1072 438 1053 q 501 1113 476 1090 q 543 1149 526 1135 q 588 1108 564 1128 q 638 1065 613 1089 l 674 1032 q 690 1018 681 1018 l 843 1018 q 861 1042 861 1018 l 861 1049 l 858 1057 q 841 1080 850 1068 q 822 1106 832 1092 l 796 1142 l 692 1299 l 668 1314 l 631 1317 l 608 1317 q 600 1318 603 1317 q 594 1321 597 1319 l 454 1321 l 403 1290 l 399 1279 q 367 1247 386 1265 q 339 1213 346 1226 l 303 1168 q 256 1096 292 1143 q 240 1078 247 1088 q 226 1057 233 1068 q 225 1049 225 1056 l 225 1042 q 228 1025 225 1032 q 240 1018 232 1018 l 340 1018 l 344 1024 m 882 1225 l 893 1229 l 897 1225 l 931 1225 q 952 1236 947 1225 q 957 1267 957 1247 q 957 1308 957 1290 q 956 1338 957 1326 q 954 1350 954 1343 q 954 1367 954 1357 q 955 1390 954 1375 q 957 1425 956 1404 q 959 1479 958 1454 q 960 1526 960 1504 l 950 1535 l 915 1546 q 863 1546 885 1546 q 826 1547 840 1546 l 738 1540 l 728 1538 q 724 1539 724 1538 l 717 1539 q 708 1536 713 1538 q 697 1533 703 1535 q 681 1526 686 1532 q 671 1514 671 1522 q 675 1500 671 1508 q 681 1488 678 1494 q 689 1475 685 1482 l 701 1450 q 715 1421 708 1435 q 729 1394 722 1407 q 736 1383 732 1389 q 743 1369 740 1376 q 749 1358 746 1364 q 754 1347 751 1353 q 781 1291 768 1317 q 807 1246 793 1265 q 831 1225 822 1225 l 882 1225 "},"Ẩ":{"ha":1085,"x_min":7,"x_max":1140,"o":"m 1032 -3 l 1049 -3 q 1072 25 1067 -3 q 1078 38 1078 26 q 1072 71 1078 49 q 1064 103 1065 93 q 1062 115 1063 110 q 1058 135 1061 121 q 1025 278 1044 199 q 985 446 1006 358 q 944 618 964 533 q 906 777 924 703 q 874 904 888 851 q 869 912 874 906 q 861 919 865 918 l 856 919 q 850 917 856 917 q 834 917 843 917 q 814 924 825 918 q 796 928 804 929 q 779 926 788 926 q 753 926 765 926 q 725 924 740 925 q 715 924 722 924 q 700 922 707 924 q 685 920 693 921 q 671 919 678 919 q 665 921 668 919 q 658 924 661 922 l 589 924 q 578 925 583 925 q 567 925 574 925 q 554 926 554 925 l 422 926 q 378 926 394 926 q 349 924 361 925 q 339 923 346 924 q 332 919 332 922 q 320 920 326 919 q 311 922 314 921 q 304 924 308 925 q 297 924 300 924 q 278 926 288 925 q 260 926 269 926 q 243 924 254 926 q 235 919 239 922 q 225 917 232 917 l 222 919 l 217 919 q 208 911 211 917 q 204 904 204 906 q 110 508 150 679 q 47 237 69 338 q 21 119 24 136 q 17 99 21 114 q 10 76 13 92 q 8 62 8 68 q 8 49 8 56 q 7 35 7 44 q 17 4 7 18 q 32 -3 21 -3 l 46 -3 q 65 -2 57 -3 q 78 0 72 -1 l 263 0 l 263 3 q 278 4 267 4 q 282 3 281 4 q 283 0 282 0 l 296 0 q 322 3 301 3 q 358 4 343 4 q 385 4 374 4 q 401 54 392 15 q 421 144 411 93 q 424 164 422 157 q 425 176 425 171 q 460 171 443 172 q 499 169 476 169 l 576 169 l 588 131 q 607 45 603 75 q 614 4 611 15 q 621 4 617 4 q 629 3 625 4 q 635 1 629 1 l 636 0 l 640 0 q 651 3 649 0 q 658 4 653 4 l 718 3 l 760 3 q 767 1 764 1 q 771 0 769 0 l 1001 0 q 1015 -2 1008 -1 q 1032 -3 1022 -3 m 442 335 q 458 442 453 388 q 475 551 464 496 l 488 617 q 492 639 490 628 q 496 661 493 650 l 496 678 q 501 692 501 686 l 501 697 q 503 692 503 697 q 506 685 503 688 l 506 678 l 508 661 q 512 640 510 651 q 518 617 514 629 l 524 578 q 533 509 529 539 q 538 472 538 479 q 540 452 538 463 q 546 426 543 442 l 551 400 l 561 338 l 496 338 l 486 344 l 485 344 q 468 342 475 344 q 458 338 461 339 l 450 338 q 442 335 450 335 m 344 1024 l 349 1018 l 394 1018 q 433 1049 406 1018 q 457 1072 438 1053 q 501 1113 476 1090 q 543 1149 526 1135 q 588 1108 564 1128 q 638 1065 613 1089 l 674 1032 q 690 1018 681 1018 l 843 1018 q 861 1042 861 1018 l 861 1049 l 858 1057 q 841 1080 850 1068 q 822 1106 832 1092 l 796 1142 l 692 1299 l 668 1314 l 631 1317 l 608 1317 q 600 1318 603 1317 q 594 1321 597 1319 l 454 1321 l 403 1290 l 399 1279 q 367 1247 386 1265 q 339 1213 346 1226 l 303 1168 q 256 1096 292 1143 q 240 1078 247 1088 q 226 1057 233 1068 q 225 1049 225 1056 l 225 1042 q 228 1025 225 1032 q 240 1018 232 1018 l 340 1018 l 344 1024 m 810 1225 q 840 1225 826 1225 q 861 1226 854 1225 l 888 1226 l 899 1225 l 907 1225 q 919 1242 919 1225 l 921 1276 q 926 1275 921 1275 q 940 1283 932 1275 q 965 1301 950 1290 q 1007 1319 981 1313 q 1094 1364 1065 1338 q 1131 1420 1122 1390 q 1140 1476 1140 1450 q 1132 1501 1140 1492 q 1117 1521 1124 1511 q 1094 1549 1104 1539 q 1065 1567 1085 1558 q 991 1587 1036 1576 q 901 1597 946 1597 q 863 1597 882 1597 q 822 1596 843 1597 q 733 1588 779 1594 q 726 1587 732 1588 q 717 1583 721 1586 q 708 1565 708 1576 q 706 1556 707 1560 q 704 1549 706 1553 q 699 1502 701 1525 q 697 1456 697 1479 q 708 1443 697 1443 q 735 1447 713 1443 q 770 1451 749 1450 q 821 1453 792 1453 q 895 1447 874 1453 q 917 1431 917 1442 q 906 1415 917 1421 q 876 1397 896 1408 q 851 1391 871 1394 q 824 1383 831 1388 q 783 1332 789 1358 q 776 1276 776 1306 q 783 1240 776 1254 q 810 1225 789 1225 "},"Ẫ":{"ha":1085,"x_min":7,"x_max":1078,"o":"m 1032 -3 l 1049 -3 q 1072 25 1067 -3 q 1078 38 1078 26 q 1072 71 1078 49 q 1064 103 1065 93 q 1062 115 1063 110 q 1058 135 1061 121 q 1025 278 1044 199 q 985 446 1006 358 q 944 618 964 533 q 906 777 924 703 q 874 904 888 851 q 869 912 874 906 q 861 919 865 918 l 856 919 q 850 917 856 917 q 834 917 843 917 q 814 924 825 918 q 796 928 804 929 q 779 926 788 926 q 753 926 765 926 q 725 924 740 925 q 715 924 722 924 q 700 922 707 924 q 685 920 693 921 q 671 919 678 919 q 665 921 668 919 q 658 924 661 922 l 589 924 q 578 925 583 925 q 567 925 574 925 q 554 926 554 925 l 422 926 q 378 926 394 926 q 349 924 361 925 q 339 923 346 924 q 332 919 332 922 q 320 920 326 919 q 311 922 314 921 q 304 924 308 925 q 297 924 300 924 q 278 926 288 925 q 260 926 269 926 q 243 924 254 926 q 235 919 239 922 q 225 917 232 917 l 222 919 l 217 919 q 208 911 211 917 q 204 904 204 906 q 110 508 150 679 q 47 237 69 338 q 21 119 24 136 q 17 99 21 114 q 10 76 13 92 q 8 62 8 68 q 8 49 8 56 q 7 35 7 44 q 17 4 7 18 q 32 -3 21 -3 l 46 -3 q 65 -2 57 -3 q 78 0 72 -1 l 263 0 l 263 3 q 278 4 267 4 q 282 3 281 4 q 283 0 282 0 l 296 0 q 322 3 301 3 q 358 4 343 4 q 385 4 374 4 q 401 54 392 15 q 421 144 411 93 q 424 164 422 157 q 425 176 425 171 q 460 171 443 172 q 499 169 476 169 l 576 169 l 588 131 q 607 45 603 75 q 614 4 611 15 q 621 4 617 4 q 629 3 625 4 q 635 1 629 1 l 636 0 l 640 0 q 651 3 649 0 q 658 4 653 4 l 718 3 l 760 3 q 767 1 764 1 q 771 0 769 0 l 1001 0 q 1015 -2 1008 -1 q 1032 -3 1022 -3 m 442 335 q 458 442 453 388 q 475 551 464 496 l 488 617 q 492 639 490 628 q 496 661 493 650 l 496 678 q 501 692 501 686 l 501 697 q 503 692 503 697 q 506 685 503 688 l 506 678 l 508 661 q 512 640 510 651 q 518 617 514 629 l 524 578 q 533 509 529 539 q 538 472 538 479 q 540 452 538 463 q 546 426 543 442 l 551 400 l 561 338 l 496 338 l 486 344 l 485 344 q 468 342 475 344 q 458 338 461 339 l 450 338 q 442 335 450 335 m 344 1024 l 349 1018 l 394 1018 q 433 1049 406 1018 q 457 1072 438 1053 q 501 1113 476 1090 q 543 1149 526 1135 q 588 1108 564 1128 q 638 1065 613 1089 l 674 1032 q 690 1018 681 1018 l 843 1018 q 861 1042 861 1018 l 861 1049 l 858 1057 q 841 1080 850 1068 q 822 1106 832 1092 l 796 1142 l 692 1299 l 668 1314 l 631 1317 l 608 1317 q 600 1318 603 1317 q 594 1321 597 1319 l 454 1321 l 403 1290 l 399 1279 q 367 1247 386 1265 q 339 1213 346 1226 l 303 1168 q 256 1096 292 1143 q 240 1078 247 1088 q 226 1057 233 1068 q 225 1049 225 1056 l 225 1042 q 228 1025 225 1032 q 240 1018 232 1018 l 340 1018 l 344 1024 m 643 1668 l 653 1646 l 653 1644 q 660 1620 658 1632 q 663 1600 663 1608 q 632 1575 663 1575 q 593 1600 610 1575 q 585 1612 589 1607 q 576 1619 582 1617 q 569 1627 571 1622 q 565 1636 567 1632 q 544 1665 560 1651 q 500 1683 528 1678 q 488 1687 496 1685 q 468 1694 481 1689 q 447 1701 456 1699 q 431 1704 438 1704 q 279 1663 325 1704 q 239 1601 253 1639 q 220 1526 225 1564 q 215 1463 215 1489 q 217 1454 217 1458 q 221 1447 218 1450 q 222 1438 221 1440 q 229 1421 224 1426 q 260 1403 231 1411 q 369 1397 278 1397 q 375 1397 372 1392 q 380 1419 378 1404 q 382 1440 382 1433 q 389 1475 382 1456 q 410 1494 396 1494 q 446 1486 425 1494 q 511 1429 479 1471 q 521 1419 515 1424 q 535 1410 526 1414 q 545 1402 542 1406 q 550 1397 549 1399 q 602 1374 575 1382 q 661 1365 629 1365 q 726 1374 699 1365 q 778 1397 753 1382 q 857 1485 831 1432 q 867 1510 864 1496 q 871 1542 871 1524 l 869 1583 q 864 1633 868 1611 q 849 1672 860 1654 q 841 1682 846 1678 q 831 1692 836 1686 l 678 1686 q 656 1685 669 1686 q 643 1668 643 1683 "},"Ȁ":{"ha":1085,"x_min":7,"x_max":1078,"o":"m 1032 -3 l 1049 -3 q 1072 25 1067 -3 q 1078 38 1078 26 q 1072 71 1078 49 q 1064 103 1065 93 q 1062 115 1063 110 q 1058 135 1061 121 q 1025 278 1044 199 q 985 446 1006 358 q 944 618 964 533 q 906 777 924 703 q 874 904 888 851 q 869 912 874 906 q 861 919 865 918 l 856 919 q 850 917 856 917 q 834 917 843 917 q 814 924 825 918 q 796 928 804 929 q 779 926 788 926 q 753 926 765 926 q 725 924 740 925 q 715 924 722 924 q 700 922 707 924 q 685 920 693 921 q 671 919 678 919 q 665 921 668 919 q 658 924 661 922 l 589 924 q 578 925 583 925 q 567 925 574 925 q 554 926 554 925 l 422 926 q 378 926 394 926 q 349 924 361 925 q 339 923 346 924 q 332 919 332 922 q 320 920 326 919 q 311 922 314 921 q 304 924 308 925 q 297 924 300 924 q 278 926 288 925 q 260 926 269 926 q 243 924 254 926 q 235 919 239 922 q 225 917 232 917 l 222 919 l 217 919 q 208 911 211 917 q 204 904 204 906 q 110 508 150 679 q 47 237 69 338 q 21 119 24 136 q 17 99 21 114 q 10 76 13 92 q 8 62 8 68 q 8 49 8 56 q 7 35 7 44 q 17 4 7 18 q 32 -3 21 -3 l 46 -3 q 65 -2 57 -3 q 78 0 72 -1 l 263 0 l 263 3 q 278 4 267 4 q 282 3 281 4 q 283 0 282 0 l 296 0 q 322 3 301 3 q 358 4 343 4 q 385 4 374 4 q 401 54 392 15 q 421 144 411 93 q 424 164 422 157 q 425 176 425 171 q 460 171 443 172 q 499 169 476 169 l 576 169 l 588 131 q 607 45 603 75 q 614 4 611 15 q 621 4 617 4 q 629 3 625 4 q 635 1 629 1 l 636 0 l 640 0 q 651 3 649 0 q 658 4 653 4 l 718 3 l 760 3 q 767 1 764 1 q 771 0 769 0 l 1001 0 q 1015 -2 1008 -1 q 1032 -3 1022 -3 m 442 335 q 458 442 453 388 q 475 551 464 496 l 488 617 q 492 639 490 628 q 496 661 493 650 l 496 678 q 501 692 501 686 l 501 697 q 503 692 503 697 q 506 685 503 688 l 506 678 l 508 661 q 512 640 510 651 q 518 617 514 629 l 524 578 q 533 509 529 539 q 538 472 538 479 q 540 452 538 463 q 546 426 543 442 l 551 400 l 561 338 l 496 338 l 486 344 l 485 344 q 468 342 475 344 q 458 338 461 339 l 450 338 q 442 335 450 335 m 697 1014 l 708 1017 l 714 1013 l 739 1011 l 800 1017 q 824 1026 815 1018 q 838 1056 833 1035 q 839 1117 839 1076 q 838 1202 839 1157 q 833 1288 836 1247 q 825 1349 831 1328 l 818 1357 l 772 1365 q 743 1369 753 1368 q 726 1373 733 1371 q 701 1379 718 1375 l 690 1376 q 676 1379 688 1379 l 663 1381 l 658 1381 q 656 1380 657 1381 q 653 1379 654 1379 l 646 1378 l 608 1379 l 597 1375 q 593 1378 593 1375 l 588 1378 q 563 1374 574 1376 q 547 1371 553 1372 q 533 1356 533 1367 q 533 1351 533 1353 q 533 1346 532 1349 q 535 1340 535 1344 q 536 1333 535 1336 q 539 1326 538 1331 q 543 1315 540 1321 q 549 1294 544 1311 q 557 1263 553 1276 q 561 1252 560 1257 q 564 1243 563 1247 q 572 1222 568 1231 q 578 1207 575 1213 q 592 1163 582 1194 q 613 1096 601 1131 q 629 1040 624 1061 q 646 1017 636 1017 l 672 1017 l 697 1014 m 365 1021 l 375 1025 l 381 1021 l 483 1021 q 503 1032 499 1021 q 508 1063 508 1043 q 499 1109 508 1085 q 488 1161 490 1133 q 468 1257 478 1204 q 432 1357 458 1310 l 419 1365 l 360 1375 l 279 1379 l 269 1375 q 254 1378 264 1378 l 240 1378 q 238 1376 239 1378 q 233 1375 236 1375 l 224 1374 l 203 1371 l 193 1367 l 192 1367 q 188 1368 189 1367 l 183 1368 q 146 1357 157 1363 q 136 1343 136 1351 q 140 1331 136 1339 q 174 1271 160 1289 q 185 1252 179 1264 q 196 1232 192 1240 l 213 1197 q 222 1181 217 1189 q 232 1164 226 1172 q 256 1110 247 1129 q 272 1078 264 1092 q 292 1042 279 1064 q 314 1021 304 1021 l 365 1021 "},"Ä":{"ha":1085,"x_min":7,"x_max":1078,"o":"m 1032 -3 l 1049 -3 q 1072 25 1067 -3 q 1078 38 1078 26 q 1072 71 1078 49 q 1064 103 1065 93 q 1062 115 1063 110 q 1058 135 1061 121 q 1025 278 1044 199 q 985 446 1006 358 q 944 618 964 533 q 906 777 924 703 q 874 904 888 851 q 869 912 874 906 q 861 919 865 918 l 856 919 q 850 917 856 917 q 834 917 843 917 q 814 924 825 918 q 796 928 804 929 q 779 926 788 926 q 753 926 765 926 q 725 924 740 925 q 715 924 722 924 q 700 922 707 924 q 685 920 693 921 q 671 919 678 919 q 665 921 668 919 q 658 924 661 922 l 589 924 q 578 925 583 925 q 567 925 574 925 q 554 926 554 925 l 422 926 q 378 926 394 926 q 349 924 361 925 q 339 923 346 924 q 332 919 332 922 q 320 920 326 919 q 311 922 314 921 q 304 924 308 925 q 297 924 300 924 q 278 926 288 925 q 260 926 269 926 q 243 924 254 926 q 235 919 239 922 q 225 917 232 917 l 222 919 l 217 919 q 208 911 211 917 q 204 904 204 906 q 110 508 150 679 q 47 237 69 338 q 21 119 24 136 q 17 99 21 114 q 10 76 13 92 q 8 62 8 68 q 8 49 8 56 q 7 35 7 44 q 17 4 7 18 q 32 -3 21 -3 l 46 -3 q 65 -2 57 -3 q 78 0 72 -1 l 263 0 l 263 3 q 278 4 267 4 q 282 3 281 4 q 283 0 282 0 l 296 0 q 322 3 301 3 q 358 4 343 4 q 385 4 374 4 q 401 54 392 15 q 421 144 411 93 q 424 164 422 157 q 425 176 425 171 q 460 171 443 172 q 499 169 476 169 l 576 169 l 588 131 q 607 45 603 75 q 614 4 611 15 q 621 4 617 4 q 629 3 625 4 q 635 1 629 1 l 636 0 l 640 0 q 651 3 649 0 q 658 4 653 4 l 718 3 l 760 3 q 767 1 764 1 q 771 0 769 0 l 1001 0 q 1015 -2 1008 -1 q 1032 -3 1022 -3 m 442 335 q 458 442 453 388 q 475 551 464 496 l 488 617 q 492 639 490 628 q 496 661 493 650 l 496 678 q 501 692 501 686 l 501 697 q 503 692 503 697 q 506 685 503 688 l 506 678 l 508 661 q 512 640 510 651 q 518 617 514 629 l 524 578 q 533 509 529 539 q 538 472 538 479 q 540 452 538 463 q 546 426 543 442 l 551 400 l 561 338 l 496 338 l 486 344 l 485 344 q 468 342 475 344 q 458 338 461 339 l 450 338 q 442 335 450 335 m 188 1042 l 464 1042 q 486 1079 486 1044 q 486 1104 486 1100 q 485 1111 486 1108 l 485 1185 q 483 1192 483 1190 q 482 1194 482 1193 q 483 1208 482 1201 q 485 1222 483 1214 l 485 1250 q 468 1285 485 1285 l 464 1285 q 460 1283 461 1285 q 454 1282 458 1282 l 444 1282 q 435 1283 438 1282 q 426 1285 433 1285 q 422 1286 425 1286 q 408 1286 419 1286 q 392 1285 403 1286 q 360 1282 382 1285 l 215 1282 q 190 1275 197 1282 q 181 1260 185 1268 q 175 1243 178 1251 l 176 1236 l 176 1232 l 172 1189 q 167 1171 167 1183 l 168 1163 l 169 1135 l 169 1094 l 179 1050 l 188 1042 m 693 1042 l 897 1042 q 919 1079 919 1043 q 919 1088 919 1083 q 917 1097 918 1092 q 915 1111 915 1099 l 915 1125 l 917 1140 l 917 1185 q 915 1190 915 1186 l 915 1194 l 917 1232 l 917 1250 q 901 1285 917 1285 l 897 1285 q 893 1283 894 1285 q 888 1282 892 1282 l 878 1282 q 867 1283 869 1282 q 860 1285 865 1285 q 856 1286 858 1286 q 840 1286 853 1286 q 826 1285 836 1286 q 793 1282 817 1285 l 649 1282 q 614 1278 629 1282 q 604 1268 608 1276 q 599 1261 601 1264 q 596 1257 597 1258 l 596 1251 q 597 1249 597 1250 q 596 1246 596 1247 q 596 1218 596 1224 q 597 1208 596 1213 l 597 1189 q 599 1178 597 1179 l 599 1171 q 603 1135 603 1157 l 603 1094 l 611 1050 l 693 1042 "},"Ạ":{"ha":1085,"x_min":7,"x_max":1078,"o":"m 1032 -3 l 1049 -3 q 1072 25 1067 -3 q 1078 38 1078 26 q 1072 71 1078 49 q 1064 103 1065 93 q 1062 115 1063 110 q 1058 135 1061 121 q 1025 278 1044 199 q 985 446 1006 358 q 944 618 964 533 q 906 777 924 703 q 874 904 888 851 q 869 912 874 906 q 861 919 865 918 l 856 919 q 850 917 856 917 q 834 917 843 917 q 814 924 825 918 q 796 928 804 929 q 779 926 788 926 q 753 926 765 926 q 725 924 740 925 q 715 924 722 924 q 700 922 707 924 q 685 920 693 921 q 671 919 678 919 q 665 921 668 919 q 658 924 661 922 l 589 924 q 578 925 583 925 q 567 925 574 925 q 554 926 554 925 l 422 926 q 378 926 394 926 q 349 924 361 925 q 339 923 346 924 q 332 919 332 922 q 320 920 326 919 q 311 922 314 921 q 304 924 308 925 q 297 924 300 924 q 278 926 288 925 q 260 926 269 926 q 243 924 254 926 q 235 919 239 922 q 225 917 232 917 l 222 919 l 217 919 q 208 911 211 917 q 204 904 204 906 q 110 508 150 679 q 47 237 69 338 q 21 119 24 136 q 17 99 21 114 q 10 76 13 92 q 8 62 8 68 q 8 49 8 56 q 7 35 7 44 q 17 4 7 18 q 32 -3 21 -3 l 46 -3 q 65 -2 57 -3 q 78 0 72 -1 l 263 0 l 263 3 q 278 4 267 4 q 282 3 281 4 q 283 0 282 0 l 296 0 q 322 3 301 3 q 358 4 343 4 q 385 4 374 4 q 401 54 392 15 q 421 144 411 93 q 424 164 422 157 q 425 176 425 171 q 460 171 443 172 q 499 169 476 169 l 576 169 l 588 131 q 607 45 603 75 q 614 4 611 15 q 621 4 617 4 q 629 3 625 4 q 635 1 629 1 l 636 0 l 640 0 q 651 3 649 0 q 658 4 653 4 l 718 3 l 760 3 q 767 1 764 1 q 771 0 769 0 l 1001 0 q 1015 -2 1008 -1 q 1032 -3 1022 -3 m 442 335 q 458 442 453 388 q 475 551 464 496 l 488 617 q 492 639 490 628 q 496 661 493 650 l 496 678 q 501 692 501 686 l 501 697 q 503 692 503 697 q 506 685 503 688 l 506 678 l 508 661 q 512 640 510 651 q 518 617 514 629 l 524 578 q 533 509 529 539 q 538 472 538 479 q 540 452 538 463 q 546 426 543 442 l 551 400 l 561 338 l 496 338 l 486 344 l 485 344 q 468 342 475 344 q 458 338 461 339 l 450 338 q 442 335 450 335 m 572 -412 l 579 -410 q 582 -407 579 -407 q 588 -408 586 -407 q 589 -409 588 -408 q 592 -410 590 -410 q 599 -410 597 -410 q 603 -411 601 -411 l 613 -410 q 615 -409 615 -410 q 617 -408 615 -408 q 622 -407 618 -407 l 650 -404 l 660 -400 l 665 -400 q 668 -403 665 -403 q 679 -401 676 -403 q 682 -401 681 -401 q 686 -400 683 -400 q 700 -382 697 -392 q 701 -372 700 -375 q 704 -367 701 -372 l 704 -207 q 703 -193 703 -203 l 703 -162 q 703 -154 703 -158 q 706 -143 704 -150 l 706 -140 q 674 -124 706 -124 q 661 -124 664 -124 q 656 -125 658 -125 l 549 -125 q 531 -127 539 -126 q 515 -128 522 -128 q 504 -128 510 -128 q 492 -126 499 -128 q 469 -125 488 -125 q 451 -124 464 -124 q 424 -124 439 -124 q 388 -143 390 -124 l 388 -179 q 385 -206 386 -193 q 385 -228 385 -218 q 379 -332 379 -262 q 380 -365 379 -349 q 382 -392 381 -381 l 390 -400 l 497 -410 q 508 -410 501 -410 q 519 -411 514 -410 q 540 -412 524 -412 l 572 -412 "},"À":{"ha":1085,"x_min":7,"x_max":1078,"o":"m 1032 -3 l 1049 -3 q 1072 25 1067 -3 q 1078 38 1078 26 q 1072 71 1078 49 q 1064 103 1065 93 q 1062 115 1063 110 q 1058 135 1061 121 q 1025 278 1044 199 q 985 446 1006 358 q 944 618 964 533 q 906 777 924 703 q 874 904 888 851 q 869 912 874 906 q 861 919 865 918 l 856 919 q 850 917 856 917 q 834 917 843 917 q 814 924 825 918 q 796 928 804 929 q 779 926 788 926 q 753 926 765 926 q 725 924 740 925 q 715 924 722 924 q 700 922 707 924 q 685 920 693 921 q 671 919 678 919 q 665 921 668 919 q 658 924 661 922 l 589 924 q 578 925 583 925 q 567 925 574 925 q 554 926 554 925 l 422 926 q 378 926 394 926 q 349 924 361 925 q 339 923 346 924 q 332 919 332 922 q 320 920 326 919 q 311 922 314 921 q 304 924 308 925 q 297 924 300 924 q 278 926 288 925 q 260 926 269 926 q 243 924 254 926 q 235 919 239 922 q 225 917 232 917 l 222 919 l 217 919 q 208 911 211 917 q 204 904 204 906 q 110 508 150 679 q 47 237 69 338 q 21 119 24 136 q 17 99 21 114 q 10 76 13 92 q 8 62 8 68 q 8 49 8 56 q 7 35 7 44 q 17 4 7 18 q 32 -3 21 -3 l 46 -3 q 65 -2 57 -3 q 78 0 72 -1 l 263 0 l 263 3 q 278 4 267 4 q 282 3 281 4 q 283 0 282 0 l 296 0 q 322 3 301 3 q 358 4 343 4 q 385 4 374 4 q 401 54 392 15 q 421 144 411 93 q 424 164 422 157 q 425 176 425 171 q 460 171 443 172 q 499 169 476 169 l 576 169 l 588 131 q 607 45 603 75 q 614 4 611 15 q 621 4 617 4 q 629 3 625 4 q 635 1 629 1 l 636 0 l 640 0 q 651 3 649 0 q 658 4 653 4 l 718 3 l 760 3 q 767 1 764 1 q 771 0 769 0 l 1001 0 q 1015 -2 1008 -1 q 1032 -3 1022 -3 m 442 335 q 458 442 453 388 q 475 551 464 496 l 488 617 q 492 639 490 628 q 496 661 493 650 l 496 678 q 501 692 501 686 l 501 697 q 503 692 503 697 q 506 685 503 688 l 506 678 l 508 661 q 512 640 510 651 q 518 617 514 629 l 524 578 q 533 509 529 539 q 538 472 538 479 q 540 452 538 463 q 546 426 543 442 l 551 400 l 561 338 l 496 338 l 486 344 l 485 344 q 468 342 475 344 q 458 338 461 339 l 450 338 q 442 335 450 335 m 531 1018 l 542 1022 l 546 1018 l 661 1018 q 688 1060 688 1018 q 683 1102 688 1083 q 676 1132 678 1121 q 646 1238 660 1189 q 618 1335 632 1286 l 607 1343 l 547 1353 l 465 1357 l 457 1353 q 443 1356 451 1356 l 429 1356 q 425 1354 426 1356 q 419 1353 424 1353 l 411 1351 l 353 1349 l 342 1344 q 339 1346 339 1344 l 332 1346 q 294 1335 303 1340 q 286 1322 286 1331 q 290 1308 286 1317 q 295 1299 292 1306 q 304 1282 299 1292 q 317 1258 307 1276 q 346 1210 328 1240 q 358 1189 353 1197 q 367 1175 364 1181 l 385 1142 q 422 1091 410 1108 q 440 1063 433 1074 q 456 1039 447 1053 q 469 1022 464 1026 q 479 1018 474 1018 l 531 1018 "},"Ả":{"ha":1085,"x_min":7,"x_max":1078,"o":"m 1032 -3 l 1049 -3 q 1072 25 1067 -3 q 1078 38 1078 26 q 1072 71 1078 49 q 1064 103 1065 93 q 1062 115 1063 110 q 1058 135 1061 121 q 1025 278 1044 199 q 985 446 1006 358 q 944 618 964 533 q 906 777 924 703 q 874 904 888 851 q 869 912 874 906 q 861 919 865 918 l 856 919 q 850 917 856 917 q 834 917 843 917 q 814 924 825 918 q 796 928 804 929 q 779 926 788 926 q 753 926 765 926 q 725 924 740 925 q 715 924 722 924 q 700 922 707 924 q 685 920 693 921 q 671 919 678 919 q 665 921 668 919 q 658 924 661 922 l 589 924 q 578 925 583 925 q 567 925 574 925 q 554 926 554 925 l 422 926 q 378 926 394 926 q 349 924 361 925 q 339 923 346 924 q 332 919 332 922 q 320 920 326 919 q 311 922 314 921 q 304 924 308 925 q 297 924 300 924 q 278 926 288 925 q 260 926 269 926 q 243 924 254 926 q 235 919 239 922 q 225 917 232 917 l 222 919 l 217 919 q 208 911 211 917 q 204 904 204 906 q 110 508 150 679 q 47 237 69 338 q 21 119 24 136 q 17 99 21 114 q 10 76 13 92 q 8 62 8 68 q 8 49 8 56 q 7 35 7 44 q 17 4 7 18 q 32 -3 21 -3 l 46 -3 q 65 -2 57 -3 q 78 0 72 -1 l 263 0 l 263 3 q 278 4 267 4 q 282 3 281 4 q 283 0 282 0 l 296 0 q 322 3 301 3 q 358 4 343 4 q 385 4 374 4 q 401 54 392 15 q 421 144 411 93 q 424 164 422 157 q 425 176 425 171 q 460 171 443 172 q 499 169 476 169 l 576 169 l 588 131 q 607 45 603 75 q 614 4 611 15 q 621 4 617 4 q 629 3 625 4 q 635 1 629 1 l 636 0 l 640 0 q 651 3 649 0 q 658 4 653 4 l 718 3 l 760 3 q 767 1 764 1 q 771 0 769 0 l 1001 0 q 1015 -2 1008 -1 q 1032 -3 1022 -3 m 442 335 q 458 442 453 388 q 475 551 464 496 l 488 617 q 492 639 490 628 q 496 661 493 650 l 496 678 q 501 692 501 686 l 501 697 q 503 692 503 697 q 506 685 503 688 l 506 678 l 508 661 q 512 640 510 651 q 518 617 514 629 l 524 578 q 533 509 529 539 q 538 472 538 479 q 540 452 538 463 q 546 426 543 442 l 551 400 l 561 338 l 496 338 l 486 344 l 485 344 q 468 342 475 344 q 458 338 461 339 l 450 338 q 442 335 450 335 m 468 1021 q 503 1021 488 1021 q 526 1022 518 1021 l 556 1022 l 568 1021 l 578 1021 q 592 1042 592 1021 l 593 1085 q 599 1083 593 1082 q 615 1093 606 1083 q 643 1115 626 1101 q 689 1138 660 1128 q 788 1192 756 1160 q 830 1260 819 1224 q 840 1331 840 1297 q 831 1360 840 1349 q 813 1385 822 1372 q 789 1419 799 1407 q 756 1442 779 1432 q 672 1467 722 1453 q 571 1481 621 1481 q 527 1480 549 1481 q 482 1478 506 1479 q 433 1474 458 1476 q 383 1468 408 1471 q 376 1467 382 1468 q 364 1463 369 1467 q 354 1440 354 1454 q 353 1430 353 1435 q 350 1419 353 1425 q 342 1306 342 1361 q 354 1289 342 1289 q 365 1291 357 1289 q 385 1294 372 1293 q 424 1299 400 1297 q 481 1301 449 1301 q 565 1294 542 1301 q 589 1274 589 1288 q 578 1256 589 1263 q 544 1233 567 1249 q 515 1225 538 1229 q 485 1217 492 1221 q 438 1153 444 1186 q 431 1085 431 1121 q 438 1038 431 1056 q 468 1021 446 1021 "},"Ȃ":{"ha":1085,"x_min":7,"x_max":1078,"o":"m 1032 -3 l 1049 -3 q 1072 25 1067 -3 q 1078 38 1078 26 q 1072 71 1078 49 q 1064 103 1065 93 q 1062 115 1063 110 q 1058 135 1061 121 q 1025 278 1044 199 q 985 446 1006 358 q 944 618 964 533 q 906 777 924 703 q 874 904 888 851 q 869 912 874 906 q 861 919 865 918 l 856 919 q 850 917 856 917 q 834 917 843 917 q 814 924 825 918 q 796 928 804 929 q 779 926 788 926 q 753 926 765 926 q 725 924 740 925 q 715 924 722 924 q 700 922 707 924 q 685 920 693 921 q 671 919 678 919 q 665 921 668 919 q 658 924 661 922 l 589 924 q 578 925 583 925 q 567 925 574 925 q 554 926 554 925 l 422 926 q 378 926 394 926 q 349 924 361 925 q 339 923 346 924 q 332 919 332 922 q 320 920 326 919 q 311 922 314 921 q 304 924 308 925 q 297 924 300 924 q 278 926 288 925 q 260 926 269 926 q 243 924 254 926 q 235 919 239 922 q 225 917 232 917 l 222 919 l 217 919 q 208 911 211 917 q 204 904 204 906 q 110 508 150 679 q 47 237 69 338 q 21 119 24 136 q 17 99 21 114 q 10 76 13 92 q 8 62 8 68 q 8 49 8 56 q 7 35 7 44 q 17 4 7 18 q 32 -3 21 -3 l 46 -3 q 65 -2 57 -3 q 78 0 72 -1 l 263 0 l 263 3 q 278 4 267 4 q 282 3 281 4 q 283 0 282 0 l 296 0 q 322 3 301 3 q 358 4 343 4 q 385 4 374 4 q 401 54 392 15 q 421 144 411 93 q 424 164 422 157 q 425 176 425 171 q 460 171 443 172 q 499 169 476 169 l 576 169 l 588 131 q 607 45 603 75 q 614 4 611 15 q 621 4 617 4 q 629 3 625 4 q 635 1 629 1 l 636 0 l 640 0 q 651 3 649 0 q 658 4 653 4 l 718 3 l 760 3 q 767 1 764 1 q 771 0 769 0 l 1001 0 q 1015 -2 1008 -1 q 1032 -3 1022 -3 m 442 335 q 458 442 453 388 q 475 551 464 496 l 488 617 q 492 639 490 628 q 496 661 493 650 l 496 678 q 501 692 501 686 l 501 697 q 503 692 503 697 q 506 685 503 688 l 506 678 l 508 661 q 512 640 510 651 q 518 617 514 629 l 524 578 q 533 509 529 539 q 538 472 538 479 q 540 452 538 463 q 546 426 543 442 l 551 400 l 561 338 l 496 338 l 486 344 l 485 344 q 468 342 475 344 q 458 338 461 339 l 450 338 q 442 335 450 335 m 561 1375 q 311 1289 385 1375 q 248 1197 268 1239 q 228 1111 228 1154 q 224 1063 228 1085 q 229 1024 221 1040 q 235 1019 232 1019 l 429 1013 q 438 1021 438 1013 q 437 1054 436 1038 q 438 1089 438 1071 q 466 1160 438 1131 q 533 1190 494 1190 q 604 1178 572 1190 q 643 1147 636 1165 q 644 1144 644 1146 q 646 1142 644 1143 l 647 1140 l 649 1114 q 644 1038 649 1083 q 647 1029 643 1033 q 656 1025 650 1025 l 839 1024 q 851 1033 849 1024 q 860 1081 857 1057 q 863 1132 863 1106 q 769 1306 863 1236 q 561 1375 676 1375 "},"Ā":{"ha":1085,"x_min":7,"x_max":1078,"o":"m 1032 -3 l 1049 -3 q 1072 25 1067 -3 q 1078 38 1078 26 q 1072 71 1078 49 q 1064 103 1065 93 q 1062 115 1063 110 q 1058 135 1061 121 q 1025 278 1044 199 q 985 446 1006 358 q 944 618 964 533 q 906 777 924 703 q 874 904 888 851 q 869 912 874 906 q 861 919 865 918 l 856 919 q 850 917 856 917 q 834 917 843 917 q 814 924 825 918 q 796 928 804 929 q 779 926 788 926 q 753 926 765 926 q 725 924 740 925 q 715 924 722 924 q 700 922 707 924 q 685 920 693 921 q 671 919 678 919 q 665 921 668 919 q 658 924 661 922 l 589 924 q 578 925 583 925 q 567 925 574 925 q 554 926 554 925 l 422 926 q 378 926 394 926 q 349 924 361 925 q 339 923 346 924 q 332 919 332 922 q 320 920 326 919 q 311 922 314 921 q 304 924 308 925 q 297 924 300 924 q 278 926 288 925 q 260 926 269 926 q 243 924 254 926 q 235 919 239 922 q 225 917 232 917 l 222 919 l 217 919 q 208 911 211 917 q 204 904 204 906 q 110 508 150 679 q 47 237 69 338 q 21 119 24 136 q 17 99 21 114 q 10 76 13 92 q 8 62 8 68 q 8 49 8 56 q 7 35 7 44 q 17 4 7 18 q 32 -3 21 -3 l 46 -3 q 65 -2 57 -3 q 78 0 72 -1 l 263 0 l 263 3 q 278 4 267 4 q 282 3 281 4 q 283 0 282 0 l 296 0 q 322 3 301 3 q 358 4 343 4 q 385 4 374 4 q 401 54 392 15 q 421 144 411 93 q 424 164 422 157 q 425 176 425 171 q 460 171 443 172 q 499 169 476 169 l 576 169 l 588 131 q 607 45 603 75 q 614 4 611 15 q 621 4 617 4 q 629 3 625 4 q 635 1 629 1 l 636 0 l 640 0 q 651 3 649 0 q 658 4 653 4 l 718 3 l 760 3 q 767 1 764 1 q 771 0 769 0 l 1001 0 q 1015 -2 1008 -1 q 1032 -3 1022 -3 m 442 335 q 458 442 453 388 q 475 551 464 496 l 488 617 q 492 639 490 628 q 496 661 493 650 l 496 678 q 501 692 501 686 l 501 697 q 503 692 503 697 q 506 685 503 688 l 506 678 l 508 661 q 512 640 510 651 q 518 617 514 629 l 524 578 q 533 509 529 539 q 538 472 538 479 q 540 452 538 463 q 546 426 543 442 l 551 400 l 561 338 l 496 338 l 486 344 l 485 344 q 468 342 475 344 q 458 338 461 339 l 450 338 q 442 335 450 335 m 801 1035 q 829 1063 825 1035 q 835 1111 835 1079 l 835 1143 q 833 1161 833 1151 q 833 1181 833 1171 l 833 1194 q 833 1204 833 1199 q 832 1217 833 1210 q 831 1232 831 1224 q 831 1250 831 1240 q 806 1278 831 1271 q 754 1285 782 1285 l 722 1285 q 677 1285 708 1285 q 597 1288 646 1286 l 542 1289 q 496 1291 514 1290 q 468 1292 478 1292 l 285 1292 q 269 1286 276 1292 q 261 1279 263 1281 q 250 1257 250 1271 q 250 1227 250 1239 q 251 1208 250 1215 l 251 1076 q 261 1056 251 1061 q 319 1042 275 1042 l 542 1042 q 561 1041 553 1042 q 576 1039 569 1040 q 594 1039 583 1036 l 639 1039 l 653 1038 l 688 1038 l 718 1036 q 738 1036 729 1036 q 754 1035 747 1036 l 801 1035 "},"Ą":{"ha":1085,"x_min":7,"x_max":1078,"o":"m 1032 -3 l 1049 -3 q 1072 25 1067 -3 q 1078 38 1078 26 q 1072 71 1078 49 q 1064 103 1065 93 q 1062 115 1063 110 q 1058 135 1061 121 q 1025 278 1044 199 q 985 446 1006 358 q 944 618 964 533 q 906 777 924 703 q 874 904 888 851 q 869 912 874 906 q 861 919 865 918 l 856 919 q 850 917 856 917 q 834 917 843 917 q 814 924 825 918 q 796 928 804 929 q 779 926 788 926 q 753 926 765 926 q 725 924 740 925 q 715 924 722 924 q 700 922 707 924 q 685 920 693 921 q 671 919 678 919 q 665 921 668 919 q 658 924 661 922 l 589 924 q 578 925 583 925 q 567 925 574 925 q 554 926 554 925 l 422 926 q 378 926 394 926 q 349 924 361 925 q 339 923 346 924 q 332 919 332 922 q 320 920 326 919 q 311 922 314 921 q 304 924 308 925 q 297 924 300 924 q 278 926 288 925 q 260 926 269 926 q 243 924 254 926 q 235 919 239 922 q 225 917 232 917 l 222 919 l 217 919 q 208 911 211 917 q 204 904 204 906 q 110 508 150 679 q 47 237 69 338 q 21 119 24 136 q 17 99 21 114 q 10 76 13 92 q 8 62 8 68 q 8 49 8 56 q 7 35 7 44 q 17 4 7 18 q 32 -3 21 -3 l 46 -3 q 65 -2 57 -3 q 78 0 72 -1 l 263 0 l 263 3 q 278 4 267 4 q 282 3 281 4 q 283 0 282 0 l 296 0 q 322 3 301 3 q 358 4 343 4 q 385 4 374 4 q 401 54 392 15 q 421 144 411 93 q 424 164 422 157 q 425 176 425 171 q 460 171 443 172 q 499 169 476 169 l 576 169 l 588 131 q 607 45 603 75 q 614 4 611 15 q 621 4 617 4 q 629 3 625 4 q 635 1 629 1 l 636 0 l 640 0 q 651 3 649 0 q 658 4 653 4 l 718 3 l 760 3 q 767 1 764 1 q 771 0 769 0 l 1001 0 q 1015 -2 1008 -1 q 1032 -3 1022 -3 m 442 335 q 458 442 453 388 q 475 551 464 496 l 488 617 q 492 639 490 628 q 496 661 493 650 l 496 678 q 501 692 501 686 l 501 697 q 503 692 503 697 q 506 685 503 688 l 506 678 l 508 661 q 512 640 510 651 q 518 617 514 629 l 524 578 q 533 509 529 539 q 538 472 538 479 q 540 452 538 463 q 546 426 543 442 l 551 400 l 561 338 l 496 338 l 486 344 l 485 344 q 468 342 475 344 q 458 338 461 339 l 450 338 q 442 335 450 335 m 922 -394 q 933 -393 925 -393 q 940 -392 936 -393 q 950 -390 944 -392 q 978 -384 961 -389 q 1015 -372 994 -379 q 1040 -359 1029 -365 q 1051 -347 1050 -353 l 1075 -233 l 1075 -226 q 1065 -212 1075 -217 q 944 -236 999 -236 q 928 -236 935 -236 q 917 -237 922 -236 q 899 -237 908 -240 q 888 -233 890 -235 q 864 -219 872 -229 q 856 -189 856 -210 q 874 -139 856 -171 q 938 -60 901 -90 l 996 0 q 894 4 958 4 l 863 6 l 836 6 q 834 3 835 6 q 832 1 833 1 q 828 0 831 0 l 717 -36 q 708 -41 714 -37 q 694 -49 701 -44 q 680 -58 686 -54 q 668 -68 674 -62 q 590 -142 610 -107 q 571 -240 571 -178 q 578 -285 571 -264 q 676 -365 601 -339 q 908 -397 760 -397 l 922 -394 "},"Å":{"ha":1085,"x_min":7,"x_max":1078,"o":"m 1032 -3 l 1049 -3 q 1072 25 1067 -3 q 1078 38 1078 26 q 1072 71 1078 49 q 1064 103 1065 93 q 1062 115 1063 110 q 1058 135 1061 121 q 1025 278 1044 199 q 985 446 1006 358 q 944 618 964 533 q 906 777 924 703 q 874 904 888 851 q 869 912 874 906 q 861 919 865 918 l 856 919 q 850 917 856 917 q 834 917 843 917 q 814 924 825 918 q 796 928 804 929 q 779 926 788 926 q 753 926 765 926 q 725 924 740 925 q 715 924 722 924 q 700 922 707 924 q 685 920 693 921 q 671 919 678 919 q 665 921 668 919 q 658 924 661 922 l 589 924 q 578 925 583 925 q 567 925 574 925 q 554 926 554 925 l 422 926 q 378 926 394 926 q 349 924 361 925 q 339 923 346 924 q 332 919 332 922 q 320 920 326 919 q 311 922 314 921 q 304 924 308 925 q 297 924 300 924 q 278 926 288 925 q 260 926 269 926 q 243 924 254 926 q 235 919 239 922 q 225 917 232 917 l 222 919 l 217 919 q 208 911 211 917 q 204 904 204 906 q 110 508 150 679 q 47 237 69 338 q 21 119 24 136 q 17 99 21 114 q 10 76 13 92 q 8 62 8 68 q 8 49 8 56 q 7 35 7 44 q 17 4 7 18 q 32 -3 21 -3 l 46 -3 q 65 -2 57 -3 q 78 0 72 -1 l 263 0 l 263 3 q 278 4 267 4 q 282 3 281 4 q 283 0 282 0 l 296 0 q 322 3 301 3 q 358 4 343 4 q 385 4 374 4 q 401 54 392 15 q 421 144 411 93 q 424 164 422 157 q 425 176 425 171 q 460 171 443 172 q 499 169 476 169 l 576 169 l 588 131 q 607 45 603 75 q 614 4 611 15 q 621 4 617 4 q 629 3 625 4 q 635 1 629 1 l 636 0 l 640 0 q 651 3 649 0 q 658 4 653 4 l 718 3 l 760 3 q 767 1 764 1 q 771 0 769 0 l 1001 0 q 1015 -2 1008 -1 q 1032 -3 1022 -3 m 442 335 q 458 442 453 388 q 475 551 464 496 l 488 617 q 492 639 490 628 q 496 661 493 650 l 496 678 q 501 692 501 686 l 501 697 q 503 692 503 697 q 506 685 503 688 l 506 678 l 508 661 q 512 640 510 651 q 518 617 514 629 l 524 578 q 533 509 529 539 q 538 472 538 479 q 540 452 538 463 q 546 426 543 442 l 551 400 l 561 338 l 496 338 l 486 344 l 485 344 q 468 342 475 344 q 458 338 461 339 l 450 338 q 442 335 450 335 m 522 1011 l 557 1011 q 594 1013 564 1011 q 654 1022 625 1014 q 764 1094 729 1040 l 771 1097 q 810 1178 797 1133 q 824 1268 824 1224 q 795 1401 824 1346 q 696 1504 767 1457 q 622 1529 661 1521 q 583 1531 608 1531 q 518 1532 557 1532 l 515 1532 q 511 1531 511 1532 q 500 1532 507 1532 q 482 1532 493 1532 q 392 1509 433 1532 q 321 1444 351 1486 q 261 1261 261 1363 q 267 1201 261 1231 q 283 1144 274 1172 q 316 1088 299 1111 q 360 1049 333 1064 q 522 1011 433 1010 m 531 1178 q 488 1189 513 1178 q 453 1233 457 1210 q 449 1242 453 1242 l 449 1257 q 479 1356 449 1325 q 531 1379 500 1379 q 586 1372 557 1379 q 636 1338 615 1365 q 649 1301 649 1317 l 649 1296 q 642 1253 649 1275 q 608 1207 636 1231 q 531 1178 579 1178 "},"Ǻ":{"ha":1085,"x_min":7,"x_max":1078,"o":"m 1032 -3 l 1049 -3 q 1072 25 1067 -3 q 1078 38 1078 26 q 1072 71 1078 49 q 1064 103 1065 93 q 1062 115 1063 110 q 1058 135 1061 121 q 1025 278 1044 199 q 985 446 1006 358 q 944 618 964 533 q 906 777 924 703 q 874 904 888 851 q 869 912 874 906 q 861 919 865 918 l 856 919 q 850 917 856 917 q 834 917 843 917 q 814 924 825 918 q 796 928 804 929 q 779 926 788 926 q 753 926 765 926 q 725 924 740 925 q 715 924 722 924 q 700 922 707 924 q 685 920 693 921 q 671 919 678 919 q 665 921 668 919 q 658 924 661 922 l 589 924 q 578 925 583 925 q 567 925 574 925 q 554 926 554 925 l 422 926 q 378 926 394 926 q 349 924 361 925 q 339 923 346 924 q 332 919 332 922 q 320 920 326 919 q 311 922 314 921 q 304 924 308 925 q 297 924 300 924 q 278 926 288 925 q 260 926 269 926 q 243 924 254 926 q 235 919 239 922 q 225 917 232 917 l 222 919 l 217 919 q 208 911 211 917 q 204 904 204 906 q 110 508 150 679 q 47 237 69 338 q 21 119 24 136 q 17 99 21 114 q 10 76 13 92 q 8 62 8 68 q 8 49 8 56 q 7 35 7 44 q 17 4 7 18 q 32 -3 21 -3 l 46 -3 q 65 -2 57 -3 q 78 0 72 -1 l 263 0 l 263 3 q 278 4 267 4 q 282 3 281 4 q 283 0 282 0 l 296 0 q 322 3 301 3 q 358 4 343 4 q 385 4 374 4 q 401 54 392 15 q 421 144 411 93 q 424 164 422 157 q 425 176 425 171 q 460 171 443 172 q 499 169 476 169 l 576 169 l 588 131 q 607 45 603 75 q 614 4 611 15 q 621 4 617 4 q 629 3 625 4 q 635 1 629 1 l 636 0 l 640 0 q 651 3 649 0 q 658 4 653 4 l 718 3 l 760 3 q 767 1 764 1 q 771 0 769 0 l 1001 0 q 1015 -2 1008 -1 q 1032 -3 1022 -3 m 442 335 q 458 442 453 388 q 475 551 464 496 l 488 617 q 492 639 490 628 q 496 661 493 650 l 496 678 q 501 692 501 686 l 501 697 q 503 692 503 697 q 506 685 503 688 l 506 678 l 508 661 q 512 640 510 651 q 518 617 514 629 l 524 578 q 533 509 529 539 q 538 472 538 479 q 540 452 538 463 q 546 426 543 442 l 551 400 l 561 338 l 496 338 l 486 344 l 485 344 q 468 342 475 344 q 458 338 461 339 l 450 338 q 442 335 450 335 m 522 1011 l 557 1011 q 594 1013 564 1011 q 654 1022 625 1014 q 764 1094 729 1040 l 771 1097 q 810 1178 797 1133 q 824 1268 824 1224 q 795 1401 824 1346 q 696 1504 767 1457 q 622 1529 661 1521 q 583 1531 608 1531 q 518 1532 557 1532 l 515 1532 q 511 1531 511 1532 q 500 1532 507 1532 q 482 1532 493 1532 q 392 1509 433 1532 q 321 1444 351 1486 q 261 1261 261 1363 q 267 1201 261 1231 q 283 1144 274 1172 q 316 1088 299 1111 q 360 1049 333 1064 q 522 1011 433 1010 m 531 1178 q 488 1189 513 1178 q 453 1233 457 1210 q 449 1242 453 1242 l 449 1257 q 479 1356 449 1325 q 531 1379 500 1379 q 586 1372 557 1379 q 636 1338 615 1365 q 649 1301 649 1317 l 649 1296 q 642 1253 649 1275 q 608 1207 636 1231 q 531 1178 579 1178 m 624 1432 l 675 1432 q 699 1453 685 1432 q 715 1477 708 1467 q 733 1505 721 1488 q 769 1556 746 1522 l 788 1589 q 796 1603 790 1594 q 808 1624 801 1611 q 837 1672 826 1654 q 850 1696 847 1690 q 864 1722 861 1715 q 868 1736 868 1731 q 860 1749 868 1744 q 822 1760 851 1754 l 815 1760 q 813 1758 815 1758 l 801 1763 l 743 1765 l 735 1767 q 729 1768 731 1767 q 725 1769 728 1769 l 711 1769 q 697 1767 703 1769 l 689 1771 l 607 1767 l 547 1757 l 536 1749 q 507 1644 521 1693 q 478 1546 493 1596 q 472 1516 476 1535 q 467 1474 467 1497 q 472 1443 467 1454 q 493 1432 476 1432 l 608 1432 l 613 1436 l 624 1432 "},"Ã":{"ha":1085,"x_min":7,"x_max":1078,"o":"m 1032 -3 l 1049 -3 q 1072 25 1067 -3 q 1078 38 1078 26 q 1072 71 1078 49 q 1064 103 1065 93 q 1062 115 1063 110 q 1058 135 1061 121 q 1025 278 1044 199 q 985 446 1006 358 q 944 618 964 533 q 906 777 924 703 q 874 904 888 851 q 869 912 874 906 q 861 919 865 918 l 856 919 q 850 917 856 917 q 834 917 843 917 q 814 924 825 918 q 796 928 804 929 q 779 926 788 926 q 753 926 765 926 q 725 924 740 925 q 715 924 722 924 q 700 922 707 924 q 685 920 693 921 q 671 919 678 919 q 665 921 668 919 q 658 924 661 922 l 589 924 q 578 925 583 925 q 567 925 574 925 q 554 926 554 925 l 422 926 q 378 926 394 926 q 349 924 361 925 q 339 923 346 924 q 332 919 332 922 q 320 920 326 919 q 311 922 314 921 q 304 924 308 925 q 297 924 300 924 q 278 926 288 925 q 260 926 269 926 q 243 924 254 926 q 235 919 239 922 q 225 917 232 917 l 222 919 l 217 919 q 208 911 211 917 q 204 904 204 906 q 110 508 150 679 q 47 237 69 338 q 21 119 24 136 q 17 99 21 114 q 10 76 13 92 q 8 62 8 68 q 8 49 8 56 q 7 35 7 44 q 17 4 7 18 q 32 -3 21 -3 l 46 -3 q 65 -2 57 -3 q 78 0 72 -1 l 263 0 l 263 3 q 278 4 267 4 q 282 3 281 4 q 283 0 282 0 l 296 0 q 322 3 301 3 q 358 4 343 4 q 385 4 374 4 q 401 54 392 15 q 421 144 411 93 q 424 164 422 157 q 425 176 425 171 q 460 171 443 172 q 499 169 476 169 l 576 169 l 588 131 q 607 45 603 75 q 614 4 611 15 q 621 4 617 4 q 629 3 625 4 q 635 1 629 1 l 636 0 l 640 0 q 651 3 649 0 q 658 4 653 4 l 718 3 l 760 3 q 767 1 764 1 q 771 0 769 0 l 1001 0 q 1015 -2 1008 -1 q 1032 -3 1022 -3 m 442 335 q 458 442 453 388 q 475 551 464 496 l 488 617 q 492 639 490 628 q 496 661 493 650 l 496 678 q 501 692 501 686 l 501 697 q 503 692 503 697 q 506 685 503 688 l 506 678 l 508 661 q 512 640 510 651 q 518 617 514 629 l 524 578 q 533 509 529 539 q 538 472 538 479 q 540 452 538 463 q 546 426 543 442 l 551 400 l 561 338 l 496 338 l 486 344 l 485 344 q 468 342 475 344 q 458 338 461 339 l 450 338 q 442 335 450 335 m 647 976 q 693 983 674 976 q 767 1020 733 994 q 817 1081 800 1046 q 828 1136 828 1106 q 827 1149 828 1142 q 825 1168 826 1157 q 808 1244 822 1217 q 796 1260 804 1253 l 640 1258 l 636 1258 q 621 1250 621 1258 q 642 1211 636 1224 q 647 1186 647 1199 q 618 1160 647 1160 q 600 1167 611 1160 q 571 1200 589 1176 q 561 1214 569 1207 q 504 1254 544 1238 q 474 1268 490 1263 q 446 1274 457 1274 q 267 1150 290 1274 q 257 1063 257 1108 q 260 1048 258 1057 q 263 1040 263 1039 q 264 1036 264 1038 q 265 1032 264 1035 q 267 1025 267 1031 q 275 1015 267 1018 q 297 1010 283 1013 q 322 1008 307 1008 q 354 1006 338 1007 q 378 1006 372 1006 q 390 1004 385 1006 q 397 1007 394 1001 q 399 1017 397 1008 q 403 1043 400 1026 q 410 1076 403 1063 q 428 1090 418 1090 q 494 1054 458 1090 q 520 1028 511 1036 q 550 1004 529 1019 q 647 976 585 976 "},"Æ":{"ha":1454,"x_min":4,"x_max":1447,"o":"m 1444 63 q 1421 172 1431 132 q 1406 222 1411 213 q 1394 232 1399 232 q 1335 231 1368 232 q 1263 229 1303 231 q 1189 226 1236 228 q 1058 225 1142 225 q 1059 265 1058 256 q 1061 279 1060 274 q 1063 335 1063 322 q 1069 353 1063 349 q 1104 351 1082 351 q 1160 351 1126 351 q 1220 353 1194 351 q 1265 357 1246 354 q 1309 360 1292 358 q 1339 364 1326 361 q 1386 392 1386 367 l 1386 396 l 1383 533 q 1351 564 1378 564 l 1338 564 q 1214 572 1267 572 l 1090 572 q 1069 578 1075 572 q 1065 601 1064 583 l 1068 649 q 1074 665 1069 661 q 1082 678 1078 668 q 1093 693 1089 693 q 1125 697 1107 694 q 1165 700 1143 699 l 1238 706 q 1317 712 1282 708 q 1383 715 1353 715 q 1399 714 1396 715 q 1414 726 1413 714 q 1415 738 1414 736 q 1414 753 1415 750 q 1408 785 1411 768 q 1403 832 1406 801 q 1397 867 1399 856 q 1393 883 1396 878 q 1361 935 1382 935 q 1288 940 1331 938 q 1186 943 1244 943 l 1125 943 q 1076 942 1097 943 q 1032 942 1054 942 q 975 940 1010 942 q 909 937 949 938 q 824 936 869 936 q 788 935 807 936 q 756 933 769 935 q 753 933 754 933 q 751 932 753 932 l 686 932 q 679 931 686 931 l 572 928 q 517 932 546 932 q 476 928 496 932 q 440 924 456 924 q 433 925 433 924 l 428 925 q 417 919 424 925 q 410 910 410 914 l 200 471 q 117 292 156 378 q 42 126 78 207 q 33 108 40 117 l 24 82 q 7 26 8 36 q 24 -1 4 -1 l 44 -1 q 61 -1 54 -1 q 74 0 68 -1 l 110 0 q 156 0 146 0 q 172 1 167 0 l 263 1 q 269 2 265 1 q 278 4 272 3 l 322 4 l 385 7 l 392 4 q 401 1 394 1 l 406 1 q 415 4 407 1 l 428 7 q 440 27 433 14 q 457 58 447 40 q 476 101 465 75 q 504 165 488 128 l 581 165 q 651 171 625 165 q 650 139 650 157 q 650 67 650 121 q 656 7 650 18 q 683 6 667 7 q 721 4 700 6 q 735 3 728 4 q 749 1 743 3 l 764 1 q 767 3 765 1 q 768 4 767 4 l 783 4 l 783 1 l 794 1 q 813 0 799 0 l 910 0 q 940 -1 914 -1 l 961 -1 l 969 0 q 997 1 975 1 q 1038 1 1019 1 l 1128 1 q 1168 2 1147 1 q 1213 4 1189 3 q 1260 6 1239 6 q 1297 7 1282 7 l 1304 7 q 1314 8 1310 7 q 1322 8 1318 8 q 1421 13 1376 13 q 1447 42 1447 13 q 1444 63 1447 56 m 693 710 l 693 689 l 692 671 l 690 622 q 690 607 690 617 q 688 583 689 597 l 686 556 q 685 513 685 532 q 683 481 685 494 l 674 339 q 618 344 661 344 l 561 344 q 577 383 569 364 q 586 408 585 403 q 599 449 592 432 l 611 483 q 628 527 621 508 q 639 560 635 546 q 647 581 642 565 q 663 624 653 597 l 671 647 q 675 656 674 651 q 679 671 676 661 l 683 683 q 685 689 685 686 l 692 703 q 693 710 692 708 "},"Ǽ":{"ha":1454,"x_min":4,"x_max":1447,"o":"m 1444 63 q 1421 172 1431 132 q 1406 222 1411 213 q 1394 232 1399 232 q 1335 231 1368 232 q 1263 229 1303 231 q 1189 226 1236 228 q 1058 225 1142 225 q 1059 265 1058 256 q 1061 279 1060 274 q 1063 335 1063 322 q 1069 353 1063 349 q 1104 351 1082 351 q 1160 351 1126 351 q 1220 353 1194 351 q 1265 357 1246 354 q 1309 360 1292 358 q 1339 364 1326 361 q 1386 392 1386 367 l 1386 396 l 1383 533 q 1351 564 1378 564 l 1338 564 q 1214 572 1267 572 l 1090 572 q 1069 578 1075 572 q 1065 601 1064 583 l 1068 649 q 1074 665 1069 661 q 1082 678 1078 668 q 1093 693 1089 693 q 1125 697 1107 694 q 1165 700 1143 699 l 1238 706 q 1317 712 1282 708 q 1383 715 1353 715 q 1399 714 1396 715 q 1414 726 1413 714 q 1415 738 1414 736 q 1414 753 1415 750 q 1408 785 1411 768 q 1403 832 1406 801 q 1397 867 1399 856 q 1393 883 1396 878 q 1361 935 1382 935 q 1288 940 1331 938 q 1186 943 1244 943 l 1125 943 q 1076 942 1097 943 q 1032 942 1054 942 q 975 940 1010 942 q 909 937 949 938 q 824 936 869 936 q 788 935 807 936 q 756 933 769 935 q 753 933 754 933 q 751 932 753 932 l 686 932 q 679 931 686 931 l 572 928 q 517 932 546 932 q 476 928 496 932 q 440 924 456 924 q 433 925 433 924 l 428 925 q 417 919 424 925 q 410 910 410 914 l 200 471 q 117 292 156 378 q 42 126 78 207 q 33 108 40 117 l 24 82 q 7 26 8 36 q 24 -1 4 -1 l 44 -1 q 61 -1 54 -1 q 74 0 68 -1 l 110 0 q 156 0 146 0 q 172 1 167 0 l 263 1 q 269 2 265 1 q 278 4 272 3 l 322 4 l 385 7 l 392 4 q 401 1 394 1 l 406 1 q 415 4 407 1 l 428 7 q 440 27 433 14 q 457 58 447 40 q 476 101 465 75 q 504 165 488 128 l 581 165 q 651 171 625 165 q 650 139 650 157 q 650 67 650 121 q 656 7 650 18 q 683 6 667 7 q 721 4 700 6 q 735 3 728 4 q 749 1 743 3 l 764 1 q 767 3 765 1 q 768 4 767 4 l 783 4 l 783 1 l 794 1 q 813 0 799 0 l 910 0 q 940 -1 914 -1 l 961 -1 l 969 0 q 997 1 975 1 q 1038 1 1019 1 l 1128 1 q 1168 2 1147 1 q 1213 4 1189 3 q 1260 6 1239 6 q 1297 7 1282 7 l 1304 7 q 1314 8 1310 7 q 1322 8 1318 8 q 1421 13 1376 13 q 1447 42 1447 13 q 1444 63 1447 56 m 693 710 l 693 689 l 692 671 l 690 622 q 690 607 690 617 q 688 583 689 597 l 686 556 q 685 513 685 532 q 683 481 685 494 l 674 339 q 618 344 661 344 l 561 344 q 577 383 569 364 q 586 408 585 403 q 599 449 592 432 l 611 483 q 628 527 621 508 q 639 560 635 546 q 647 581 642 565 q 663 624 653 597 l 671 647 q 675 656 674 651 q 679 671 676 661 l 683 683 q 685 689 685 686 l 692 703 q 693 710 692 708 m 893 1018 l 944 1018 q 968 1039 954 1018 q 984 1063 978 1053 q 1003 1091 990 1074 q 1039 1142 1015 1108 l 1057 1175 q 1065 1189 1060 1181 q 1078 1210 1071 1197 q 1106 1258 1096 1240 q 1119 1282 1117 1276 q 1133 1308 1131 1301 q 1138 1322 1138 1317 q 1129 1335 1138 1331 q 1092 1346 1121 1340 l 1085 1346 q 1082 1344 1085 1344 l 1071 1349 l 1013 1351 l 1004 1353 q 999 1354 1000 1353 q 994 1356 997 1356 l 981 1356 q 967 1353 972 1356 l 958 1357 l 876 1353 l 817 1343 l 806 1335 q 776 1231 790 1279 q 747 1132 763 1182 q 741 1102 746 1121 q 736 1060 736 1083 q 741 1029 736 1040 q 763 1018 746 1018 l 878 1018 l 882 1022 l 893 1018 "},"B":{"ha":1107,"x_min":42,"x_max":1100,"o":"m 342 -18 q 415 -16 378 -18 q 500 -11 453 -14 q 616 1 549 -6 q 756 20 683 8 q 895 53 829 32 q 1007 111 961 75 q 1075 190 1050 144 q 1100 278 1100 235 q 1056 382 1100 331 q 985 435 1025 411 q 900 478 946 460 l 897 481 l 897 483 l 896 483 q 910 497 903 494 q 932 508 921 504 q 953 515 943 513 q 958 518 956 517 q 964 521 961 519 l 976 526 q 1072 703 1072 592 q 1057 775 1072 744 q 1004 838 1042 806 q 902 883 969 863 q 755 917 835 904 q 600 931 675 931 q 457 935 524 932 q 333 938 390 938 q 306 936 328 938 q 262 933 285 935 q 229 931 239 932 q 188 928 206 929 q 160 928 171 928 q 138 928 142 928 q 129 926 133 928 q 115 925 122 925 q 101 925 108 925 q 71 921 82 925 q 50 883 53 908 q 46 863 50 874 q 42 792 42 840 l 42 729 q 44 625 42 682 q 49 490 46 568 l 50 407 q 52 315 51 354 q 53 249 53 275 q 53 228 53 232 q 51 219 53 224 q 51 178 51 192 q 49 151 50 165 l 49 117 q 65 46 49 72 q 118 4 82 19 q 204 -13 156 -8 q 342 -18 253 -18 m 519 554 q 508 560 508 554 l 508 606 q 564 713 508 713 q 658 697 629 713 q 688 644 688 681 q 682 636 688 636 l 672 631 l 658 624 q 650 617 656 622 q 636 607 644 613 q 599 586 618 593 q 567 572 585 578 q 535 558 550 565 q 519 554 525 554 m 538 213 q 503 228 513 213 q 494 265 493 243 q 498 306 494 286 q 503 338 501 326 q 514 356 504 356 q 549 355 533 356 q 596 353 565 354 q 624 351 617 351 q 651 350 631 350 q 669 344 665 349 q 672 325 674 339 q 542 213 672 213 l 538 213 "},"C":{"ha":982,"x_min":28,"x_max":961,"o":"m 908 318 q 826 281 856 288 q 769 271 796 274 l 710 264 q 558 307 617 253 q 499 458 499 361 q 560 619 499 560 q 728 679 622 679 l 729 681 q 750 681 746 682 q 758 680 754 681 q 775 679 761 679 l 794 679 l 911 663 q 933 692 926 674 q 939 749 939 711 q 938 800 939 776 q 936 838 938 824 q 935 860 935 849 q 933 882 935 871 l 931 910 l 926 910 q 915 915 925 910 q 913 919 914 917 q 910 924 911 922 q 906 926 907 925 q 903 926 904 926 q 878 931 893 926 q 851 936 863 935 l 806 943 q 788 947 796 944 q 771 949 779 949 q 709 957 731 954 q 672 962 688 960 q 635 964 657 964 q 464 949 549 964 q 308 906 379 933 q 188 840 236 878 q 66 685 104 776 q 28 461 28 594 q 188 90 28 224 q 578 -36 339 -36 q 815 -10 724 -36 q 961 75 906 17 q 926 290 961 194 l 926 294 q 908 318 926 313 "},"Ć":{"ha":982,"x_min":28,"x_max":961,"o":"m 908 318 q 826 281 856 288 q 769 271 796 274 l 710 264 q 558 307 617 253 q 499 458 499 361 q 560 619 499 560 q 728 679 622 679 l 729 681 q 750 681 746 682 q 758 680 754 681 q 775 679 761 679 l 794 679 l 911 663 q 933 692 926 674 q 939 749 939 711 q 938 800 939 776 q 936 838 938 824 q 935 860 935 849 q 933 882 935 871 l 931 910 l 926 910 q 915 915 925 910 q 913 919 914 917 q 910 924 911 922 q 906 926 907 925 q 903 926 904 926 q 878 931 893 926 q 851 936 863 935 l 806 943 q 788 947 796 944 q 771 949 779 949 q 709 957 731 954 q 672 962 688 960 q 635 964 657 964 q 464 949 549 964 q 308 906 379 933 q 188 840 236 878 q 66 685 104 776 q 28 461 28 594 q 188 90 28 224 q 578 -36 339 -36 q 815 -10 724 -36 q 961 75 906 17 q 926 290 961 194 l 926 294 q 908 318 926 313 m 600 1018 l 651 1018 q 675 1039 661 1018 q 691 1063 685 1053 q 710 1091 697 1074 q 746 1142 722 1108 l 764 1175 q 772 1189 767 1181 q 785 1210 778 1197 q 813 1258 803 1240 q 826 1282 824 1276 q 840 1308 838 1301 q 844 1322 844 1317 q 836 1335 844 1331 q 799 1346 828 1340 l 792 1346 q 789 1344 792 1344 l 778 1349 l 719 1351 l 711 1353 q 706 1354 707 1353 q 701 1356 704 1356 l 688 1356 q 674 1353 679 1356 l 665 1357 l 583 1353 l 524 1343 l 513 1335 q 483 1231 497 1279 q 454 1132 469 1182 q 448 1102 453 1121 q 443 1060 443 1083 q 448 1029 443 1040 q 469 1018 453 1018 l 585 1018 l 589 1022 l 600 1018 "},"Č":{"ha":982,"x_min":28,"x_max":961,"o":"m 908 318 q 826 281 856 288 q 769 271 796 274 l 710 264 q 558 307 617 253 q 499 458 499 361 q 560 619 499 560 q 728 679 622 679 l 729 681 q 750 681 746 682 q 758 680 754 681 q 775 679 761 679 l 794 679 l 911 663 q 933 692 926 674 q 939 749 939 711 q 938 800 939 776 q 936 838 938 824 q 935 860 935 849 q 933 882 935 871 l 931 910 l 926 910 q 915 915 925 910 q 913 919 914 917 q 910 924 911 922 q 906 926 907 925 q 903 926 904 926 q 878 931 893 926 q 851 936 863 935 l 806 943 q 788 947 796 944 q 771 949 779 949 q 709 957 731 954 q 672 962 688 960 q 635 964 657 964 q 464 949 549 964 q 308 906 379 933 q 188 840 236 878 q 66 685 104 776 q 28 461 28 594 q 188 90 28 224 q 578 -36 339 -36 q 815 -10 724 -36 q 961 75 906 17 q 926 290 961 194 l 926 294 q 908 318 926 313 m 336 1335 l 301 1335 q 288 1317 288 1335 l 288 1308 q 302 1272 292 1292 q 329 1224 313 1251 q 340 1208 335 1218 q 354 1185 344 1197 l 378 1142 l 411 1092 q 425 1074 417 1086 q 446 1043 433 1061 l 454 1038 l 504 1028 l 672 1028 l 704 1031 l 729 1043 l 776 1106 q 828 1182 808 1149 q 858 1238 847 1215 q 876 1274 869 1257 q 888 1308 883 1292 l 889 1313 l 889 1317 q 872 1335 889 1335 l 728 1335 q 713 1325 722 1335 q 690 1302 701 1314 q 671 1278 679 1290 q 660 1267 664 1272 q 651 1257 656 1263 q 622 1224 638 1240 q 586 1188 606 1208 q 554 1235 567 1215 q 532 1263 542 1254 l 517 1276 q 475 1317 492 1300 q 449 1335 458 1335 l 406 1335 l 401 1332 l 397 1335 l 363 1335 q 353 1332 357 1335 q 346 1333 351 1332 q 336 1335 340 1333 "},"Ç":{"ha":982,"x_min":28,"x_max":961,"o":"m 908 318 q 826 281 856 288 q 769 271 796 274 l 710 264 q 558 307 617 253 q 499 458 499 361 q 560 619 499 560 q 728 679 622 679 l 729 681 q 750 681 746 682 q 758 680 754 681 q 775 679 761 679 l 794 679 l 911 663 q 933 692 926 674 q 939 749 939 711 q 938 800 939 776 q 936 838 938 824 q 935 860 935 849 q 933 882 935 871 l 931 910 l 926 910 q 915 915 925 910 q 913 919 914 917 q 910 924 911 922 q 906 926 907 925 q 903 926 904 926 q 878 931 893 926 q 851 936 863 935 l 806 943 q 788 947 796 944 q 771 949 779 949 q 709 957 731 954 q 672 962 688 960 q 635 964 657 964 q 464 949 549 964 q 308 906 379 933 q 188 840 236 878 q 66 685 104 776 q 28 461 28 594 q 188 90 28 224 q 578 -36 339 -36 q 815 -10 724 -36 q 961 75 906 17 q 926 290 961 194 l 926 294 q 908 318 926 313 m 508 -456 q 694 -427 626 -456 q 790 -350 761 -399 q 818 -242 818 -301 q 763 -133 818 -181 q 589 -67 707 -85 l 607 25 l 458 25 l 451 11 l 432 -178 l 429 -233 q 488 -221 457 -221 q 551 -234 528 -221 q 575 -268 575 -247 q 571 -290 575 -282 q 557 -311 567 -297 q 526 -328 544 -325 q 485 -332 508 -332 q 389 -312 435 -332 q 383 -325 388 -314 q 379 -337 382 -331 q 374 -351 376 -344 l 360 -414 q 396 -437 372 -429 q 485 -456 442 -456 l 508 -456 "},"Ĉ":{"ha":982,"x_min":28,"x_max":961,"o":"m 908 318 q 826 281 856 288 q 769 271 796 274 l 710 264 q 558 307 617 253 q 499 458 499 361 q 560 619 499 560 q 728 679 622 679 l 729 681 q 750 681 746 682 q 758 680 754 681 q 775 679 761 679 l 794 679 l 911 663 q 933 692 926 674 q 939 749 939 711 q 938 800 939 776 q 936 838 938 824 q 935 860 935 849 q 933 882 935 871 l 931 910 l 926 910 q 915 915 925 910 q 913 919 914 917 q 910 924 911 922 q 906 926 907 925 q 903 926 904 926 q 878 931 893 926 q 851 936 863 935 l 806 943 q 788 947 796 944 q 771 949 779 949 q 709 957 731 954 q 672 962 688 960 q 635 964 657 964 q 464 949 549 964 q 308 906 379 933 q 188 840 236 878 q 66 685 104 776 q 28 461 28 594 q 188 90 28 224 q 578 -36 339 -36 q 815 -10 724 -36 q 961 75 906 17 q 926 290 961 194 l 926 294 q 908 318 926 313 m 360 1013 q 375 1014 363 1014 q 385 1013 379 1013 l 415 1013 l 419 1014 l 424 1013 l 463 1013 q 485 1033 471 1013 q 524 1076 500 1053 l 538 1090 q 558 1121 547 1100 q 588 1174 569 1142 q 618 1132 604 1151 q 646 1096 632 1113 q 654 1085 650 1090 q 664 1074 658 1081 q 676 1053 669 1064 q 701 1022 683 1043 q 715 1013 708 1013 l 846 1013 q 861 1031 861 1013 l 861 1036 l 860 1040 q 833 1118 854 1071 q 760 1263 801 1193 l 717 1331 l 694 1344 l 665 1347 l 513 1347 l 467 1338 l 460 1331 q 441 1299 449 1313 q 428 1278 433 1285 l 399 1224 l 376 1176 q 363 1151 368 1163 q 354 1133 358 1140 q 317 1040 322 1072 l 317 1031 q 329 1013 317 1013 l 360 1013 "},"Ċ":{"ha":982,"x_min":28,"x_max":961,"o":"m 908 318 q 826 281 856 288 q 769 271 796 274 l 710 264 q 558 307 617 253 q 499 458 499 361 q 560 619 499 560 q 728 679 622 679 l 729 681 q 750 681 746 682 q 758 680 754 681 q 775 679 761 679 l 794 679 l 911 663 q 933 692 926 674 q 939 749 939 711 q 938 800 939 776 q 936 838 938 824 q 935 860 935 849 q 933 882 935 871 l 931 910 l 926 910 q 915 915 925 910 q 913 919 914 917 q 910 924 911 922 q 906 926 907 925 q 903 926 904 926 q 878 931 893 926 q 851 936 863 935 l 806 943 q 788 947 796 944 q 771 949 779 949 q 709 957 731 954 q 672 962 688 960 q 635 964 657 964 q 464 949 549 964 q 308 906 379 933 q 188 840 236 878 q 66 685 104 776 q 28 461 28 594 q 188 90 28 224 q 578 -36 339 -36 q 815 -10 724 -36 q 961 75 906 17 q 926 290 961 194 l 926 294 q 908 318 926 313 m 621 1014 l 629 1018 q 632 1021 629 1021 q 638 1019 636 1021 q 643 1018 639 1018 q 651 1016 649 1017 q 656 1015 654 1015 l 665 1018 q 671 1019 669 1018 q 676 1021 672 1021 l 708 1024 l 718 1028 l 725 1028 q 728 1025 725 1025 q 740 1026 738 1025 q 747 1028 742 1028 q 763 1049 758 1035 q 764 1054 764 1051 q 765 1058 764 1057 q 767 1062 767 1060 q 768 1065 767 1064 l 768 1243 q 767 1258 767 1247 l 767 1292 q 767 1302 767 1297 q 769 1314 768 1307 l 769 1317 q 733 1335 769 1335 q 714 1333 717 1335 l 594 1333 q 574 1331 583 1332 q 558 1331 565 1331 q 545 1331 551 1331 q 532 1332 539 1331 q 507 1333 528 1333 q 487 1335 500 1335 q 456 1335 474 1335 q 417 1314 419 1335 l 415 1274 q 413 1244 414 1257 q 413 1219 413 1231 q 407 1104 407 1181 q 408 1067 407 1086 q 410 1038 408 1049 l 419 1028 l 538 1018 q 549 1017 543 1018 q 563 1015 556 1017 q 586 1014 567 1014 l 621 1014 "},"D":{"ha":1118,"x_min":42,"x_max":1090,"o":"m 482 -1 q 769 26 656 -3 q 954 115 883 54 q 1057 274 1024 176 q 1090 518 1090 372 q 1022 778 1090 672 q 890 894 974 853 q 704 935 807 935 q 645 934 679 935 q 568 932 611 933 l 517 931 q 447 929 488 929 q 354 929 407 929 q 275 929 296 929 q 239 931 254 929 l 78 932 q 53 920 65 932 q 42 896 42 908 l 42 590 q 43 442 42 514 q 46 303 44 371 q 48 186 47 238 q 49 88 49 135 q 56 32 49 57 q 86 1 63 1 l 482 -1 m 494 397 q 499 497 497 429 l 500 531 q 503 569 501 553 q 506 597 506 586 l 507 764 q 524 771 522 769 q 543 775 529 772 q 575 778 557 778 q 614 758 592 778 q 638 710 626 744 q 656 632 649 675 q 663 549 663 589 l 663 522 q 660 453 663 488 q 653 383 658 418 q 615 238 633 288 q 575 168 597 188 q 570 167 574 167 q 565 165 567 167 q 558 163 561 164 q 550 161 554 163 q 526 159 536 160 q 507 158 515 158 q 485 160 492 158 l 494 397 "},"Ǆ":{"ha":1992,"x_min":42,"x_max":1964,"o":"m 482 -1 q 769 26 656 -3 q 954 115 883 54 q 1057 274 1024 176 q 1090 518 1090 372 q 1022 778 1090 672 q 890 894 974 853 q 704 935 807 935 q 645 934 679 935 q 568 932 611 933 l 517 931 q 447 929 488 929 q 354 929 407 929 q 275 929 296 929 q 239 931 254 929 l 78 932 q 53 920 65 932 q 42 896 42 908 l 42 590 q 43 442 42 514 q 46 303 44 371 q 48 186 47 238 q 49 88 49 135 q 56 32 49 57 q 86 1 63 1 l 482 -1 m 494 397 q 499 497 497 429 l 500 531 q 503 569 501 553 q 506 597 506 586 l 507 764 q 524 771 522 769 q 543 775 529 772 q 575 778 557 778 q 614 758 592 778 q 638 710 626 744 q 656 632 649 675 q 663 549 663 589 l 663 522 q 660 453 663 488 q 653 383 658 418 q 615 238 633 288 q 575 168 597 188 q 570 167 574 167 q 565 165 567 167 q 558 163 561 164 q 550 161 554 163 q 526 159 536 160 q 507 158 515 158 q 485 160 492 158 l 494 397 m 1857 -19 q 1894 -17 1878 -19 q 1919 -14 1910 -15 q 1951 -6 1942 -11 q 1960 13 1960 -1 l 1960 246 q 1949 265 1960 257 q 1924 274 1938 274 l 1665 274 q 1811 433 1749 360 q 1917 567 1874 507 q 1940 605 1931 586 q 1957 643 1949 624 q 1964 686 1964 674 l 1964 918 l 1961 929 l 1938 940 q 1814 949 1900 949 l 1606 949 q 1403 944 1508 944 q 1358 943 1385 944 q 1300 940 1332 942 q 1246 936 1272 938 q 1193 935 1219 935 l 1175 936 q 1169 939 1172 938 q 1158 940 1165 940 q 1131 929 1142 940 l 1125 921 q 1124 915 1125 919 q 1121 907 1122 910 q 1120 869 1121 886 q 1118 840 1119 851 l 1118 819 q 1119 758 1118 785 q 1125 713 1121 731 q 1144 661 1133 678 q 1174 644 1154 644 l 1444 643 q 1451 632 1451 643 q 1442 608 1451 624 q 1421 582 1432 593 q 1412 570 1417 575 q 1404 558 1407 565 l 1300 444 l 1210 354 l 1142 285 l 1142 19 q 1153 -3 1142 8 q 1179 -14 1165 -14 l 1296 -15 q 1336 -17 1311 -17 q 1392 -17 1361 -17 q 1480 -19 1426 -18 q 1606 -19 1533 -19 l 1857 -19 m 1289 1335 l 1254 1335 q 1240 1317 1240 1335 l 1240 1308 q 1255 1272 1244 1292 q 1282 1224 1265 1251 q 1292 1208 1288 1218 q 1307 1185 1297 1197 l 1331 1142 l 1364 1092 q 1378 1074 1369 1086 q 1399 1043 1386 1061 l 1407 1038 l 1457 1028 l 1625 1028 l 1657 1031 l 1682 1043 l 1729 1106 q 1781 1182 1761 1149 q 1811 1238 1800 1215 q 1829 1274 1822 1257 q 1840 1308 1836 1292 l 1842 1313 l 1842 1317 q 1825 1335 1842 1335 l 1681 1335 q 1665 1325 1675 1335 q 1643 1302 1654 1314 q 1624 1278 1632 1290 q 1613 1267 1617 1272 q 1604 1257 1608 1263 q 1574 1224 1590 1240 q 1539 1188 1558 1208 q 1507 1235 1519 1215 q 1485 1263 1494 1254 l 1469 1276 q 1428 1317 1444 1300 q 1401 1335 1411 1335 l 1358 1335 l 1354 1332 l 1350 1335 l 1315 1335 q 1306 1332 1310 1335 q 1299 1333 1304 1332 q 1289 1335 1293 1333 "},"Ð":{"ha":1207,"x_min":42,"x_max":1179,"o":"m 42 547 q 42 504 42 521 q 43 472 42 488 l 43 394 q 75 376 43 383 q 98 375 82 376 q 133 374 114 374 q 134 338 133 356 q 135 303 135 321 q 137 202 136 256 q 138 88 138 149 q 144 32 138 53 q 175 1 150 1 l 571 -1 q 858 26 743 -3 q 1043 115 972 54 q 1147 274 1114 176 q 1179 518 1179 372 q 1111 778 1179 672 q 967 900 1054 865 q 793 935 879 935 q 734 934 768 935 q 657 932 700 933 l 606 931 q 536 929 576 929 q 443 929 496 929 q 380 929 408 929 q 328 931 351 929 l 167 932 q 142 920 154 932 q 131 896 131 908 l 131 567 l 79 567 q 53 559 65 567 q 42 547 42 551 m 650 564 l 592 564 q 594 583 593 575 q 594 597 594 592 l 596 764 q 613 771 611 769 q 632 775 618 772 q 664 778 646 778 q 703 758 681 778 q 731 698 721 739 q 747 615 742 657 q 751 549 751 574 l 751 522 q 749 458 751 493 q 742 383 747 424 q 705 238 724 289 q 664 168 686 188 q 659 167 663 167 q 654 165 656 167 q 648 163 651 164 q 639 161 644 163 q 615 159 625 160 q 596 158 604 158 q 574 160 581 158 l 583 381 l 638 381 q 663 390 653 382 q 674 417 674 399 l 674 449 q 674 461 674 454 q 675 475 675 468 l 679 547 q 671 557 679 550 q 650 564 663 564 "},"Ď":{"ha":1118,"x_min":42,"x_max":1090,"o":"m 482 -1 q 769 26 656 -3 q 954 115 883 54 q 1057 274 1024 176 q 1090 518 1090 372 q 1022 778 1090 672 q 890 894 974 853 q 704 935 807 935 q 645 934 679 935 q 568 932 611 933 l 517 931 q 447 929 488 929 q 354 929 407 929 q 275 929 296 929 q 239 931 254 929 l 78 932 q 53 920 65 932 q 42 896 42 908 l 42 590 q 43 442 42 514 q 46 303 44 371 q 48 186 47 238 q 49 88 49 135 q 56 32 49 57 q 86 1 63 1 l 482 -1 m 494 397 q 499 497 497 429 l 500 531 q 503 569 501 553 q 506 597 506 586 l 507 764 q 524 771 522 769 q 543 775 529 772 q 575 778 557 778 q 614 758 592 778 q 638 710 626 744 q 656 632 649 675 q 663 549 663 589 l 663 522 q 660 453 663 488 q 653 383 658 418 q 615 238 633 288 q 575 168 597 188 q 570 167 574 167 q 565 165 567 167 q 558 163 561 164 q 550 161 554 163 q 526 159 536 160 q 507 158 515 158 q 485 160 492 158 l 494 397 m 303 1335 l 268 1335 q 254 1317 254 1335 l 254 1308 q 269 1272 258 1292 q 296 1224 279 1251 q 306 1208 301 1218 q 321 1185 311 1197 l 344 1142 l 378 1092 q 392 1074 383 1086 q 413 1043 400 1061 l 421 1038 l 471 1028 l 639 1028 l 671 1031 l 696 1043 l 743 1106 q 794 1182 775 1149 q 825 1238 814 1215 q 843 1274 836 1257 q 854 1308 850 1292 l 856 1313 l 856 1317 q 839 1335 856 1335 l 694 1335 q 679 1325 689 1335 q 657 1302 668 1314 q 638 1278 646 1290 q 626 1267 631 1272 q 618 1257 622 1263 q 588 1224 604 1240 q 553 1188 572 1208 q 521 1235 533 1215 q 499 1263 508 1254 l 483 1276 q 442 1317 458 1300 q 415 1335 425 1335 l 372 1335 l 368 1332 l 364 1335 l 329 1335 q 319 1332 324 1335 q 313 1333 318 1332 q 303 1335 307 1333 "},"Đ":{"ha":1207,"x_min":42,"x_max":1179,"o":"m 42 547 q 42 504 42 521 q 43 472 42 488 l 43 394 q 75 376 43 383 q 98 375 82 376 q 133 374 114 374 q 134 338 133 356 q 135 303 135 321 q 137 202 136 256 q 138 88 138 149 q 144 32 138 53 q 175 1 150 1 l 571 -1 q 858 26 743 -3 q 1043 115 972 54 q 1147 274 1114 176 q 1179 518 1179 372 q 1111 778 1179 672 q 967 900 1054 865 q 793 935 879 935 q 734 934 768 935 q 657 932 700 933 l 606 931 q 536 929 576 929 q 443 929 496 929 q 380 929 408 929 q 328 931 351 929 l 167 932 q 142 920 154 932 q 131 896 131 908 l 131 567 l 79 567 q 53 559 65 567 q 42 547 42 551 m 650 564 l 592 564 q 594 583 593 575 q 594 597 594 592 l 596 764 q 613 771 611 769 q 632 775 618 772 q 664 778 646 778 q 703 758 681 778 q 731 698 721 739 q 747 615 742 657 q 751 549 751 574 l 751 522 q 749 458 751 493 q 742 383 747 424 q 705 238 724 289 q 664 168 686 188 q 659 167 663 167 q 654 165 656 167 q 648 163 651 164 q 639 161 644 163 q 615 159 625 160 q 596 158 604 158 q 574 160 581 158 l 583 381 l 638 381 q 663 390 653 382 q 674 417 674 399 l 674 449 q 674 461 674 454 q 675 475 675 468 l 679 547 q 671 557 679 550 q 650 564 663 564 "},"ǅ":{"ha":1899,"x_min":42,"x_max":1878,"o":"m 482 -1 q 769 26 656 -3 q 954 115 883 54 q 1057 274 1024 176 q 1090 518 1090 372 q 1022 778 1090 672 q 890 894 974 853 q 704 935 807 935 q 645 934 679 935 q 568 932 611 933 l 517 931 q 447 929 488 929 q 354 929 407 929 q 275 929 296 929 q 239 931 254 929 l 78 932 q 53 920 65 932 q 42 896 42 908 l 42 590 q 43 442 42 514 q 46 303 44 371 q 48 186 47 238 q 49 88 49 135 q 56 32 49 57 q 86 1 63 1 l 482 -1 m 494 397 q 499 497 497 429 l 500 531 q 503 569 501 553 q 506 597 506 586 l 507 764 q 524 771 522 769 q 543 775 529 772 q 575 778 557 778 q 614 758 592 778 q 638 710 626 744 q 656 632 649 675 q 663 549 663 589 l 663 522 q 660 453 663 488 q 653 383 658 418 q 615 238 633 288 q 575 168 597 188 q 570 167 574 167 q 565 165 567 167 q 558 163 561 164 q 550 161 554 163 q 526 159 536 160 q 507 158 515 158 q 485 160 492 158 l 494 397 m 1783 0 q 1835 4 1818 0 q 1864 12 1857 7 q 1871 26 1871 17 l 1871 221 q 1861 238 1871 231 q 1840 244 1851 244 l 1614 244 q 1832 490 1747 375 q 1852 521 1843 506 q 1868 553 1861 536 q 1878 590 1878 572 l 1878 783 q 1877 787 1878 785 q 1875 793 1876 789 l 1853 803 q 1744 810 1811 810 l 1564 810 q 1386 806 1476 806 q 1347 805 1369 806 q 1296 803 1325 804 q 1204 799 1250 799 l 1189 800 q 1174 803 1185 803 q 1149 793 1158 803 l 1144 786 q 1142 775 1144 783 q 1141 747 1142 763 q 1139 719 1140 732 l 1139 701 q 1144 611 1139 635 q 1188 554 1154 554 l 1424 553 q 1429 546 1429 553 q 1403 503 1429 529 q 1394 493 1399 497 q 1388 485 1390 489 l 1296 386 q 1265 357 1286 378 q 1219 313 1243 336 l 1161 254 l 1161 33 q 1172 14 1161 24 q 1192 4 1182 4 l 1293 3 q 1318 1 1303 1 q 1378 1 1333 1 q 1408 1 1392 1 q 1460 0 1425 0 q 1564 0 1496 0 l 1783 0 m 1256 1228 l 1221 1228 q 1207 1210 1207 1228 l 1207 1201 q 1222 1165 1211 1185 q 1249 1117 1232 1144 q 1259 1101 1254 1111 q 1274 1078 1264 1090 l 1297 1035 l 1331 985 q 1344 967 1336 979 q 1365 936 1353 954 l 1374 931 l 1424 921 l 1592 921 l 1624 924 l 1649 936 l 1696 999 q 1747 1075 1728 1042 q 1778 1131 1767 1108 q 1796 1167 1789 1150 q 1807 1201 1803 1185 l 1808 1206 l 1808 1210 q 1792 1228 1808 1228 l 1647 1228 q 1632 1218 1642 1228 q 1610 1195 1621 1207 q 1590 1171 1599 1183 q 1579 1160 1583 1165 q 1571 1150 1575 1156 q 1541 1117 1557 1133 q 1506 1081 1525 1101 q 1474 1128 1486 1108 q 1451 1156 1461 1147 l 1436 1169 q 1394 1210 1411 1193 q 1368 1228 1378 1228 l 1325 1228 l 1321 1225 l 1317 1228 l 1282 1228 q 1272 1225 1276 1228 q 1265 1226 1271 1225 q 1256 1228 1260 1226 "},"E":{"ha":896,"x_min":42,"x_max":889,"o":"m 375 -6 q 449 -5 400 -6 q 558 -4 499 -4 q 665 -4 617 -4 q 737 -4 719 -4 q 764 -3 754 -4 q 863 1 818 1 q 889 31 889 1 q 886 51 889 44 q 863 161 872 121 q 847 211 853 201 q 836 221 840 221 q 777 220 810 221 q 704 218 744 219 q 631 215 678 217 q 500 214 583 214 q 501 253 500 244 q 503 268 501 263 q 504 322 504 307 q 509 340 504 336 q 528 346 514 343 q 539 347 531 347 q 576 347 547 347 q 599 346 583 346 q 667 346 615 346 q 743 347 718 346 q 781 353 768 349 q 828 381 828 356 l 828 385 l 825 522 q 793 553 819 553 l 779 553 q 656 561 708 561 l 532 561 q 511 567 517 561 q 507 590 506 572 l 510 638 q 515 653 511 650 q 524 667 519 657 q 535 682 531 682 l 607 689 l 679 694 q 759 701 724 697 q 825 704 794 704 q 840 703 838 704 q 856 715 854 703 q 857 726 856 725 q 856 742 857 739 q 850 774 853 757 q 844 821 847 790 q 839 856 840 844 q 835 872 838 867 q 803 924 824 924 q 729 929 772 926 q 628 932 686 932 l 567 932 q 463 931 524 932 q 319 929 401 931 q 252 926 293 926 q 154 925 211 925 q 119 924 138 925 q 86 922 100 924 q 51 897 51 911 q 44 755 46 836 q 42 542 42 674 q 42 470 42 494 q 42 435 42 446 q 43 418 43 425 q 44 383 44 404 q 44 336 43 363 l 47 294 q 48 260 49 275 q 49 232 47 244 l 51 174 q 55 146 53 161 q 57 108 57 131 q 61 14 61 50 q 61 11 61 14 q 72 7 65 7 l 101 0 q 119 -2 111 -1 q 135 -4 128 -3 q 156 -6 140 -6 l 375 -6 "},"É":{"ha":896,"x_min":42,"x_max":889,"o":"m 375 -6 q 449 -5 400 -6 q 558 -4 499 -4 q 665 -4 617 -4 q 737 -4 719 -4 q 764 -3 754 -4 q 863 1 818 1 q 889 31 889 1 q 886 51 889 44 q 863 161 872 121 q 847 211 853 201 q 836 221 840 221 q 777 220 810 221 q 704 218 744 219 q 631 215 678 217 q 500 214 583 214 q 501 253 500 244 q 503 268 501 263 q 504 322 504 307 q 509 340 504 336 q 528 346 514 343 q 539 347 531 347 q 576 347 547 347 q 599 346 583 346 q 667 346 615 346 q 743 347 718 346 q 781 353 768 349 q 828 381 828 356 l 828 385 l 825 522 q 793 553 819 553 l 779 553 q 656 561 708 561 l 532 561 q 511 567 517 561 q 507 590 506 572 l 510 638 q 515 653 511 650 q 524 667 519 657 q 535 682 531 682 l 607 689 l 679 694 q 759 701 724 697 q 825 704 794 704 q 840 703 838 704 q 856 715 854 703 q 857 726 856 725 q 856 742 857 739 q 850 774 853 757 q 844 821 847 790 q 839 856 840 844 q 835 872 838 867 q 803 924 824 924 q 729 929 772 926 q 628 932 686 932 l 567 932 q 463 931 524 932 q 319 929 401 931 q 252 926 293 926 q 154 925 211 925 q 119 924 138 925 q 86 922 100 924 q 51 897 51 911 q 44 755 46 836 q 42 542 42 674 q 42 470 42 494 q 42 435 42 446 q 43 418 43 425 q 44 383 44 404 q 44 336 43 363 l 47 294 q 48 260 49 275 q 49 232 47 244 l 51 174 q 55 146 53 161 q 57 108 57 131 q 61 14 61 50 q 61 11 61 14 q 72 7 65 7 l 101 0 q 119 -2 111 -1 q 135 -4 128 -3 q 156 -6 140 -6 l 375 -6 m 456 1018 l 507 1018 q 531 1039 517 1018 q 547 1063 540 1053 q 565 1091 553 1074 q 601 1142 578 1108 l 619 1175 q 628 1189 622 1181 q 640 1210 633 1197 q 669 1258 658 1240 q 682 1282 679 1276 q 696 1308 693 1301 q 700 1322 700 1317 q 692 1335 700 1331 q 654 1346 683 1340 l 647 1346 q 644 1344 647 1344 l 633 1349 l 575 1351 l 567 1353 q 561 1354 563 1353 q 557 1356 560 1356 l 543 1356 q 529 1353 535 1356 l 521 1357 l 439 1353 l 379 1343 l 368 1335 q 339 1231 353 1279 q 310 1132 325 1182 q 303 1102 308 1121 q 299 1060 299 1083 q 303 1029 299 1040 q 325 1018 308 1018 l 440 1018 l 444 1022 l 456 1018 "},"Ĕ":{"ha":896,"x_min":42,"x_max":889,"o":"m 375 -6 q 449 -5 400 -6 q 558 -4 499 -4 q 665 -4 617 -4 q 737 -4 719 -4 q 764 -3 754 -4 q 863 1 818 1 q 889 31 889 1 q 886 51 889 44 q 863 161 872 121 q 847 211 853 201 q 836 221 840 221 q 777 220 810 221 q 704 218 744 219 q 631 215 678 217 q 500 214 583 214 q 501 253 500 244 q 503 268 501 263 q 504 322 504 307 q 509 340 504 336 q 528 346 514 343 q 539 347 531 347 q 576 347 547 347 q 599 346 583 346 q 667 346 615 346 q 743 347 718 346 q 781 353 768 349 q 828 381 828 356 l 828 385 l 825 522 q 793 553 819 553 l 779 553 q 656 561 708 561 l 532 561 q 511 567 517 561 q 507 590 506 572 l 510 638 q 515 653 511 650 q 524 667 519 657 q 535 682 531 682 l 607 689 l 679 694 q 759 701 724 697 q 825 704 794 704 q 840 703 838 704 q 856 715 854 703 q 857 726 856 725 q 856 742 857 739 q 850 774 853 757 q 844 821 847 790 q 839 856 840 844 q 835 872 838 867 q 803 924 824 924 q 729 929 772 926 q 628 932 686 932 l 567 932 q 463 931 524 932 q 319 929 401 931 q 252 926 293 926 q 154 925 211 925 q 119 924 138 925 q 86 922 100 924 q 51 897 51 911 q 44 755 46 836 q 42 542 42 674 q 42 470 42 494 q 42 435 42 446 q 43 418 43 425 q 44 383 44 404 q 44 336 43 363 l 47 294 q 48 260 49 275 q 49 232 47 244 l 51 174 q 55 146 53 161 q 57 108 57 131 q 61 14 61 50 q 61 11 61 14 q 72 7 65 7 l 101 0 q 119 -2 111 -1 q 135 -4 128 -3 q 156 -6 140 -6 l 375 -6 m 426 1013 q 571 1031 508 1013 q 676 1099 633 1050 q 760 1276 760 1194 q 763 1325 760 1303 q 758 1364 767 1347 q 753 1368 757 1368 l 558 1375 q 550 1367 550 1375 q 551 1333 551 1350 q 550 1299 550 1317 q 521 1226 550 1256 q 454 1197 492 1197 q 384 1210 417 1197 q 344 1240 351 1222 q 343 1243 343 1242 q 342 1246 343 1244 l 340 1247 l 339 1274 q 343 1350 339 1308 q 340 1359 344 1356 q 332 1363 336 1363 l 149 1364 q 136 1354 139 1364 q 128 1306 131 1331 q 125 1256 125 1282 q 150 1159 125 1204 q 218 1082 175 1114 q 316 1032 261 1051 q 426 1013 371 1013 "},"Ě":{"ha":896,"x_min":42,"x_max":889,"o":"m 375 -6 q 449 -5 400 -6 q 558 -4 499 -4 q 665 -4 617 -4 q 737 -4 719 -4 q 764 -3 754 -4 q 863 1 818 1 q 889 31 889 1 q 886 51 889 44 q 863 161 872 121 q 847 211 853 201 q 836 221 840 221 q 777 220 810 221 q 704 218 744 219 q 631 215 678 217 q 500 214 583 214 q 501 253 500 244 q 503 268 501 263 q 504 322 504 307 q 509 340 504 336 q 528 346 514 343 q 539 347 531 347 q 576 347 547 347 q 599 346 583 346 q 667 346 615 346 q 743 347 718 346 q 781 353 768 349 q 828 381 828 356 l 828 385 l 825 522 q 793 553 819 553 l 779 553 q 656 561 708 561 l 532 561 q 511 567 517 561 q 507 590 506 572 l 510 638 q 515 653 511 650 q 524 667 519 657 q 535 682 531 682 l 607 689 l 679 694 q 759 701 724 697 q 825 704 794 704 q 840 703 838 704 q 856 715 854 703 q 857 726 856 725 q 856 742 857 739 q 850 774 853 757 q 844 821 847 790 q 839 856 840 844 q 835 872 838 867 q 803 924 824 924 q 729 929 772 926 q 628 932 686 932 l 567 932 q 463 931 524 932 q 319 929 401 931 q 252 926 293 926 q 154 925 211 925 q 119 924 138 925 q 86 922 100 924 q 51 897 51 911 q 44 755 46 836 q 42 542 42 674 q 42 470 42 494 q 42 435 42 446 q 43 418 43 425 q 44 383 44 404 q 44 336 43 363 l 47 294 q 48 260 49 275 q 49 232 47 244 l 51 174 q 55 146 53 161 q 57 108 57 131 q 61 14 61 50 q 61 11 61 14 q 72 7 65 7 l 101 0 q 119 -2 111 -1 q 135 -4 128 -3 q 156 -6 140 -6 l 375 -6 m 192 1335 l 157 1335 q 143 1317 143 1335 l 143 1308 q 158 1272 147 1292 q 185 1224 168 1251 q 195 1208 190 1218 q 210 1185 200 1197 l 233 1142 l 267 1092 q 281 1074 272 1086 q 301 1043 289 1061 l 310 1038 l 360 1028 l 528 1028 l 560 1031 l 585 1043 l 632 1106 q 683 1182 664 1149 q 714 1238 703 1215 q 732 1274 725 1257 q 743 1308 739 1292 l 744 1313 l 744 1317 q 728 1335 744 1335 l 583 1335 q 568 1325 578 1335 q 546 1302 557 1314 q 526 1278 535 1290 q 515 1267 519 1272 q 507 1257 511 1263 q 477 1224 493 1240 q 442 1188 461 1208 q 410 1235 422 1215 q 388 1263 397 1254 l 372 1276 q 331 1317 347 1300 q 304 1335 314 1335 l 261 1335 l 257 1332 l 253 1335 l 218 1335 q 208 1332 213 1335 q 201 1333 207 1332 q 192 1335 196 1333 "},"Ê":{"ha":896,"x_min":42,"x_max":889,"o":"m 375 -6 q 449 -5 400 -6 q 558 -4 499 -4 q 665 -4 617 -4 q 737 -4 719 -4 q 764 -3 754 -4 q 863 1 818 1 q 889 31 889 1 q 886 51 889 44 q 863 161 872 121 q 847 211 853 201 q 836 221 840 221 q 777 220 810 221 q 704 218 744 219 q 631 215 678 217 q 500 214 583 214 q 501 253 500 244 q 503 268 501 263 q 504 322 504 307 q 509 340 504 336 q 528 346 514 343 q 539 347 531 347 q 576 347 547 347 q 599 346 583 346 q 667 346 615 346 q 743 347 718 346 q 781 353 768 349 q 828 381 828 356 l 828 385 l 825 522 q 793 553 819 553 l 779 553 q 656 561 708 561 l 532 561 q 511 567 517 561 q 507 590 506 572 l 510 638 q 515 653 511 650 q 524 667 519 657 q 535 682 531 682 l 607 689 l 679 694 q 759 701 724 697 q 825 704 794 704 q 840 703 838 704 q 856 715 854 703 q 857 726 856 725 q 856 742 857 739 q 850 774 853 757 q 844 821 847 790 q 839 856 840 844 q 835 872 838 867 q 803 924 824 924 q 729 929 772 926 q 628 932 686 932 l 567 932 q 463 931 524 932 q 319 929 401 931 q 252 926 293 926 q 154 925 211 925 q 119 924 138 925 q 86 922 100 924 q 51 897 51 911 q 44 755 46 836 q 42 542 42 674 q 42 470 42 494 q 42 435 42 446 q 43 418 43 425 q 44 383 44 404 q 44 336 43 363 l 47 294 q 48 260 49 275 q 49 232 47 244 l 51 174 q 55 146 53 161 q 57 108 57 131 q 61 14 61 50 q 61 11 61 14 q 72 7 65 7 l 101 0 q 119 -2 111 -1 q 135 -4 128 -3 q 156 -6 140 -6 l 375 -6 m 215 1013 q 231 1014 218 1014 q 240 1013 235 1013 l 271 1013 l 275 1014 l 279 1013 l 318 1013 q 341 1033 326 1013 q 379 1076 356 1053 l 393 1090 q 414 1121 403 1100 q 443 1174 425 1142 q 474 1132 460 1151 q 501 1096 488 1113 q 510 1085 506 1090 q 519 1074 514 1081 q 532 1053 525 1064 q 557 1022 539 1043 q 571 1013 564 1013 l 701 1013 q 717 1031 717 1013 l 717 1036 l 715 1040 q 689 1118 710 1071 q 615 1263 657 1193 l 572 1331 l 550 1344 l 521 1347 l 368 1347 l 322 1338 l 315 1331 q 297 1299 304 1313 q 283 1278 289 1285 l 254 1224 l 232 1176 q 219 1151 224 1163 q 210 1133 214 1140 q 172 1040 178 1072 l 172 1031 q 185 1013 172 1013 l 215 1013 "},"Ế":{"ha":896,"x_min":42,"x_max":972,"o":"m 375 -6 q 449 -5 400 -6 q 558 -4 499 -4 q 665 -4 617 -4 q 737 -4 719 -4 q 764 -3 754 -4 q 863 1 818 1 q 889 31 889 1 q 886 51 889 44 q 863 161 872 121 q 847 211 853 201 q 836 221 840 221 q 777 220 810 221 q 704 218 744 219 q 631 215 678 217 q 500 214 583 214 q 501 253 500 244 q 503 268 501 263 q 504 322 504 307 q 509 340 504 336 q 528 346 514 343 q 539 347 531 347 q 576 347 547 347 q 599 346 583 346 q 667 346 615 346 q 743 347 718 346 q 781 353 768 349 q 828 381 828 356 l 828 385 l 825 522 q 793 553 819 553 l 779 553 q 656 561 708 561 l 532 561 q 511 567 517 561 q 507 590 506 572 l 510 638 q 515 653 511 650 q 524 667 519 657 q 535 682 531 682 l 607 689 l 679 694 q 759 701 724 697 q 825 704 794 704 q 840 703 838 704 q 856 715 854 703 q 857 726 856 725 q 856 742 857 739 q 850 774 853 757 q 844 821 847 790 q 839 856 840 844 q 835 872 838 867 q 803 924 824 924 q 729 929 772 926 q 628 932 686 932 l 567 932 q 463 931 524 932 q 319 929 401 931 q 252 926 293 926 q 154 925 211 925 q 119 924 138 925 q 86 922 100 924 q 51 897 51 911 q 44 755 46 836 q 42 542 42 674 q 42 470 42 494 q 42 435 42 446 q 43 418 43 425 q 44 383 44 404 q 44 336 43 363 l 47 294 q 48 260 49 275 q 49 232 47 244 l 51 174 q 55 146 53 161 q 57 108 57 131 q 61 14 61 50 q 61 11 61 14 q 72 7 65 7 l 101 0 q 119 -2 111 -1 q 135 -4 128 -3 q 156 -6 140 -6 l 375 -6 m 246 1024 l 250 1018 l 296 1018 q 335 1049 307 1018 q 358 1072 339 1053 q 403 1113 378 1090 q 444 1149 428 1135 q 490 1108 465 1128 q 539 1065 514 1089 l 575 1032 q 592 1018 582 1018 l 744 1018 q 763 1042 763 1018 l 763 1049 l 760 1057 q 742 1080 751 1068 q 724 1106 733 1092 l 697 1142 l 593 1299 l 569 1314 l 532 1317 l 510 1317 q 501 1318 504 1317 q 496 1321 499 1319 l 356 1321 l 304 1290 l 300 1279 q 268 1247 288 1265 q 240 1213 247 1226 l 204 1168 q 157 1096 193 1143 q 142 1078 149 1088 q 128 1057 135 1068 q 126 1049 126 1056 l 126 1042 q 130 1025 126 1032 q 142 1018 133 1018 l 242 1018 l 246 1024 m 763 1228 l 814 1228 q 836 1246 824 1228 q 865 1288 851 1265 q 890 1338 878 1311 q 915 1381 900 1358 q 940 1425 929 1400 q 949 1443 946 1436 q 954 1454 953 1450 q 964 1467 961 1461 q 968 1476 967 1474 q 972 1489 972 1485 q 966 1501 972 1497 q 947 1507 960 1504 q 936 1510 942 1508 q 926 1513 931 1511 l 919 1513 q 917 1511 919 1511 l 906 1514 l 818 1519 q 783 1518 804 1518 q 729 1518 761 1518 l 694 1508 l 683 1500 q 688 1406 683 1488 q 690 1373 689 1386 q 690 1353 690 1360 q 689 1329 690 1335 q 688 1303 688 1319 q 688 1265 688 1288 q 692 1238 688 1247 q 714 1228 697 1228 l 746 1228 l 751 1231 l 763 1228 "},"Ệ":{"ha":896,"x_min":42,"x_max":889,"o":"m 375 -6 q 449 -5 400 -6 q 558 -4 499 -4 q 665 -4 617 -4 q 737 -4 719 -4 q 764 -3 754 -4 q 863 1 818 1 q 889 31 889 1 q 886 51 889 44 q 863 161 872 121 q 847 211 853 201 q 836 221 840 221 q 777 220 810 221 q 704 218 744 219 q 631 215 678 217 q 500 214 583 214 q 501 253 500 244 q 503 268 501 263 q 504 322 504 307 q 509 340 504 336 q 528 346 514 343 q 539 347 531 347 q 576 347 547 347 q 599 346 583 346 q 667 346 615 346 q 743 347 718 346 q 781 353 768 349 q 828 381 828 356 l 828 385 l 825 522 q 793 553 819 553 l 779 553 q 656 561 708 561 l 532 561 q 511 567 517 561 q 507 590 506 572 l 510 638 q 515 653 511 650 q 524 667 519 657 q 535 682 531 682 l 607 689 l 679 694 q 759 701 724 697 q 825 704 794 704 q 840 703 838 704 q 856 715 854 703 q 857 726 856 725 q 856 742 857 739 q 850 774 853 757 q 844 821 847 790 q 839 856 840 844 q 835 872 838 867 q 803 924 824 924 q 729 929 772 926 q 628 932 686 932 l 567 932 q 463 931 524 932 q 319 929 401 931 q 252 926 293 926 q 154 925 211 925 q 119 924 138 925 q 86 922 100 924 q 51 897 51 911 q 44 755 46 836 q 42 542 42 674 q 42 470 42 494 q 42 435 42 446 q 43 418 43 425 q 44 383 44 404 q 44 336 43 363 l 47 294 q 48 260 49 275 q 49 232 47 244 l 51 174 q 55 146 53 161 q 57 108 57 131 q 61 14 61 50 q 61 11 61 14 q 72 7 65 7 l 101 0 q 119 -2 111 -1 q 135 -4 128 -3 q 156 -6 140 -6 l 375 -6 m 246 1024 l 250 1018 l 296 1018 q 335 1049 307 1018 q 358 1072 339 1053 q 403 1113 378 1090 q 444 1149 428 1135 q 490 1108 465 1128 q 539 1065 514 1089 l 575 1032 q 592 1018 582 1018 l 744 1018 q 763 1042 763 1018 l 763 1049 l 760 1057 q 742 1080 751 1068 q 724 1106 733 1092 l 697 1142 l 593 1299 l 569 1314 l 532 1317 l 510 1317 q 501 1318 504 1317 q 496 1321 499 1319 l 356 1321 l 304 1290 l 300 1279 q 268 1247 288 1265 q 240 1213 247 1226 l 204 1168 q 157 1096 193 1143 q 142 1078 149 1088 q 128 1057 135 1068 q 126 1049 126 1056 l 126 1042 q 130 1025 126 1032 q 142 1018 133 1018 l 242 1018 l 246 1024 m 474 -412 l 481 -410 q 483 -407 481 -407 q 489 -408 488 -407 q 490 -409 489 -408 q 493 -410 492 -410 q 501 -410 499 -410 q 504 -411 503 -411 l 514 -410 q 517 -409 517 -410 q 518 -408 517 -408 q 524 -407 519 -407 l 551 -404 l 561 -400 l 567 -400 q 569 -403 567 -403 q 581 -401 578 -403 q 583 -401 582 -401 q 588 -400 585 -400 q 601 -382 599 -392 q 603 -372 601 -375 q 606 -367 603 -372 l 606 -207 q 604 -193 604 -203 l 604 -162 q 605 -154 604 -158 q 607 -143 606 -150 l 607 -140 q 575 -124 607 -124 q 563 -124 565 -124 q 557 -125 560 -125 l 450 -125 q 432 -127 440 -126 q 417 -128 424 -128 q 406 -128 411 -128 q 393 -126 400 -128 q 371 -125 389 -125 q 353 -124 365 -124 q 325 -124 340 -124 q 289 -143 292 -124 l 289 -179 q 287 -206 288 -193 q 286 -228 286 -218 q 281 -332 281 -262 q 281 -365 281 -349 q 283 -392 282 -381 l 292 -400 l 399 -410 q 409 -410 403 -410 q 421 -411 415 -410 q 442 -412 425 -412 l 474 -412 "},"Ề":{"ha":896,"x_min":42,"x_max":889,"o":"m 375 -6 q 449 -5 400 -6 q 558 -4 499 -4 q 665 -4 617 -4 q 737 -4 719 -4 q 764 -3 754 -4 q 863 1 818 1 q 889 31 889 1 q 886 51 889 44 q 863 161 872 121 q 847 211 853 201 q 836 221 840 221 q 777 220 810 221 q 704 218 744 219 q 631 215 678 217 q 500 214 583 214 q 501 253 500 244 q 503 268 501 263 q 504 322 504 307 q 509 340 504 336 q 528 346 514 343 q 539 347 531 347 q 576 347 547 347 q 599 346 583 346 q 667 346 615 346 q 743 347 718 346 q 781 353 768 349 q 828 381 828 356 l 828 385 l 825 522 q 793 553 819 553 l 779 553 q 656 561 708 561 l 532 561 q 511 567 517 561 q 507 590 506 572 l 510 638 q 515 653 511 650 q 524 667 519 657 q 535 682 531 682 l 607 689 l 679 694 q 759 701 724 697 q 825 704 794 704 q 840 703 838 704 q 856 715 854 703 q 857 726 856 725 q 856 742 857 739 q 850 774 853 757 q 844 821 847 790 q 839 856 840 844 q 835 872 838 867 q 803 924 824 924 q 729 929 772 926 q 628 932 686 932 l 567 932 q 463 931 524 932 q 319 929 401 931 q 252 926 293 926 q 154 925 211 925 q 119 924 138 925 q 86 922 100 924 q 51 897 51 911 q 44 755 46 836 q 42 542 42 674 q 42 470 42 494 q 42 435 42 446 q 43 418 43 425 q 44 383 44 404 q 44 336 43 363 l 47 294 q 48 260 49 275 q 49 232 47 244 l 51 174 q 55 146 53 161 q 57 108 57 131 q 61 14 61 50 q 61 11 61 14 q 72 7 65 7 l 101 0 q 119 -2 111 -1 q 135 -4 128 -3 q 156 -6 140 -6 l 375 -6 m 246 1024 l 250 1018 l 296 1018 q 335 1049 307 1018 q 358 1072 339 1053 q 403 1113 378 1090 q 444 1149 428 1135 q 490 1108 465 1128 q 539 1065 514 1089 l 575 1032 q 592 1018 582 1018 l 744 1018 q 763 1042 763 1018 l 763 1049 l 760 1057 q 742 1080 751 1068 q 724 1106 733 1092 l 697 1142 l 593 1299 l 569 1314 l 532 1317 l 510 1317 q 501 1318 504 1317 q 496 1321 499 1319 l 356 1321 l 304 1290 l 300 1279 q 268 1247 288 1265 q 240 1213 247 1226 l 204 1168 q 157 1096 193 1143 q 142 1078 149 1088 q 128 1057 135 1068 q 126 1049 126 1056 l 126 1042 q 130 1025 126 1032 q 142 1018 133 1018 l 242 1018 l 246 1024 m 783 1225 l 794 1229 l 799 1225 l 832 1225 q 853 1236 849 1225 q 858 1267 858 1247 q 858 1308 858 1290 q 857 1338 858 1326 q 856 1350 856 1343 q 856 1367 856 1357 q 856 1390 856 1375 q 858 1425 857 1404 q 860 1479 860 1454 q 861 1526 861 1504 l 851 1535 l 817 1546 q 764 1546 786 1546 q 728 1547 742 1546 l 639 1540 l 629 1538 q 625 1539 625 1538 l 618 1539 q 609 1536 614 1538 q 599 1533 604 1535 q 582 1526 588 1532 q 572 1514 572 1522 q 576 1500 572 1508 q 583 1488 579 1494 q 590 1475 586 1482 l 603 1450 q 617 1421 610 1435 q 631 1394 624 1407 q 638 1383 633 1389 q 644 1369 642 1376 q 650 1358 647 1364 q 656 1347 653 1353 q 682 1291 669 1317 q 708 1246 694 1265 q 732 1225 724 1225 l 783 1225 "},"Ể":{"ha":896,"x_min":42,"x_max":1042,"o":"m 375 -6 q 449 -5 400 -6 q 558 -4 499 -4 q 665 -4 617 -4 q 737 -4 719 -4 q 764 -3 754 -4 q 863 1 818 1 q 889 31 889 1 q 886 51 889 44 q 863 161 872 121 q 847 211 853 201 q 836 221 840 221 q 777 220 810 221 q 704 218 744 219 q 631 215 678 217 q 500 214 583 214 q 501 253 500 244 q 503 268 501 263 q 504 322 504 307 q 509 340 504 336 q 528 346 514 343 q 539 347 531 347 q 576 347 547 347 q 599 346 583 346 q 667 346 615 346 q 743 347 718 346 q 781 353 768 349 q 828 381 828 356 l 828 385 l 825 522 q 793 553 819 553 l 779 553 q 656 561 708 561 l 532 561 q 511 567 517 561 q 507 590 506 572 l 510 638 q 515 653 511 650 q 524 667 519 657 q 535 682 531 682 l 607 689 l 679 694 q 759 701 724 697 q 825 704 794 704 q 840 703 838 704 q 856 715 854 703 q 857 726 856 725 q 856 742 857 739 q 850 774 853 757 q 844 821 847 790 q 839 856 840 844 q 835 872 838 867 q 803 924 824 924 q 729 929 772 926 q 628 932 686 932 l 567 932 q 463 931 524 932 q 319 929 401 931 q 252 926 293 926 q 154 925 211 925 q 119 924 138 925 q 86 922 100 924 q 51 897 51 911 q 44 755 46 836 q 42 542 42 674 q 42 470 42 494 q 42 435 42 446 q 43 418 43 425 q 44 383 44 404 q 44 336 43 363 l 47 294 q 48 260 49 275 q 49 232 47 244 l 51 174 q 55 146 53 161 q 57 108 57 131 q 61 14 61 50 q 61 11 61 14 q 72 7 65 7 l 101 0 q 119 -2 111 -1 q 135 -4 128 -3 q 156 -6 140 -6 l 375 -6 m 246 1024 l 250 1018 l 296 1018 q 335 1049 307 1018 q 358 1072 339 1053 q 403 1113 378 1090 q 444 1149 428 1135 q 490 1108 465 1128 q 539 1065 514 1089 l 575 1032 q 592 1018 582 1018 l 744 1018 q 763 1042 763 1018 l 763 1049 l 760 1057 q 742 1080 751 1068 q 724 1106 733 1092 l 697 1142 l 593 1299 l 569 1314 l 532 1317 l 510 1317 q 501 1318 504 1317 q 496 1321 499 1319 l 356 1321 l 304 1290 l 300 1279 q 268 1247 288 1265 q 240 1213 247 1226 l 204 1168 q 157 1096 193 1143 q 142 1078 149 1088 q 128 1057 135 1068 q 126 1049 126 1056 l 126 1042 q 130 1025 126 1032 q 142 1018 133 1018 l 242 1018 l 246 1024 m 711 1225 q 742 1225 728 1225 q 763 1226 756 1225 l 789 1226 l 800 1225 l 808 1225 q 821 1242 821 1225 l 822 1276 q 828 1275 822 1275 q 842 1283 833 1275 q 867 1301 851 1290 q 908 1319 882 1313 q 995 1364 967 1338 q 1033 1420 1024 1390 q 1042 1476 1042 1450 q 1033 1501 1042 1492 q 1018 1521 1025 1511 q 996 1549 1006 1539 q 967 1567 986 1558 q 892 1587 938 1576 q 803 1597 847 1597 q 764 1597 783 1597 q 724 1596 744 1597 q 635 1588 681 1594 q 628 1587 633 1588 q 618 1583 622 1586 q 610 1565 610 1576 q 608 1556 608 1560 q 606 1549 607 1553 q 601 1502 603 1525 q 599 1456 599 1479 q 610 1443 599 1443 q 636 1447 614 1443 q 672 1451 650 1450 q 722 1453 693 1453 q 797 1447 775 1453 q 818 1431 818 1442 q 808 1415 818 1421 q 778 1397 797 1408 q 752 1391 772 1394 q 725 1383 732 1388 q 684 1332 690 1358 q 678 1276 678 1306 q 684 1240 678 1254 q 711 1225 690 1225 "},"Ễ":{"ha":896,"x_min":42,"x_max":889,"o":"m 375 -6 q 449 -5 400 -6 q 558 -4 499 -4 q 665 -4 617 -4 q 737 -4 719 -4 q 764 -3 754 -4 q 863 1 818 1 q 889 31 889 1 q 886 51 889 44 q 863 161 872 121 q 847 211 853 201 q 836 221 840 221 q 777 220 810 221 q 704 218 744 219 q 631 215 678 217 q 500 214 583 214 q 501 253 500 244 q 503 268 501 263 q 504 322 504 307 q 509 340 504 336 q 528 346 514 343 q 539 347 531 347 q 576 347 547 347 q 599 346 583 346 q 667 346 615 346 q 743 347 718 346 q 781 353 768 349 q 828 381 828 356 l 828 385 l 825 522 q 793 553 819 553 l 779 553 q 656 561 708 561 l 532 561 q 511 567 517 561 q 507 590 506 572 l 510 638 q 515 653 511 650 q 524 667 519 657 q 535 682 531 682 l 607 689 l 679 694 q 759 701 724 697 q 825 704 794 704 q 840 703 838 704 q 856 715 854 703 q 857 726 856 725 q 856 742 857 739 q 850 774 853 757 q 844 821 847 790 q 839 856 840 844 q 835 872 838 867 q 803 924 824 924 q 729 929 772 926 q 628 932 686 932 l 567 932 q 463 931 524 932 q 319 929 401 931 q 252 926 293 926 q 154 925 211 925 q 119 924 138 925 q 86 922 100 924 q 51 897 51 911 q 44 755 46 836 q 42 542 42 674 q 42 470 42 494 q 42 435 42 446 q 43 418 43 425 q 44 383 44 404 q 44 336 43 363 l 47 294 q 48 260 49 275 q 49 232 47 244 l 51 174 q 55 146 53 161 q 57 108 57 131 q 61 14 61 50 q 61 11 61 14 q 72 7 65 7 l 101 0 q 119 -2 111 -1 q 135 -4 128 -3 q 156 -6 140 -6 l 375 -6 m 246 1024 l 250 1018 l 296 1018 q 335 1049 307 1018 q 358 1072 339 1053 q 403 1113 378 1090 q 444 1149 428 1135 q 490 1108 465 1128 q 539 1065 514 1089 l 575 1032 q 592 1018 582 1018 l 744 1018 q 763 1042 763 1018 l 763 1049 l 760 1057 q 742 1080 751 1068 q 724 1106 733 1092 l 697 1142 l 593 1299 l 569 1314 l 532 1317 l 510 1317 q 501 1318 504 1317 q 496 1321 499 1319 l 356 1321 l 304 1290 l 300 1279 q 268 1247 288 1265 q 240 1213 247 1226 l 204 1168 q 157 1096 193 1143 q 142 1078 149 1088 q 128 1057 135 1068 q 126 1049 126 1056 l 126 1042 q 130 1025 126 1032 q 142 1018 133 1018 l 242 1018 l 246 1024 m 544 1668 l 554 1646 l 554 1644 q 562 1620 560 1632 q 564 1600 564 1608 q 533 1575 564 1575 q 494 1600 511 1575 q 487 1612 490 1607 q 478 1619 483 1617 q 470 1627 472 1622 q 467 1636 468 1632 q 445 1665 461 1651 q 401 1683 429 1678 q 390 1687 397 1685 q 369 1694 382 1689 q 348 1701 357 1699 q 332 1704 339 1704 q 181 1663 226 1704 q 140 1601 154 1639 q 122 1526 126 1564 q 117 1463 117 1489 q 119 1454 118 1458 q 122 1447 119 1450 q 124 1438 122 1440 q 131 1421 125 1426 q 161 1403 132 1411 q 271 1397 179 1397 q 276 1397 274 1392 q 281 1419 279 1404 q 283 1440 283 1433 q 290 1475 283 1456 q 311 1494 297 1494 q 347 1486 326 1494 q 413 1429 381 1471 q 422 1419 417 1424 q 436 1410 428 1414 q 447 1402 443 1406 q 451 1397 450 1399 q 503 1374 476 1382 q 563 1365 531 1365 q 627 1374 600 1365 q 679 1397 654 1382 q 758 1485 732 1432 q 769 1510 765 1496 q 772 1542 772 1524 l 771 1583 q 765 1633 769 1611 q 750 1672 761 1654 q 742 1682 747 1678 q 732 1692 738 1686 l 579 1686 q 558 1685 571 1686 q 544 1668 544 1683 "},"Ȅ":{"ha":896,"x_min":38,"x_max":889,"o":"m 375 -6 q 449 -5 400 -6 q 558 -4 499 -4 q 665 -4 617 -4 q 737 -4 719 -4 q 764 -3 754 -4 q 863 1 818 1 q 889 31 889 1 q 886 51 889 44 q 863 161 872 121 q 847 211 853 201 q 836 221 840 221 q 777 220 810 221 q 704 218 744 219 q 631 215 678 217 q 500 214 583 214 q 501 253 500 244 q 503 268 501 263 q 504 322 504 307 q 509 340 504 336 q 528 346 514 343 q 539 347 531 347 q 576 347 547 347 q 599 346 583 346 q 667 346 615 346 q 743 347 718 346 q 781 353 768 349 q 828 381 828 356 l 828 385 l 825 522 q 793 553 819 553 l 779 553 q 656 561 708 561 l 532 561 q 511 567 517 561 q 507 590 506 572 l 510 638 q 515 653 511 650 q 524 667 519 657 q 535 682 531 682 l 607 689 l 679 694 q 759 701 724 697 q 825 704 794 704 q 840 703 838 704 q 856 715 854 703 q 857 726 856 725 q 856 742 857 739 q 850 774 853 757 q 844 821 847 790 q 839 856 840 844 q 835 872 838 867 q 803 924 824 924 q 729 929 772 926 q 628 932 686 932 l 567 932 q 463 931 524 932 q 319 929 401 931 q 252 926 293 926 q 154 925 211 925 q 119 924 138 925 q 86 922 100 924 q 51 897 51 911 q 44 755 46 836 q 42 542 42 674 q 42 470 42 494 q 42 435 42 446 q 43 418 43 425 q 44 383 44 404 q 44 336 43 363 l 47 294 q 48 260 49 275 q 49 232 47 244 l 51 174 q 55 146 53 161 q 57 108 57 131 q 61 14 61 50 q 61 11 61 14 q 72 7 65 7 l 101 0 q 119 -2 111 -1 q 135 -4 128 -3 q 156 -6 140 -6 l 375 -6 m 599 1014 l 610 1017 l 615 1013 l 640 1011 l 701 1017 q 726 1026 717 1018 q 739 1056 735 1035 q 740 1117 740 1076 q 739 1202 740 1157 q 735 1288 738 1247 q 726 1349 732 1328 l 719 1357 l 674 1365 q 644 1369 654 1368 q 627 1373 635 1371 q 603 1379 619 1375 l 592 1376 q 578 1379 589 1379 l 564 1381 l 560 1381 q 557 1380 558 1381 q 554 1379 556 1379 l 547 1378 l 510 1379 l 499 1375 q 494 1378 494 1375 l 489 1378 q 465 1374 475 1376 q 449 1371 454 1372 q 435 1356 435 1367 q 434 1351 435 1353 q 435 1346 433 1349 q 436 1340 436 1344 q 438 1333 436 1336 q 440 1326 439 1331 q 444 1315 442 1321 q 450 1294 446 1311 q 458 1263 454 1276 q 463 1252 461 1257 q 465 1243 464 1247 q 473 1222 469 1231 q 479 1207 476 1213 q 493 1163 483 1194 q 514 1096 503 1131 q 531 1040 525 1061 q 547 1017 538 1017 l 574 1017 l 599 1014 m 267 1021 l 276 1025 l 282 1021 l 385 1021 q 405 1032 400 1021 q 410 1063 410 1043 q 401 1109 410 1085 q 389 1161 392 1133 q 369 1257 379 1204 q 333 1357 360 1310 l 321 1365 l 261 1375 l 181 1379 l 171 1375 q 156 1378 165 1378 l 142 1378 q 139 1376 140 1378 q 135 1375 138 1375 l 125 1374 l 104 1371 l 94 1367 l 93 1367 q 89 1368 90 1367 l 85 1368 q 47 1357 58 1363 q 38 1343 38 1351 q 42 1331 38 1339 q 75 1271 61 1289 q 87 1252 81 1264 q 97 1232 93 1240 l 114 1197 q 123 1181 118 1189 q 133 1164 128 1172 q 157 1110 149 1129 q 173 1078 165 1092 q 193 1042 181 1064 q 215 1021 206 1021 l 267 1021 "},"Ë":{"ha":896,"x_min":42,"x_max":889,"o":"m 375 -6 q 449 -5 400 -6 q 558 -4 499 -4 q 665 -4 617 -4 q 737 -4 719 -4 q 764 -3 754 -4 q 863 1 818 1 q 889 31 889 1 q 886 51 889 44 q 863 161 872 121 q 847 211 853 201 q 836 221 840 221 q 777 220 810 221 q 704 218 744 219 q 631 215 678 217 q 500 214 583 214 q 501 253 500 244 q 503 268 501 263 q 504 322 504 307 q 509 340 504 336 q 528 346 514 343 q 539 347 531 347 q 576 347 547 347 q 599 346 583 346 q 667 346 615 346 q 743 347 718 346 q 781 353 768 349 q 828 381 828 356 l 828 385 l 825 522 q 793 553 819 553 l 779 553 q 656 561 708 561 l 532 561 q 511 567 517 561 q 507 590 506 572 l 510 638 q 515 653 511 650 q 524 667 519 657 q 535 682 531 682 l 607 689 l 679 694 q 759 701 724 697 q 825 704 794 704 q 840 703 838 704 q 856 715 854 703 q 857 726 856 725 q 856 742 857 739 q 850 774 853 757 q 844 821 847 790 q 839 856 840 844 q 835 872 838 867 q 803 924 824 924 q 729 929 772 926 q 628 932 686 932 l 567 932 q 463 931 524 932 q 319 929 401 931 q 252 926 293 926 q 154 925 211 925 q 119 924 138 925 q 86 922 100 924 q 51 897 51 911 q 44 755 46 836 q 42 542 42 674 q 42 470 42 494 q 42 435 42 446 q 43 418 43 425 q 44 383 44 404 q 44 336 43 363 l 47 294 q 48 260 49 275 q 49 232 47 244 l 51 174 q 55 146 53 161 q 57 108 57 131 q 61 14 61 50 q 61 11 61 14 q 72 7 65 7 l 101 0 q 119 -2 111 -1 q 135 -4 128 -3 q 156 -6 140 -6 l 375 -6 m 89 1042 l 365 1042 q 388 1079 388 1044 q 388 1104 388 1100 q 386 1111 388 1108 l 386 1185 q 384 1192 385 1190 q 383 1194 383 1193 q 384 1208 383 1201 q 386 1222 385 1214 l 386 1250 q 369 1285 386 1285 l 365 1285 q 361 1283 363 1285 q 356 1282 360 1282 l 346 1282 q 336 1283 339 1282 q 328 1285 335 1285 q 324 1286 326 1286 q 310 1286 321 1286 q 294 1285 304 1286 q 261 1282 283 1285 l 117 1282 q 92 1275 99 1282 q 83 1260 86 1268 q 76 1243 79 1251 l 78 1236 l 78 1232 l 74 1189 q 68 1171 68 1183 l 69 1163 l 71 1135 l 71 1094 l 81 1050 l 89 1042 m 594 1042 l 799 1042 q 821 1079 821 1043 q 820 1088 821 1083 q 818 1097 819 1092 q 817 1111 817 1099 l 817 1125 l 818 1140 l 818 1185 q 817 1190 817 1186 l 817 1194 l 818 1232 l 818 1250 q 803 1285 818 1285 l 799 1285 q 794 1283 796 1285 q 789 1282 793 1282 l 779 1282 q 768 1283 771 1282 q 761 1285 767 1285 q 757 1286 760 1286 q 742 1286 754 1286 q 728 1285 738 1286 q 694 1282 718 1285 l 550 1282 q 515 1278 531 1282 q 506 1268 510 1276 q 501 1261 503 1264 q 497 1257 499 1258 l 497 1251 q 499 1249 499 1250 q 497 1246 497 1247 q 497 1218 497 1224 q 499 1208 497 1213 l 499 1189 q 500 1178 499 1179 l 500 1171 q 504 1135 504 1157 l 504 1094 l 513 1050 l 594 1042 "},"Ė":{"ha":896,"x_min":42,"x_max":889,"o":"m 375 -6 q 449 -5 400 -6 q 558 -4 499 -4 q 665 -4 617 -4 q 737 -4 719 -4 q 764 -3 754 -4 q 863 1 818 1 q 889 31 889 1 q 886 51 889 44 q 863 161 872 121 q 847 211 853 201 q 836 221 840 221 q 777 220 810 221 q 704 218 744 219 q 631 215 678 217 q 500 214 583 214 q 501 253 500 244 q 503 268 501 263 q 504 322 504 307 q 509 340 504 336 q 528 346 514 343 q 539 347 531 347 q 576 347 547 347 q 599 346 583 346 q 667 346 615 346 q 743 347 718 346 q 781 353 768 349 q 828 381 828 356 l 828 385 l 825 522 q 793 553 819 553 l 779 553 q 656 561 708 561 l 532 561 q 511 567 517 561 q 507 590 506 572 l 510 638 q 515 653 511 650 q 524 667 519 657 q 535 682 531 682 l 607 689 l 679 694 q 759 701 724 697 q 825 704 794 704 q 840 703 838 704 q 856 715 854 703 q 857 726 856 725 q 856 742 857 739 q 850 774 853 757 q 844 821 847 790 q 839 856 840 844 q 835 872 838 867 q 803 924 824 924 q 729 929 772 926 q 628 932 686 932 l 567 932 q 463 931 524 932 q 319 929 401 931 q 252 926 293 926 q 154 925 211 925 q 119 924 138 925 q 86 922 100 924 q 51 897 51 911 q 44 755 46 836 q 42 542 42 674 q 42 470 42 494 q 42 435 42 446 q 43 418 43 425 q 44 383 44 404 q 44 336 43 363 l 47 294 q 48 260 49 275 q 49 232 47 244 l 51 174 q 55 146 53 161 q 57 108 57 131 q 61 14 61 50 q 61 11 61 14 q 72 7 65 7 l 101 0 q 119 -2 111 -1 q 135 -4 128 -3 q 156 -6 140 -6 l 375 -6 m 476 1014 l 485 1018 q 488 1021 485 1021 q 493 1019 492 1021 q 499 1018 494 1018 q 507 1016 504 1017 q 511 1015 510 1015 l 521 1018 q 526 1019 525 1018 q 532 1021 528 1021 l 564 1024 l 574 1028 l 581 1028 q 583 1025 581 1025 q 596 1026 593 1025 q 603 1028 597 1028 q 618 1049 614 1035 q 619 1054 619 1051 q 621 1058 619 1057 q 622 1062 622 1060 q 624 1065 622 1064 l 624 1243 q 622 1258 622 1247 l 622 1292 q 623 1302 622 1297 q 625 1314 624 1307 l 625 1317 q 589 1335 625 1335 q 569 1333 572 1335 l 450 1333 q 430 1331 439 1332 q 414 1331 421 1331 q 401 1331 407 1331 q 388 1332 394 1331 q 363 1333 383 1333 q 342 1335 356 1335 q 311 1335 329 1335 q 272 1314 275 1335 l 271 1274 q 269 1244 269 1257 q 268 1219 268 1231 q 263 1104 263 1181 q 263 1067 263 1086 q 265 1038 264 1049 l 275 1028 l 393 1018 q 405 1017 399 1018 q 418 1015 411 1017 q 442 1014 422 1014 l 476 1014 "},"Ẹ":{"ha":896,"x_min":42,"x_max":889,"o":"m 375 -6 q 449 -5 400 -6 q 558 -4 499 -4 q 665 -4 617 -4 q 737 -4 719 -4 q 764 -3 754 -4 q 863 1 818 1 q 889 31 889 1 q 886 51 889 44 q 863 161 872 121 q 847 211 853 201 q 836 221 840 221 q 777 220 810 221 q 704 218 744 219 q 631 215 678 217 q 500 214 583 214 q 501 253 500 244 q 503 268 501 263 q 504 322 504 307 q 509 340 504 336 q 528 346 514 343 q 539 347 531 347 q 576 347 547 347 q 599 346 583 346 q 667 346 615 346 q 743 347 718 346 q 781 353 768 349 q 828 381 828 356 l 828 385 l 825 522 q 793 553 819 553 l 779 553 q 656 561 708 561 l 532 561 q 511 567 517 561 q 507 590 506 572 l 510 638 q 515 653 511 650 q 524 667 519 657 q 535 682 531 682 l 607 689 l 679 694 q 759 701 724 697 q 825 704 794 704 q 840 703 838 704 q 856 715 854 703 q 857 726 856 725 q 856 742 857 739 q 850 774 853 757 q 844 821 847 790 q 839 856 840 844 q 835 872 838 867 q 803 924 824 924 q 729 929 772 926 q 628 932 686 932 l 567 932 q 463 931 524 932 q 319 929 401 931 q 252 926 293 926 q 154 925 211 925 q 119 924 138 925 q 86 922 100 924 q 51 897 51 911 q 44 755 46 836 q 42 542 42 674 q 42 470 42 494 q 42 435 42 446 q 43 418 43 425 q 44 383 44 404 q 44 336 43 363 l 47 294 q 48 260 49 275 q 49 232 47 244 l 51 174 q 55 146 53 161 q 57 108 57 131 q 61 14 61 50 q 61 11 61 14 q 72 7 65 7 l 101 0 q 119 -2 111 -1 q 135 -4 128 -3 q 156 -6 140 -6 l 375 -6 m 474 -412 l 481 -410 q 483 -407 481 -407 q 489 -408 488 -407 q 490 -409 489 -408 q 493 -410 492 -410 q 501 -410 499 -410 q 504 -411 503 -411 l 514 -410 q 517 -409 517 -410 q 518 -408 517 -408 q 524 -407 519 -407 l 551 -404 l 561 -400 l 567 -400 q 569 -403 567 -403 q 581 -401 578 -403 q 583 -401 582 -401 q 588 -400 585 -400 q 601 -382 599 -392 q 603 -372 601 -375 q 606 -367 603 -372 l 606 -207 q 604 -193 604 -203 l 604 -162 q 605 -154 604 -158 q 607 -143 606 -150 l 607 -140 q 575 -124 607 -124 q 563 -124 565 -124 q 557 -125 560 -125 l 450 -125 q 432 -127 440 -126 q 417 -128 424 -128 q 406 -128 411 -128 q 393 -126 400 -128 q 371 -125 389 -125 q 353 -124 365 -124 q 325 -124 340 -124 q 289 -143 292 -124 l 289 -179 q 287 -206 288 -193 q 286 -228 286 -218 q 281 -332 281 -262 q 281 -365 281 -349 q 283 -392 282 -381 l 292 -400 l 399 -410 q 409 -410 403 -410 q 421 -411 415 -410 q 442 -412 425 -412 l 474 -412 "},"È":{"ha":896,"x_min":42,"x_max":889,"o":"m 375 -6 q 449 -5 400 -6 q 558 -4 499 -4 q 665 -4 617 -4 q 737 -4 719 -4 q 764 -3 754 -4 q 863 1 818 1 q 889 31 889 1 q 886 51 889 44 q 863 161 872 121 q 847 211 853 201 q 836 221 840 221 q 777 220 810 221 q 704 218 744 219 q 631 215 678 217 q 500 214 583 214 q 501 253 500 244 q 503 268 501 263 q 504 322 504 307 q 509 340 504 336 q 528 346 514 343 q 539 347 531 347 q 576 347 547 347 q 599 346 583 346 q 667 346 615 346 q 743 347 718 346 q 781 353 768 349 q 828 381 828 356 l 828 385 l 825 522 q 793 553 819 553 l 779 553 q 656 561 708 561 l 532 561 q 511 567 517 561 q 507 590 506 572 l 510 638 q 515 653 511 650 q 524 667 519 657 q 535 682 531 682 l 607 689 l 679 694 q 759 701 724 697 q 825 704 794 704 q 840 703 838 704 q 856 715 854 703 q 857 726 856 725 q 856 742 857 739 q 850 774 853 757 q 844 821 847 790 q 839 856 840 844 q 835 872 838 867 q 803 924 824 924 q 729 929 772 926 q 628 932 686 932 l 567 932 q 463 931 524 932 q 319 929 401 931 q 252 926 293 926 q 154 925 211 925 q 119 924 138 925 q 86 922 100 924 q 51 897 51 911 q 44 755 46 836 q 42 542 42 674 q 42 470 42 494 q 42 435 42 446 q 43 418 43 425 q 44 383 44 404 q 44 336 43 363 l 47 294 q 48 260 49 275 q 49 232 47 244 l 51 174 q 55 146 53 161 q 57 108 57 131 q 61 14 61 50 q 61 11 61 14 q 72 7 65 7 l 101 0 q 119 -2 111 -1 q 135 -4 128 -3 q 156 -6 140 -6 l 375 -6 m 432 1018 l 443 1022 l 447 1018 l 563 1018 q 589 1060 589 1018 q 584 1102 589 1083 q 578 1132 579 1121 q 547 1238 561 1189 q 519 1335 533 1286 l 508 1343 l 449 1353 l 367 1357 l 358 1353 q 344 1356 353 1356 l 331 1356 q 326 1354 328 1356 q 321 1353 325 1353 l 313 1351 l 254 1349 l 243 1344 q 240 1346 240 1344 l 233 1346 q 196 1335 204 1340 q 188 1322 188 1331 q 192 1308 188 1317 q 197 1299 193 1306 q 206 1282 200 1292 q 219 1258 208 1276 q 247 1210 229 1240 q 260 1189 254 1197 q 268 1175 265 1181 l 286 1142 q 323 1091 311 1108 q 342 1063 335 1074 q 357 1039 349 1053 q 370 1022 365 1026 q 381 1018 375 1018 l 432 1018 "},"Ẻ":{"ha":896,"x_min":42,"x_max":889,"o":"m 375 -6 q 449 -5 400 -6 q 558 -4 499 -4 q 665 -4 617 -4 q 737 -4 719 -4 q 764 -3 754 -4 q 863 1 818 1 q 889 31 889 1 q 886 51 889 44 q 863 161 872 121 q 847 211 853 201 q 836 221 840 221 q 777 220 810 221 q 704 218 744 219 q 631 215 678 217 q 500 214 583 214 q 501 253 500 244 q 503 268 501 263 q 504 322 504 307 q 509 340 504 336 q 528 346 514 343 q 539 347 531 347 q 576 347 547 347 q 599 346 583 346 q 667 346 615 346 q 743 347 718 346 q 781 353 768 349 q 828 381 828 356 l 828 385 l 825 522 q 793 553 819 553 l 779 553 q 656 561 708 561 l 532 561 q 511 567 517 561 q 507 590 506 572 l 510 638 q 515 653 511 650 q 524 667 519 657 q 535 682 531 682 l 607 689 l 679 694 q 759 701 724 697 q 825 704 794 704 q 840 703 838 704 q 856 715 854 703 q 857 726 856 725 q 856 742 857 739 q 850 774 853 757 q 844 821 847 790 q 839 856 840 844 q 835 872 838 867 q 803 924 824 924 q 729 929 772 926 q 628 932 686 932 l 567 932 q 463 931 524 932 q 319 929 401 931 q 252 926 293 926 q 154 925 211 925 q 119 924 138 925 q 86 922 100 924 q 51 897 51 911 q 44 755 46 836 q 42 542 42 674 q 42 470 42 494 q 42 435 42 446 q 43 418 43 425 q 44 383 44 404 q 44 336 43 363 l 47 294 q 48 260 49 275 q 49 232 47 244 l 51 174 q 55 146 53 161 q 57 108 57 131 q 61 14 61 50 q 61 11 61 14 q 72 7 65 7 l 101 0 q 119 -2 111 -1 q 135 -4 128 -3 q 156 -6 140 -6 l 375 -6 m 360 1035 q 399 1035 382 1035 q 425 1036 417 1035 l 458 1036 l 472 1035 l 483 1035 q 499 1058 499 1035 l 500 1107 q 507 1103 500 1103 q 525 1117 514 1104 q 556 1140 538 1125 q 608 1167 575 1156 q 719 1227 683 1190 q 767 1305 756 1264 q 779 1383 779 1346 q 769 1417 779 1404 q 747 1444 758 1431 q 721 1483 732 1469 q 683 1508 710 1497 q 589 1538 646 1522 q 475 1553 532 1553 q 426 1551 451 1553 q 375 1550 401 1550 q 321 1545 349 1549 q 264 1539 293 1542 q 256 1538 264 1539 q 243 1532 249 1538 q 232 1507 232 1524 q 230 1494 231 1500 q 226 1483 229 1489 q 218 1356 218 1418 q 232 1336 218 1336 q 242 1338 233 1336 q 265 1343 251 1340 q 310 1349 283 1346 q 374 1351 338 1351 q 469 1343 442 1351 q 496 1319 496 1335 q 483 1299 496 1307 q 446 1274 471 1290 q 412 1265 438 1269 q 379 1256 386 1260 q 326 1183 333 1219 q 318 1107 318 1147 q 326 1054 318 1074 q 360 1035 333 1035 "},"Ȇ":{"ha":896,"x_min":42,"x_max":889,"o":"m 375 -6 q 449 -5 400 -6 q 558 -4 499 -4 q 665 -4 617 -4 q 737 -4 719 -4 q 764 -3 754 -4 q 863 1 818 1 q 889 31 889 1 q 886 51 889 44 q 863 161 872 121 q 847 211 853 201 q 836 221 840 221 q 777 220 810 221 q 704 218 744 219 q 631 215 678 217 q 500 214 583 214 q 501 253 500 244 q 503 268 501 263 q 504 322 504 307 q 509 340 504 336 q 528 346 514 343 q 539 347 531 347 q 576 347 547 347 q 599 346 583 346 q 667 346 615 346 q 743 347 718 346 q 781 353 768 349 q 828 381 828 356 l 828 385 l 825 522 q 793 553 819 553 l 779 553 q 656 561 708 561 l 532 561 q 511 567 517 561 q 507 590 506 572 l 510 638 q 515 653 511 650 q 524 667 519 657 q 535 682 531 682 l 607 689 l 679 694 q 759 701 724 697 q 825 704 794 704 q 840 703 838 704 q 856 715 854 703 q 857 726 856 725 q 856 742 857 739 q 850 774 853 757 q 844 821 847 790 q 839 856 840 844 q 835 872 838 867 q 803 924 824 924 q 729 929 772 926 q 628 932 686 932 l 567 932 q 463 931 524 932 q 319 929 401 931 q 252 926 293 926 q 154 925 211 925 q 119 924 138 925 q 86 922 100 924 q 51 897 51 911 q 44 755 46 836 q 42 542 42 674 q 42 470 42 494 q 42 435 42 446 q 43 418 43 425 q 44 383 44 404 q 44 336 43 363 l 47 294 q 48 260 49 275 q 49 232 47 244 l 51 174 q 55 146 53 161 q 57 108 57 131 q 61 14 61 50 q 61 11 61 14 q 72 7 65 7 l 101 0 q 119 -2 111 -1 q 135 -4 128 -3 q 156 -6 140 -6 l 375 -6 m 463 1375 q 213 1289 286 1375 q 149 1197 169 1239 q 129 1111 129 1154 q 126 1063 129 1085 q 131 1024 122 1040 q 136 1019 133 1019 l 331 1013 q 339 1021 339 1013 q 338 1054 338 1038 q 339 1089 339 1071 q 367 1160 339 1131 q 435 1190 396 1190 q 506 1178 474 1190 q 544 1147 538 1165 q 546 1144 546 1146 q 547 1142 546 1143 l 549 1140 l 550 1114 q 546 1038 550 1083 q 548 1029 544 1033 q 557 1025 551 1025 l 740 1024 q 753 1033 750 1024 q 761 1081 758 1057 q 764 1132 764 1106 q 671 1306 764 1236 q 463 1375 578 1375 "},"Ē":{"ha":896,"x_min":42,"x_max":889,"o":"m 375 -6 q 449 -5 400 -6 q 558 -4 499 -4 q 665 -4 617 -4 q 737 -4 719 -4 q 764 -3 754 -4 q 863 1 818 1 q 889 31 889 1 q 886 51 889 44 q 863 161 872 121 q 847 211 853 201 q 836 221 840 221 q 777 220 810 221 q 704 218 744 219 q 631 215 678 217 q 500 214 583 214 q 501 253 500 244 q 503 268 501 263 q 504 322 504 307 q 509 340 504 336 q 528 346 514 343 q 539 347 531 347 q 576 347 547 347 q 599 346 583 346 q 667 346 615 346 q 743 347 718 346 q 781 353 768 349 q 828 381 828 356 l 828 385 l 825 522 q 793 553 819 553 l 779 553 q 656 561 708 561 l 532 561 q 511 567 517 561 q 507 590 506 572 l 510 638 q 515 653 511 650 q 524 667 519 657 q 535 682 531 682 l 607 689 l 679 694 q 759 701 724 697 q 825 704 794 704 q 840 703 838 704 q 856 715 854 703 q 857 726 856 725 q 856 742 857 739 q 850 774 853 757 q 844 821 847 790 q 839 856 840 844 q 835 872 838 867 q 803 924 824 924 q 729 929 772 926 q 628 932 686 932 l 567 932 q 463 931 524 932 q 319 929 401 931 q 252 926 293 926 q 154 925 211 925 q 119 924 138 925 q 86 922 100 924 q 51 897 51 911 q 44 755 46 836 q 42 542 42 674 q 42 470 42 494 q 42 435 42 446 q 43 418 43 425 q 44 383 44 404 q 44 336 43 363 l 47 294 q 48 260 49 275 q 49 232 47 244 l 51 174 q 55 146 53 161 q 57 108 57 131 q 61 14 61 50 q 61 11 61 14 q 72 7 65 7 l 101 0 q 119 -2 111 -1 q 135 -4 128 -3 q 156 -6 140 -6 l 375 -6 m 703 1035 q 731 1063 726 1035 q 736 1111 736 1079 l 736 1143 q 735 1161 735 1151 q 735 1181 735 1171 l 735 1194 q 735 1204 735 1199 q 733 1217 735 1210 q 732 1232 732 1224 q 732 1250 732 1240 q 708 1278 732 1271 q 656 1285 683 1285 l 624 1285 q 578 1285 610 1285 q 499 1288 547 1286 l 443 1289 q 397 1291 415 1290 q 369 1292 379 1292 l 186 1292 q 171 1286 178 1292 q 163 1279 164 1281 q 151 1257 151 1271 q 151 1227 151 1239 q 153 1208 151 1215 l 153 1076 q 163 1056 153 1061 q 221 1042 176 1042 l 443 1042 q 463 1041 454 1042 q 478 1039 471 1040 q 496 1039 485 1036 l 540 1039 l 554 1038 l 589 1038 l 619 1036 q 640 1036 631 1036 q 656 1035 649 1036 l 703 1035 "},"Ę":{"ha":896,"x_min":42,"x_max":890,"o":"m 375 -6 q 449 -5 400 -6 q 558 -4 499 -4 q 665 -4 617 -4 q 737 -4 719 -4 q 764 -3 754 -4 q 863 1 818 1 q 889 31 889 1 q 886 51 889 44 q 863 161 872 121 q 847 211 853 201 q 836 221 840 221 q 777 220 810 221 q 704 218 744 219 q 631 215 678 217 q 500 214 583 214 q 501 253 500 244 q 503 268 501 263 q 504 322 504 307 q 509 340 504 336 q 528 346 514 343 q 539 347 531 347 q 576 347 547 347 q 599 346 583 346 q 667 346 615 346 q 743 347 718 346 q 781 353 768 349 q 828 381 828 356 l 828 385 l 825 522 q 793 553 819 553 l 779 553 q 656 561 708 561 l 532 561 q 511 567 517 561 q 507 590 506 572 l 510 638 q 515 653 511 650 q 524 667 519 657 q 535 682 531 682 l 607 689 l 679 694 q 759 701 724 697 q 825 704 794 704 q 840 703 838 704 q 856 715 854 703 q 857 726 856 725 q 856 742 857 739 q 850 774 853 757 q 844 821 847 790 q 839 856 840 844 q 835 872 838 867 q 803 924 824 924 q 729 929 772 926 q 628 932 686 932 l 567 932 q 463 931 524 932 q 319 929 401 931 q 252 926 293 926 q 154 925 211 925 q 119 924 138 925 q 86 922 100 924 q 51 897 51 911 q 44 755 46 836 q 42 542 42 674 q 42 470 42 494 q 42 435 42 446 q 43 418 43 425 q 44 383 44 404 q 44 336 43 363 l 47 294 q 48 260 49 275 q 49 232 47 244 l 51 174 q 55 146 53 161 q 57 108 57 131 q 61 14 61 50 q 61 11 61 14 q 72 7 65 7 l 101 0 q 119 -2 111 -1 q 135 -4 128 -3 q 156 -6 140 -6 l 375 -6 m 738 -394 q 749 -393 740 -393 q 756 -392 751 -393 q 765 -390 760 -392 q 793 -384 776 -389 q 831 -372 810 -379 q 855 -359 844 -365 q 867 -347 865 -353 l 890 -233 l 890 -226 q 881 -212 890 -217 q 760 -236 814 -236 q 744 -236 750 -236 q 732 -237 738 -236 q 715 -237 724 -240 q 703 -233 706 -235 q 679 -219 688 -229 q 671 -189 671 -210 q 689 -139 671 -171 q 753 -60 717 -90 l 811 0 q 710 4 774 4 l 678 6 l 651 6 q 649 3 650 6 q 647 1 649 1 q 643 0 646 0 l 532 -36 q 523 -41 529 -37 q 510 -49 517 -44 q 495 -58 501 -54 q 483 -68 489 -62 q 406 -142 425 -107 q 386 -240 386 -178 q 393 -285 386 -264 q 492 -365 417 -339 q 724 -397 575 -397 l 738 -394 "},"Ẽ":{"ha":896,"x_min":42,"x_max":889,"o":"m 375 -6 q 449 -5 400 -6 q 558 -4 499 -4 q 665 -4 617 -4 q 737 -4 719 -4 q 764 -3 754 -4 q 863 1 818 1 q 889 31 889 1 q 886 51 889 44 q 863 161 872 121 q 847 211 853 201 q 836 221 840 221 q 777 220 810 221 q 704 218 744 219 q 631 215 678 217 q 500 214 583 214 q 501 253 500 244 q 503 268 501 263 q 504 322 504 307 q 509 340 504 336 q 528 346 514 343 q 539 347 531 347 q 576 347 547 347 q 599 346 583 346 q 667 346 615 346 q 743 347 718 346 q 781 353 768 349 q 828 381 828 356 l 828 385 l 825 522 q 793 553 819 553 l 779 553 q 656 561 708 561 l 532 561 q 511 567 517 561 q 507 590 506 572 l 510 638 q 515 653 511 650 q 524 667 519 657 q 535 682 531 682 l 607 689 l 679 694 q 759 701 724 697 q 825 704 794 704 q 840 703 838 704 q 856 715 854 703 q 857 726 856 725 q 856 742 857 739 q 850 774 853 757 q 844 821 847 790 q 839 856 840 844 q 835 872 838 867 q 803 924 824 924 q 729 929 772 926 q 628 932 686 932 l 567 932 q 463 931 524 932 q 319 929 401 931 q 252 926 293 926 q 154 925 211 925 q 119 924 138 925 q 86 922 100 924 q 51 897 51 911 q 44 755 46 836 q 42 542 42 674 q 42 470 42 494 q 42 435 42 446 q 43 418 43 425 q 44 383 44 404 q 44 336 43 363 l 47 294 q 48 260 49 275 q 49 232 47 244 l 51 174 q 55 146 53 161 q 57 108 57 131 q 61 14 61 50 q 61 11 61 14 q 72 7 65 7 l 101 0 q 119 -2 111 -1 q 135 -4 128 -3 q 156 -6 140 -6 l 375 -6 m 544 1311 l 554 1289 l 554 1288 q 562 1263 560 1275 q 564 1243 564 1251 q 533 1218 564 1218 q 494 1243 511 1218 q 487 1255 490 1250 q 478 1263 483 1260 q 470 1270 472 1265 q 467 1279 468 1275 q 445 1308 461 1294 q 401 1326 429 1321 q 390 1330 397 1328 q 369 1338 382 1332 q 348 1344 357 1342 q 332 1347 339 1347 q 181 1306 226 1347 q 140 1244 154 1282 q 122 1169 126 1207 q 117 1106 117 1132 q 119 1097 118 1101 q 122 1090 119 1093 q 124 1081 122 1083 q 131 1064 125 1069 q 161 1046 132 1054 q 271 1040 179 1040 q 276 1040 274 1035 q 281 1062 279 1047 q 283 1083 283 1076 q 290 1118 283 1099 q 311 1138 297 1138 q 347 1129 326 1138 q 413 1072 381 1114 q 422 1062 417 1067 q 436 1053 428 1057 q 447 1045 443 1049 q 451 1040 450 1042 q 503 1017 476 1025 q 563 1008 531 1008 q 627 1017 600 1008 q 679 1040 654 1025 q 758 1128 732 1075 q 769 1153 765 1139 q 772 1185 772 1167 l 771 1226 q 765 1276 769 1254 q 750 1315 761 1297 q 742 1325 747 1321 q 732 1335 738 1329 l 579 1329 q 558 1328 571 1329 q 544 1311 544 1326 "},"Ə":{"ha":1193,"x_min":64,"x_max":1131,"o":"m 686 -33 l 796 -19 q 886 6 843 -12 q 968 58 929 25 q 1088 222 1046 124 q 1131 424 1131 319 l 1129 539 q 1081 729 1129 640 q 945 872 1031 817 q 757 939 860 928 l 631 953 l 446 956 q 344 951 404 957 q 228 936 285 944 q 132 918 171 928 l 108 886 l 108 685 l 131 660 l 167 667 q 258 683 218 676 q 328 692 299 690 l 428 699 l 457 699 q 481 694 472 696 q 496 692 490 693 q 528 686 500 690 q 552 680 540 683 q 574 671 564 676 q 627 638 610 657 q 650 592 644 619 l 657 536 l 658 493 l 601 490 l 432 488 l 90 490 l 64 463 l 64 326 q 118 149 64 228 q 272 21 171 68 q 511 -29 374 -26 l 686 -33 m 597 101 q 550 174 564 101 q 533 325 535 251 l 664 335 q 662 300 664 318 q 657 263 660 282 l 649 214 l 640 163 q 624 119 635 138 q 597 101 614 101 "},"F":{"ha":808,"x_min":42,"x_max":794,"o":"m 126 -12 l 210 -3 l 222 1 q 228 3 226 1 l 338 -11 q 349 -6 343 -6 q 353 -7 353 -6 l 357 -8 q 363 -10 361 -8 q 371 -11 364 -11 l 385 -11 q 394 -9 388 -10 q 413 -8 401 -8 q 453 -6 436 -7 q 483 -6 471 -6 q 492 32 489 10 q 496 85 494 54 q 497 149 496 108 q 499 250 499 190 q 506 260 501 257 q 511 264 510 263 q 539 269 517 269 l 557 269 l 583 274 q 611 276 592 276 l 638 276 l 694 279 q 705 281 700 281 q 715 282 710 282 q 736 303 731 282 l 736 415 q 731 494 736 479 q 694 514 724 514 l 536 514 q 531 526 531 519 l 532 529 q 534 593 532 558 q 538 656 536 628 q 540 689 540 683 q 542 696 540 694 q 543 701 543 697 q 547 703 546 701 q 553 706 547 703 q 585 704 554 704 q 626 708 614 704 l 665 710 l 744 710 q 775 711 760 710 q 790 726 790 713 q 791 767 790 750 q 792 794 792 783 q 793 822 792 807 q 794 840 794 836 q 794 853 794 846 q 792 865 793 860 q 760 922 789 922 q 750 918 756 918 q 737 919 743 918 q 725 921 731 919 q 708 922 721 922 q 660 923 679 922 q 628 925 640 924 l 492 925 q 465 926 482 926 q 428 926 449 926 l 390 926 q 367 928 372 926 l 353 928 q 276 927 318 928 q 185 925 233 926 q 117 922 146 924 q 64 921 88 921 l 60 922 l 51 922 q 42 907 42 921 l 42 449 q 46 413 43 439 q 49 363 49 386 q 53 295 51 338 q 58 192 56 253 q 60 144 58 171 q 63 93 61 117 l 63 64 q 65 34 63 53 q 76 1 67 15 q 103 -14 85 -14 l 126 -12 "},"G":{"ha":1054,"x_min":28,"x_max":1019,"o":"m 1018 464 q 1012 490 1018 481 q 988 501 1006 499 q 970 503 982 503 q 939 503 958 503 q 909 501 931 501 q 856 501 888 501 l 711 501 q 686 503 690 501 q 672 499 676 503 q 668 481 668 494 l 668 447 q 668 382 668 418 q 669 331 668 346 l 671 304 q 673 274 672 283 q 674 254 674 265 q 646 228 651 236 q 624 221 640 221 q 567 235 594 221 q 524 271 539 249 q 499 336 508 292 q 489 475 489 381 q 538 637 489 594 q 671 679 586 679 q 672 680 672 679 q 674 681 672 681 q 722 681 701 683 q 764 678 742 678 l 783 678 l 936 650 q 967 736 967 674 q 965 774 967 753 q 960 826 963 794 q 958 849 958 838 q 957 869 957 860 l 954 894 l 951 894 q 940 903 947 894 q 935 910 936 907 l 931 913 q 903 916 921 913 q 863 924 886 919 l 821 931 q 788 935 799 935 q 685 947 728 943 q 611 950 643 950 q 370 918 485 950 q 186 828 256 886 q 70 678 113 765 q 28 481 28 592 q 92 171 28 286 q 251 14 157 56 q 342 -21 294 -8 q 444 -33 390 -33 q 606 3 544 -33 q 682 104 668 40 q 684 78 683 90 q 686 58 685 65 q 699 4 690 29 q 708 -4 701 -4 q 719 -3 718 -4 l 894 -3 q 896 0 894 -1 l 901 0 q 904 -3 901 0 q 918 -3 904 -3 l 947 -3 q 972 -1 957 -1 q 1003 0 986 0 q 1013 57 1010 15 q 1015 183 1015 99 l 1015 189 q 1017 202 1015 196 q 1019 214 1018 208 l 1019 453 q 1018 464 1018 456 "},"Ğ":{"ha":1054,"x_min":28,"x_max":1019,"o":"m 1018 464 q 1012 490 1018 481 q 988 501 1006 499 q 970 503 982 503 q 939 503 958 503 q 909 501 931 501 q 856 501 888 501 l 711 501 q 686 503 690 501 q 672 499 676 503 q 668 481 668 494 l 668 447 q 668 382 668 418 q 669 331 668 346 l 671 304 q 673 274 672 283 q 674 254 674 265 q 646 228 651 236 q 624 221 640 221 q 567 235 594 221 q 524 271 539 249 q 499 336 508 292 q 489 475 489 381 q 538 637 489 594 q 671 679 586 679 q 672 680 672 679 q 674 681 672 681 q 722 681 701 683 q 764 678 742 678 l 783 678 l 936 650 q 967 736 967 674 q 965 774 967 753 q 960 826 963 794 q 958 849 958 838 q 957 869 957 860 l 954 894 l 951 894 q 940 903 947 894 q 935 910 936 907 l 931 913 q 903 916 921 913 q 863 924 886 919 l 821 931 q 788 935 799 935 q 685 947 728 943 q 611 950 643 950 q 370 918 485 950 q 186 828 256 886 q 70 678 113 765 q 28 481 28 592 q 92 171 28 286 q 251 14 157 56 q 342 -21 294 -8 q 444 -33 390 -33 q 606 3 544 -33 q 682 104 668 40 q 684 78 683 90 q 686 58 685 65 q 699 4 690 29 q 708 -4 701 -4 q 719 -3 718 -4 l 894 -3 q 896 0 894 -1 l 901 0 q 904 -3 901 0 q 918 -3 904 -3 l 947 -3 q 972 -1 957 -1 q 1003 0 986 0 q 1013 57 1010 15 q 1015 183 1015 99 l 1015 189 q 1017 202 1015 196 q 1019 214 1018 208 l 1019 453 q 1018 464 1018 456 m 558 1013 q 703 1031 640 1013 q 808 1099 765 1050 q 892 1276 892 1194 q 895 1325 892 1303 q 890 1364 899 1347 q 885 1368 889 1368 l 690 1375 q 682 1367 682 1375 q 683 1333 683 1350 q 682 1299 682 1317 q 653 1226 682 1256 q 586 1197 624 1197 q 516 1210 549 1197 q 476 1240 483 1222 q 475 1243 475 1242 q 474 1246 475 1244 l 472 1247 l 471 1274 q 475 1350 471 1308 q 472 1359 476 1356 q 464 1363 468 1363 l 281 1364 q 268 1354 271 1364 q 260 1306 263 1331 q 257 1256 257 1282 q 282 1159 257 1204 q 350 1082 307 1114 q 448 1032 393 1051 q 558 1013 503 1013 "},"Ǧ":{"ha":1054,"x_min":28,"x_max":1019,"o":"m 1018 464 q 1012 490 1018 481 q 988 501 1006 499 q 970 503 982 503 q 939 503 958 503 q 909 501 931 501 q 856 501 888 501 l 711 501 q 686 503 690 501 q 672 499 676 503 q 668 481 668 494 l 668 447 q 668 382 668 418 q 669 331 668 346 l 671 304 q 673 274 672 283 q 674 254 674 265 q 646 228 651 236 q 624 221 640 221 q 567 235 594 221 q 524 271 539 249 q 499 336 508 292 q 489 475 489 381 q 538 637 489 594 q 671 679 586 679 q 672 680 672 679 q 674 681 672 681 q 722 681 701 683 q 764 678 742 678 l 783 678 l 936 650 q 967 736 967 674 q 965 774 967 753 q 960 826 963 794 q 958 849 958 838 q 957 869 957 860 l 954 894 l 951 894 q 940 903 947 894 q 935 910 936 907 l 931 913 q 903 916 921 913 q 863 924 886 919 l 821 931 q 788 935 799 935 q 685 947 728 943 q 611 950 643 950 q 370 918 485 950 q 186 828 256 886 q 70 678 113 765 q 28 481 28 592 q 92 171 28 286 q 251 14 157 56 q 342 -21 294 -8 q 444 -33 390 -33 q 606 3 544 -33 q 682 104 668 40 q 684 78 683 90 q 686 58 685 65 q 699 4 690 29 q 708 -4 701 -4 q 719 -3 718 -4 l 894 -3 q 896 0 894 -1 l 901 0 q 904 -3 901 0 q 918 -3 904 -3 l 947 -3 q 972 -1 957 -1 q 1003 0 986 0 q 1013 57 1010 15 q 1015 183 1015 99 l 1015 189 q 1017 202 1015 196 q 1019 214 1018 208 l 1019 453 q 1018 464 1018 456 m 324 1335 l 289 1335 q 275 1317 275 1335 l 275 1308 q 290 1272 279 1292 q 317 1224 300 1251 q 327 1208 322 1218 q 342 1185 332 1197 l 365 1142 l 399 1092 q 413 1074 404 1086 q 433 1043 421 1061 l 442 1038 l 492 1028 l 660 1028 l 692 1031 l 717 1043 l 764 1106 q 815 1182 796 1149 q 846 1238 835 1215 q 864 1274 857 1257 q 875 1308 871 1292 l 876 1313 l 876 1317 q 860 1335 876 1335 l 715 1335 q 700 1325 710 1335 q 678 1302 689 1314 q 658 1278 667 1290 q 647 1267 651 1272 q 639 1257 643 1263 q 609 1224 625 1240 q 574 1188 593 1208 q 542 1235 554 1215 q 519 1263 529 1254 l 504 1276 q 463 1317 479 1300 q 436 1335 446 1335 l 393 1335 l 389 1332 l 385 1335 l 350 1335 q 340 1332 344 1335 q 333 1333 339 1332 q 324 1335 328 1333 "},"Ĝ":{"ha":1054,"x_min":28,"x_max":1019,"o":"m 1018 464 q 1012 490 1018 481 q 988 501 1006 499 q 970 503 982 503 q 939 503 958 503 q 909 501 931 501 q 856 501 888 501 l 711 501 q 686 503 690 501 q 672 499 676 503 q 668 481 668 494 l 668 447 q 668 382 668 418 q 669 331 668 346 l 671 304 q 673 274 672 283 q 674 254 674 265 q 646 228 651 236 q 624 221 640 221 q 567 235 594 221 q 524 271 539 249 q 499 336 508 292 q 489 475 489 381 q 538 637 489 594 q 671 679 586 679 q 672 680 672 679 q 674 681 672 681 q 722 681 701 683 q 764 678 742 678 l 783 678 l 936 650 q 967 736 967 674 q 965 774 967 753 q 960 826 963 794 q 958 849 958 838 q 957 869 957 860 l 954 894 l 951 894 q 940 903 947 894 q 935 910 936 907 l 931 913 q 903 916 921 913 q 863 924 886 919 l 821 931 q 788 935 799 935 q 685 947 728 943 q 611 950 643 950 q 370 918 485 950 q 186 828 256 886 q 70 678 113 765 q 28 481 28 592 q 92 171 28 286 q 251 14 157 56 q 342 -21 294 -8 q 444 -33 390 -33 q 606 3 544 -33 q 682 104 668 40 q 684 78 683 90 q 686 58 685 65 q 699 4 690 29 q 708 -4 701 -4 q 719 -3 718 -4 l 894 -3 q 896 0 894 -1 l 901 0 q 904 -3 901 0 q 918 -3 904 -3 l 947 -3 q 972 -1 957 -1 q 1003 0 986 0 q 1013 57 1010 15 q 1015 183 1015 99 l 1015 189 q 1017 202 1015 196 q 1019 214 1018 208 l 1019 453 q 1018 464 1018 456 m 347 1013 q 363 1014 350 1014 q 372 1013 367 1013 l 403 1013 l 407 1014 l 411 1013 l 450 1013 q 473 1033 458 1013 q 511 1076 488 1053 l 525 1090 q 546 1121 535 1100 q 575 1174 557 1142 q 606 1132 592 1151 q 633 1096 619 1113 q 642 1085 638 1090 q 651 1074 646 1081 q 664 1053 657 1064 q 689 1022 671 1043 q 703 1013 696 1013 l 833 1013 q 849 1031 849 1013 l 849 1036 l 847 1040 q 821 1118 842 1071 q 747 1263 789 1193 l 704 1331 l 682 1344 l 653 1347 l 500 1347 l 454 1338 l 447 1331 q 428 1299 436 1313 q 415 1278 421 1285 l 386 1224 l 364 1176 q 351 1151 356 1163 q 342 1133 346 1140 q 304 1040 310 1072 l 304 1031 q 317 1013 304 1013 l 347 1013 "},"Ģ":{"ha":1054,"x_min":28,"x_max":1019,"o":"m 1018 464 q 1012 490 1018 481 q 988 501 1006 499 q 970 503 982 503 q 939 503 958 503 q 909 501 931 501 q 856 501 888 501 l 711 501 q 686 503 690 501 q 672 499 676 503 q 668 481 668 494 l 668 447 q 668 382 668 418 q 669 331 668 346 l 671 304 q 673 274 672 283 q 674 254 674 265 q 646 228 651 236 q 624 221 640 221 q 567 235 594 221 q 524 271 539 249 q 499 336 508 292 q 489 475 489 381 q 538 637 489 594 q 671 679 586 679 q 672 680 672 679 q 674 681 672 681 q 722 681 701 683 q 764 678 742 678 l 783 678 l 936 650 q 967 736 967 674 q 965 774 967 753 q 960 826 963 794 q 958 849 958 838 q 957 869 957 860 l 954 894 l 951 894 q 940 903 947 894 q 935 910 936 907 l 931 913 q 903 916 921 913 q 863 924 886 919 l 821 931 q 788 935 799 935 q 685 947 728 943 q 611 950 643 950 q 370 918 485 950 q 186 828 256 886 q 70 678 113 765 q 28 481 28 592 q 92 171 28 286 q 251 14 157 56 q 342 -21 294 -8 q 444 -33 390 -33 q 606 3 544 -33 q 682 104 668 40 q 684 78 683 90 q 686 58 685 65 q 699 4 690 29 q 708 -4 701 -4 q 719 -3 718 -4 l 894 -3 q 896 0 894 -1 l 901 0 q 904 -3 901 0 q 918 -3 904 -3 l 947 -3 q 972 -1 957 -1 q 1003 0 986 0 q 1013 57 1010 15 q 1015 183 1015 99 l 1015 189 q 1017 202 1015 196 q 1019 214 1018 208 l 1019 453 q 1018 464 1018 456 m 492 -528 q 635 -503 560 -528 q 744 -442 713 -479 q 783 -340 775 -404 q 785 -315 785 -333 q 783 -292 785 -307 q 779 -257 782 -278 q 778 -246 779 -251 q 776 -235 778 -240 q 772 -205 774 -222 q 769 -182 769 -187 q 768 -171 769 -172 q 767 -167 767 -169 q 766 -156 767 -160 q 760 -147 765 -153 q 749 -142 758 -144 q 735 -139 739 -140 l 732 -139 q 729 -140 731 -139 q 726 -142 728 -142 q 687 -136 713 -139 q 640 -133 661 -133 q 632 -136 635 -133 q 608 -133 611 -136 l 596 -131 l 540 -131 q 519 -132 532 -131 q 488 -136 507 -133 l 429 -142 l 422 -147 q 424 -183 424 -158 q 425 -235 425 -208 q 428 -272 426 -249 q 432 -322 429 -294 q 436 -326 433 -324 q 442 -329 439 -328 q 465 -333 457 -333 q 528 -337 493 -337 q 556 -340 544 -337 q 565 -339 563 -340 q 576 -343 576 -339 q 576 -347 576 -344 q 575 -353 575 -349 q 567 -365 572 -358 q 556 -381 563 -372 q 460 -421 526 -410 q 460 -427 460 -422 q 461 -439 460 -432 q 465 -471 461 -451 q 478 -504 468 -490 q 485 -517 482 -511 q 492 -528 489 -524 "},"Ġ":{"ha":1054,"x_min":28,"x_max":1019,"o":"m 1018 464 q 1012 490 1018 481 q 988 501 1006 499 q 970 503 982 503 q 939 503 958 503 q 909 501 931 501 q 856 501 888 501 l 711 501 q 686 503 690 501 q 672 499 676 503 q 668 481 668 494 l 668 447 q 668 382 668 418 q 669 331 668 346 l 671 304 q 673 274 672 283 q 674 254 674 265 q 646 228 651 236 q 624 221 640 221 q 567 235 594 221 q 524 271 539 249 q 499 336 508 292 q 489 475 489 381 q 538 637 489 594 q 671 679 586 679 q 672 680 672 679 q 674 681 672 681 q 722 681 701 683 q 764 678 742 678 l 783 678 l 936 650 q 967 736 967 674 q 965 774 967 753 q 960 826 963 794 q 958 849 958 838 q 957 869 957 860 l 954 894 l 951 894 q 940 903 947 894 q 935 910 936 907 l 931 913 q 903 916 921 913 q 863 924 886 919 l 821 931 q 788 935 799 935 q 685 947 728 943 q 611 950 643 950 q 370 918 485 950 q 186 828 256 886 q 70 678 113 765 q 28 481 28 592 q 92 171 28 286 q 251 14 157 56 q 342 -21 294 -8 q 444 -33 390 -33 q 606 3 544 -33 q 682 104 668 40 q 684 78 683 90 q 686 58 685 65 q 699 4 690 29 q 708 -4 701 -4 q 719 -3 718 -4 l 894 -3 q 896 0 894 -1 l 901 0 q 904 -3 901 0 q 918 -3 904 -3 l 947 -3 q 972 -1 957 -1 q 1003 0 986 0 q 1013 57 1010 15 q 1015 183 1015 99 l 1015 189 q 1017 202 1015 196 q 1019 214 1018 208 l 1019 453 q 1018 464 1018 456 m 608 1014 l 617 1018 q 619 1021 617 1021 q 625 1019 624 1021 q 631 1018 626 1018 q 639 1016 636 1017 q 643 1015 642 1015 l 653 1018 q 658 1019 657 1018 q 664 1021 660 1021 l 696 1024 l 706 1028 l 713 1028 q 715 1025 713 1025 q 728 1026 725 1025 q 735 1028 729 1028 q 750 1049 746 1035 q 751 1054 751 1051 q 753 1058 751 1057 q 754 1062 754 1060 q 756 1065 754 1064 l 756 1243 q 754 1258 754 1247 l 754 1292 q 755 1302 754 1297 q 757 1314 756 1307 l 757 1317 q 721 1335 757 1335 q 701 1333 704 1335 l 582 1333 q 562 1331 571 1332 q 546 1331 553 1331 q 533 1331 539 1331 q 519 1332 526 1331 q 494 1333 515 1333 q 474 1335 488 1335 q 443 1335 461 1335 q 404 1314 407 1335 l 403 1274 q 401 1244 401 1257 q 400 1219 400 1231 q 394 1104 394 1181 q 395 1067 394 1086 q 397 1038 396 1049 l 407 1028 l 525 1018 q 537 1017 531 1018 q 550 1015 543 1017 q 574 1014 554 1014 l 608 1014 "},"H":{"ha":1221,"x_min":42,"x_max":1179,"o":"m 331 -7 q 390 -4 353 -6 q 481 0 426 -3 l 503 1 q 524 26 518 7 q 531 66 529 46 q 532 94 532 86 l 532 313 q 543 336 532 336 l 556 336 q 578 335 563 336 q 619 333 594 335 q 647 332 632 332 q 681 332 661 332 l 690 332 l 706 75 l 710 46 q 714 25 713 33 q 719 8 715 17 q 724 4 722 7 q 728 1 726 1 l 1110 1 q 1131 14 1119 1 q 1142 32 1142 26 l 1176 546 l 1176 551 q 1174 560 1175 554 q 1172 574 1172 565 q 1176 715 1172 628 q 1178 799 1178 763 q 1179 861 1179 835 q 1164 910 1179 900 q 1121 917 1154 917 l 1083 917 q 1028 915 1065 915 q 936 914 992 914 l 857 914 q 826 912 843 913 q 790 911 810 911 l 754 911 q 727 910 736 911 q 714 908 718 910 q 693 896 706 908 q 689 870 690 888 q 688 833 688 853 l 688 821 l 686 764 q 686 744 686 753 q 685 728 686 735 l 683 633 q 662 634 671 633 q 646 636 653 635 q 610 638 633 636 q 569 643 586 639 l 532 643 l 533 700 q 535 722 535 708 q 535 753 535 735 q 533 768 535 764 q 532 779 532 772 l 532 797 l 535 818 q 536 829 535 824 q 538 840 538 835 l 538 854 q 523 902 538 890 q 472 914 508 914 l 335 914 q 308 915 325 915 q 271 915 290 915 q 240 915 253 915 q 219 917 226 915 l 117 917 q 76 904 89 917 q 64 894 72 900 q 57 889 60 892 q 53 885 54 886 l 53 881 q 50 861 50 876 q 48 823 49 843 q 47 782 47 803 l 47 740 l 44 668 q 44 630 44 646 q 43 600 44 614 q 42 581 42 590 q 42 567 42 572 l 42 538 l 68 49 q 73 27 68 42 q 83 13 78 13 q 188 -4 133 -1 q 331 -7 243 -7 "},"Ħ":{"ha":1303,"x_min":3,"x_max":1306,"o":"m 369 -8 q 429 -6 392 -7 q 521 -1 467 -4 l 542 0 q 562 30 554 4 q 569 92 569 56 q 570 109 569 104 q 571 122 571 114 q 571 150 571 129 q 571 214 571 171 q 583 238 571 238 l 594 238 q 617 237 601 238 q 660 235 633 236 q 719 233 672 233 l 729 233 l 744 74 q 749 44 747 56 q 753 23 751 32 q 758 7 754 14 q 767 0 763 0 l 1149 0 q 1169 12 1157 0 q 1181 32 1181 24 l 1215 463 q 1214 468 1215 467 q 1211 476 1213 471 q 1210 490 1210 482 l 1211 567 q 1213 594 1213 569 q 1213 685 1213 618 l 1231 685 q 1294 699 1276 685 q 1306 724 1306 706 l 1306 740 q 1304 746 1306 744 q 1303 751 1303 747 q 1301 758 1303 757 l 1300 768 q 1299 778 1300 776 l 1299 796 q 1294 801 1299 800 q 1288 803 1292 803 q 1281 804 1285 803 q 1275 805 1279 804 q 1264 807 1271 806 q 1252 809 1258 808 q 1239 810 1246 810 q 1218 811 1221 810 l 1218 876 q 1215 908 1218 899 q 1204 922 1213 917 q 1160 931 1194 931 l 1122 931 q 1056 928 1096 929 q 975 928 1015 928 l 896 928 q 861 926 878 926 q 829 925 844 925 l 792 924 q 753 921 769 924 q 733 910 742 921 q 728 879 731 904 q 726 818 726 854 l 726 814 l 574 814 q 576 826 574 824 l 576 840 q 511 928 576 928 l 375 928 q 356 929 367 929 q 310 929 344 929 q 278 929 292 929 q 258 931 265 929 l 156 931 q 115 918 131 931 q 103 908 107 913 q 96 903 99 906 q 92 900 93 901 q 90 895 90 899 q 90 879 90 892 q 89 839 89 851 q 88 817 89 826 l 76 817 q 64 815 67 817 q 51 814 60 814 q 10 804 13 806 q 3 799 3 804 q 3 781 3 785 q 4 775 3 778 l 4 754 q 5 744 4 749 q 7 731 6 739 l 7 706 q 28 693 7 697 q 63 690 49 692 q 83 688 78 688 l 85 688 q 83 679 83 685 q 83 654 83 674 l 83 521 q 81 501 82 510 q 81 483 81 492 l 81 456 l 107 47 q 113 24 107 38 q 122 11 118 11 q 181 -1 151 4 q 256 -7 211 -6 q 369 -8 300 -8 m 722 550 q 705 551 714 550 q 685 553 696 551 q 641 555 664 553 q 607 560 618 557 l 571 560 l 572 686 l 572 688 l 647 688 q 700 688 688 688 q 722 686 713 688 l 722 550 "},"Ĥ":{"ha":1221,"x_min":42,"x_max":1179,"o":"m 331 -7 q 390 -4 353 -6 q 481 0 426 -3 l 503 1 q 524 26 518 7 q 531 66 529 46 q 532 94 532 86 l 532 313 q 543 336 532 336 l 556 336 q 578 335 563 336 q 619 333 594 335 q 647 332 632 332 q 681 332 661 332 l 690 332 l 706 75 l 710 46 q 714 25 713 33 q 719 8 715 17 q 724 4 722 7 q 728 1 726 1 l 1110 1 q 1131 14 1119 1 q 1142 32 1142 26 l 1176 546 l 1176 551 q 1174 560 1175 554 q 1172 574 1172 565 q 1176 715 1172 628 q 1178 799 1178 763 q 1179 861 1179 835 q 1164 910 1179 900 q 1121 917 1154 917 l 1083 917 q 1028 915 1065 915 q 936 914 992 914 l 857 914 q 826 912 843 913 q 790 911 810 911 l 754 911 q 727 910 736 911 q 714 908 718 910 q 693 896 706 908 q 689 870 690 888 q 688 833 688 853 l 688 821 l 686 764 q 686 744 686 753 q 685 728 686 735 l 683 633 q 662 634 671 633 q 646 636 653 635 q 610 638 633 636 q 569 643 586 639 l 532 643 l 533 700 q 535 722 535 708 q 535 753 535 735 q 533 768 535 764 q 532 779 532 772 l 532 797 l 535 818 q 536 829 535 824 q 538 840 538 835 l 538 854 q 523 902 538 890 q 472 914 508 914 l 335 914 q 308 915 325 915 q 271 915 290 915 q 240 915 253 915 q 219 917 226 915 l 117 917 q 76 904 89 917 q 64 894 72 900 q 57 889 60 892 q 53 885 54 886 l 53 881 q 50 861 50 876 q 48 823 49 843 q 47 782 47 803 l 47 740 l 44 668 q 44 630 44 646 q 43 600 44 614 q 42 581 42 590 q 42 567 42 572 l 42 538 l 68 49 q 73 27 68 42 q 83 13 78 13 q 188 -4 133 -1 q 331 -7 243 -7 m 382 1013 q 397 1014 385 1014 q 407 1013 401 1013 l 438 1013 l 442 1014 l 446 1013 l 485 1013 q 508 1033 493 1013 q 546 1076 522 1053 l 560 1090 q 581 1121 569 1100 q 610 1174 592 1142 q 640 1132 626 1151 q 668 1096 654 1113 q 676 1085 672 1090 q 686 1074 681 1081 q 699 1053 692 1064 q 724 1022 706 1043 q 738 1013 731 1013 l 868 1013 q 883 1031 883 1013 l 883 1036 l 882 1040 q 856 1118 876 1071 q 782 1263 824 1193 l 739 1331 l 717 1344 l 688 1347 l 535 1347 l 489 1338 l 482 1331 q 463 1299 471 1313 q 450 1278 456 1285 l 421 1224 l 399 1176 q 385 1151 390 1163 q 376 1133 381 1140 q 339 1040 344 1072 l 339 1031 q 351 1013 339 1013 l 382 1013 "},"I":{"ha":567,"x_min":42,"x_max":525,"o":"m 143 -26 l 182 -22 l 224 -15 l 367 -15 q 375 -8 368 -8 l 397 -10 q 421 -14 411 -12 q 435 -15 431 -15 q 439 -12 436 -14 q 446 -10 442 -11 l 453 -10 q 456 -8 453 -8 l 463 -10 l 464 -12 q 492 0 483 -12 q 507 83 507 21 q 507 113 506 96 q 510 150 508 129 l 514 210 l 514 521 q 514 560 514 538 q 519 613 514 583 l 524 636 q 525 644 525 640 l 521 896 q 514 912 521 903 q 488 921 507 921 l 403 921 l 393 924 q 382 925 388 925 l 379 925 q 376 924 378 925 q 358 921 361 924 l 353 921 q 340 925 347 921 l 271 925 l 265 921 q 221 922 240 921 q 190 924 201 922 q 176 924 185 924 q 157 926 168 925 q 135 928 146 928 q 115 928 124 928 q 64 923 86 928 q 42 904 42 918 l 42 517 q 43 431 42 482 q 50 308 44 381 l 56 247 q 61 160 60 197 q 64 100 63 124 q 65 69 65 96 q 67 33 65 57 q 78 -12 69 8 q 107 -32 88 -32 l 143 -26 "},"Ĳ":{"ha":1347,"x_min":42,"x_max":1303,"o":"m 143 -26 l 182 -22 l 224 -15 l 367 -15 q 375 -8 368 -8 l 397 -10 q 421 -14 411 -12 q 435 -15 431 -15 q 439 -12 436 -14 q 446 -10 442 -11 l 453 -10 q 456 -8 453 -8 l 463 -10 l 464 -12 q 492 0 483 -12 q 507 83 507 21 q 507 113 506 96 q 510 150 508 129 l 514 210 l 514 521 q 514 560 514 538 q 519 613 514 583 l 524 636 q 525 644 525 640 l 521 896 q 514 912 521 903 q 488 921 507 921 l 403 921 l 393 924 q 382 925 388 925 l 379 925 q 376 924 378 925 q 358 921 361 924 l 353 921 q 340 925 347 921 l 271 925 l 265 921 q 221 922 240 921 q 190 924 201 922 q 176 924 185 924 q 157 926 168 925 q 135 928 146 928 q 115 928 124 928 q 64 923 86 928 q 42 904 42 918 l 42 517 q 43 431 42 482 q 50 308 44 381 l 56 247 q 61 160 60 197 q 64 100 63 124 q 65 69 65 96 q 67 33 65 57 q 78 -12 69 8 q 107 -32 88 -32 l 143 -26 m 943 -17 q 1174 56 1083 -14 q 1285 250 1264 126 q 1294 323 1292 286 q 1296 414 1296 360 l 1297 425 l 1297 449 q 1297 470 1297 461 q 1299 485 1297 479 q 1300 499 1300 489 q 1300 514 1299 507 l 1300 525 q 1303 538 1300 538 l 1303 826 q 1301 847 1303 833 q 1299 878 1299 860 q 1296 898 1299 890 q 1290 911 1293 906 q 1238 925 1276 925 l 976 925 l 865 924 q 849 922 861 924 q 827 910 838 919 q 817 879 817 901 l 818 728 l 818 668 q 815 519 817 578 q 814 429 814 461 q 814 399 814 411 q 813 381 814 386 q 811 373 813 381 q 807 353 810 365 q 797 324 800 328 q 779 292 792 303 q 754 282 767 282 q 720 285 735 282 q 681 298 706 289 q 607 324 657 307 q 594 328 597 331 q 590 324 590 325 q 589 318 589 321 q 588 310 589 315 q 588 296 588 304 q 585 261 586 286 q 583 208 583 236 q 582 155 582 179 q 582 122 582 131 q 579 109 581 117 q 576 94 578 101 l 574 65 q 575 58 574 60 l 636 29 q 702 1 675 11 q 760 -14 729 -10 q 836 -18 790 -18 q 888 -19 863 -18 q 943 -17 914 -19 "},"Í":{"ha":567,"x_min":42,"x_max":539,"o":"m 143 -26 l 182 -22 l 224 -15 l 367 -15 q 375 -8 368 -8 l 397 -10 q 421 -14 411 -12 q 435 -15 431 -15 q 439 -12 436 -14 q 446 -10 442 -11 l 453 -10 q 456 -8 453 -8 l 463 -10 l 464 -12 q 492 0 483 -12 q 507 83 507 21 q 507 113 506 96 q 510 150 508 129 l 514 210 l 514 521 q 514 560 514 538 q 519 613 514 583 l 524 636 q 525 644 525 640 l 521 896 q 514 912 521 903 q 488 921 507 921 l 403 921 l 393 924 q 382 925 388 925 l 379 925 q 376 924 378 925 q 358 921 361 924 l 353 921 q 340 925 347 921 l 271 925 l 265 921 q 221 922 240 921 q 190 924 201 922 q 176 924 185 924 q 157 926 168 925 q 135 928 146 928 q 115 928 124 928 q 64 923 86 928 q 42 904 42 918 l 42 517 q 43 431 42 482 q 50 308 44 381 l 56 247 q 61 160 60 197 q 64 100 63 124 q 65 69 65 96 q 67 33 65 57 q 78 -12 69 8 q 107 -32 88 -32 l 143 -26 m 294 1018 l 346 1018 q 369 1039 356 1018 q 385 1063 379 1053 q 404 1091 392 1074 q 440 1142 417 1108 l 458 1175 q 467 1189 461 1181 q 479 1210 472 1197 q 508 1258 497 1240 q 521 1282 518 1276 q 535 1308 532 1301 q 539 1322 539 1317 q 531 1335 539 1331 q 493 1346 522 1340 l 486 1346 q 483 1344 486 1344 l 472 1349 l 414 1351 l 406 1353 q 400 1354 401 1353 q 396 1356 399 1356 l 382 1356 q 368 1353 374 1356 l 360 1357 l 278 1353 l 218 1343 l 207 1335 q 178 1231 192 1279 q 149 1132 164 1182 q 142 1102 147 1121 q 138 1060 138 1083 q 142 1029 138 1040 q 164 1018 147 1018 l 279 1018 l 283 1022 l 294 1018 "},"Ĭ":{"ha":567,"x_min":-36,"x_max":606,"o":"m 143 -26 l 182 -22 l 224 -15 l 367 -15 q 375 -8 368 -8 l 397 -10 q 421 -14 411 -12 q 435 -15 431 -15 q 439 -12 436 -14 q 446 -10 442 -11 l 453 -10 q 456 -8 453 -8 l 463 -10 l 464 -12 q 492 0 483 -12 q 507 83 507 21 q 507 113 506 96 q 510 150 508 129 l 514 210 l 514 521 q 514 560 514 538 q 519 613 514 583 l 524 636 q 525 644 525 640 l 521 896 q 514 912 521 903 q 488 921 507 921 l 403 921 l 393 924 q 382 925 388 925 l 379 925 q 376 924 378 925 q 358 921 361 924 l 353 921 q 340 925 347 921 l 271 925 l 265 921 q 221 922 240 921 q 190 924 201 922 q 176 924 185 924 q 157 926 168 925 q 135 928 146 928 q 115 928 124 928 q 64 923 86 928 q 42 904 42 918 l 42 517 q 43 431 42 482 q 50 308 44 381 l 56 247 q 61 160 60 197 q 64 100 63 124 q 65 69 65 96 q 67 33 65 57 q 78 -12 69 8 q 107 -32 88 -32 l 143 -26 m 265 1013 q 410 1031 347 1013 q 515 1099 472 1050 q 599 1276 599 1194 q 602 1325 599 1303 q 597 1364 606 1347 q 592 1368 596 1368 l 397 1375 q 389 1367 389 1375 q 390 1333 390 1350 q 389 1299 389 1317 q 360 1226 389 1256 q 293 1197 331 1197 q 223 1210 256 1197 q 183 1240 190 1222 q 182 1243 182 1242 q 181 1246 182 1244 l 179 1247 l 178 1274 q 182 1350 178 1308 q 179 1359 183 1356 q 171 1363 175 1363 l -12 1364 q -25 1354 -22 1364 q -33 1306 -31 1331 q -36 1256 -36 1282 q -11 1159 -36 1204 q 57 1082 14 1114 q 155 1032 100 1051 q 265 1013 210 1013 "},"Î":{"ha":567,"x_min":11,"x_max":556,"o":"m 143 -26 l 182 -22 l 224 -15 l 367 -15 q 375 -8 368 -8 l 397 -10 q 421 -14 411 -12 q 435 -15 431 -15 q 439 -12 436 -14 q 446 -10 442 -11 l 453 -10 q 456 -8 453 -8 l 463 -10 l 464 -12 q 492 0 483 -12 q 507 83 507 21 q 507 113 506 96 q 510 150 508 129 l 514 210 l 514 521 q 514 560 514 538 q 519 613 514 583 l 524 636 q 525 644 525 640 l 521 896 q 514 912 521 903 q 488 921 507 921 l 403 921 l 393 924 q 382 925 388 925 l 379 925 q 376 924 378 925 q 358 921 361 924 l 353 921 q 340 925 347 921 l 271 925 l 265 921 q 221 922 240 921 q 190 924 201 922 q 176 924 185 924 q 157 926 168 925 q 135 928 146 928 q 115 928 124 928 q 64 923 86 928 q 42 904 42 918 l 42 517 q 43 431 42 482 q 50 308 44 381 l 56 247 q 61 160 60 197 q 64 100 63 124 q 65 69 65 96 q 67 33 65 57 q 78 -12 69 8 q 107 -32 88 -32 l 143 -26 m 54 1013 q 69 1014 57 1014 q 79 1013 74 1013 l 110 1013 l 114 1014 l 118 1013 l 157 1013 q 180 1033 165 1013 q 218 1076 194 1053 l 232 1090 q 253 1121 242 1100 q 282 1174 264 1142 q 313 1132 299 1151 q 340 1096 326 1113 q 349 1085 344 1090 q 358 1074 353 1081 q 371 1053 364 1064 q 396 1022 378 1043 q 410 1013 403 1013 l 540 1013 q 556 1031 556 1013 l 556 1036 l 554 1040 q 528 1118 549 1071 q 454 1263 496 1193 l 411 1331 l 389 1344 l 360 1347 l 207 1347 l 161 1338 l 154 1331 q 135 1299 143 1313 q 122 1278 128 1285 l 93 1224 l 71 1176 q 58 1151 63 1163 q 49 1133 53 1140 q 11 1040 17 1072 l 11 1031 q 24 1013 11 1013 l 54 1013 "},"Ȉ":{"ha":567,"x_min":-124,"x_max":579,"o":"m 143 -26 l 182 -22 l 224 -15 l 367 -15 q 375 -8 368 -8 l 397 -10 q 421 -14 411 -12 q 435 -15 431 -15 q 439 -12 436 -14 q 446 -10 442 -11 l 453 -10 q 456 -8 453 -8 l 463 -10 l 464 -12 q 492 0 483 -12 q 507 83 507 21 q 507 113 506 96 q 510 150 508 129 l 514 210 l 514 521 q 514 560 514 538 q 519 613 514 583 l 524 636 q 525 644 525 640 l 521 896 q 514 912 521 903 q 488 921 507 921 l 403 921 l 393 924 q 382 925 388 925 l 379 925 q 376 924 378 925 q 358 921 361 924 l 353 921 q 340 925 347 921 l 271 925 l 265 921 q 221 922 240 921 q 190 924 201 922 q 176 924 185 924 q 157 926 168 925 q 135 928 146 928 q 115 928 124 928 q 64 923 86 928 q 42 904 42 918 l 42 517 q 43 431 42 482 q 50 308 44 381 l 56 247 q 61 160 60 197 q 64 100 63 124 q 65 69 65 96 q 67 33 65 57 q 78 -12 69 8 q 107 -32 88 -32 l 143 -26 m 438 1014 l 449 1017 l 454 1013 l 479 1011 l 540 1017 q 565 1026 556 1018 q 578 1056 574 1035 q 579 1117 579 1076 q 578 1202 579 1157 q 574 1288 576 1247 q 565 1349 571 1328 l 558 1357 l 513 1365 q 483 1369 493 1368 q 466 1373 474 1371 q 442 1379 458 1375 l 431 1376 q 417 1379 428 1379 l 403 1381 l 399 1381 q 396 1380 397 1381 q 393 1379 394 1379 l 386 1378 l 349 1379 l 338 1375 q 333 1378 333 1375 l 328 1378 q 303 1374 314 1376 q 288 1371 293 1372 q 274 1356 274 1367 q 273 1351 274 1353 q 274 1346 272 1349 q 275 1340 275 1344 q 276 1333 275 1336 q 279 1326 278 1331 q 283 1315 281 1321 q 289 1294 285 1311 q 297 1263 293 1276 q 301 1252 300 1257 q 304 1243 303 1247 q 312 1222 308 1231 q 318 1207 315 1213 q 332 1163 322 1194 q 353 1096 342 1131 q 369 1040 364 1061 q 386 1017 376 1017 l 413 1017 l 438 1014 m 106 1021 l 115 1025 l 121 1021 l 224 1021 q 244 1032 239 1021 q 249 1063 249 1043 q 240 1109 249 1085 q 228 1161 231 1133 q 208 1257 218 1204 q 172 1357 199 1310 l 160 1365 l 100 1375 l 19 1379 l 10 1375 q -6 1378 4 1378 l -19 1378 q -22 1376 -21 1378 q -26 1375 -24 1375 l -36 1374 l -57 1371 l -67 1367 l -68 1367 q -72 1368 -71 1367 l -76 1368 q -114 1357 -103 1363 q -124 1343 -124 1351 q -119 1331 -124 1339 q -86 1271 -100 1289 q -74 1252 -81 1264 q -64 1232 -68 1240 l -47 1197 q -38 1181 -43 1189 q -28 1164 -33 1172 q -4 1110 -12 1129 q 12 1078 4 1092 q 32 1042 19 1064 q 54 1021 44 1021 l 106 1021 "},"Ï":{"ha":567,"x_min":-93,"x_max":660,"o":"m 143 -26 l 182 -22 l 224 -15 l 367 -15 q 375 -8 368 -8 l 397 -10 q 421 -14 411 -12 q 435 -15 431 -15 q 439 -12 436 -14 q 446 -10 442 -11 l 453 -10 q 456 -8 453 -8 l 463 -10 l 464 -12 q 492 0 483 -12 q 507 83 507 21 q 507 113 506 96 q 510 150 508 129 l 514 210 l 514 521 q 514 560 514 538 q 519 613 514 583 l 524 636 q 525 644 525 640 l 521 896 q 514 912 521 903 q 488 921 507 921 l 403 921 l 393 924 q 382 925 388 925 l 379 925 q 376 924 378 925 q 358 921 361 924 l 353 921 q 340 925 347 921 l 271 925 l 265 921 q 221 922 240 921 q 190 924 201 922 q 176 924 185 924 q 157 926 168 925 q 135 928 146 928 q 115 928 124 928 q 64 923 86 928 q 42 904 42 918 l 42 517 q 43 431 42 482 q 50 308 44 381 l 56 247 q 61 160 60 197 q 64 100 63 124 q 65 69 65 96 q 67 33 65 57 q 78 -12 69 8 q 107 -32 88 -32 l 143 -26 m -72 1042 l 204 1042 q 226 1079 226 1044 q 226 1104 226 1100 q 225 1111 226 1108 l 225 1185 q 223 1192 224 1190 q 222 1194 222 1193 q 223 1208 222 1201 q 225 1222 224 1214 l 225 1250 q 208 1285 225 1285 l 204 1285 q 200 1283 201 1285 q 194 1282 199 1282 l 185 1282 q 175 1283 178 1282 q 167 1285 174 1285 q 163 1286 165 1286 q 149 1286 160 1286 q 133 1285 143 1286 q 100 1282 122 1285 l -44 1282 q -69 1275 -62 1282 q -78 1260 -75 1268 q -85 1243 -82 1251 l -83 1236 l -83 1232 l -87 1189 q -93 1171 -93 1183 l -92 1163 l -90 1135 l -90 1094 l -81 1050 l -72 1042 m 433 1042 l 638 1042 q 660 1079 660 1043 q 659 1088 660 1083 q 657 1097 658 1092 q 656 1111 656 1099 l 656 1125 l 657 1140 l 657 1185 q 656 1190 656 1186 l 656 1194 l 657 1232 l 657 1250 q 642 1285 657 1285 l 638 1285 q 633 1283 635 1285 q 628 1282 632 1282 l 618 1282 q 607 1283 610 1282 q 600 1285 606 1285 q 596 1286 599 1286 q 581 1286 593 1286 q 567 1285 576 1286 q 533 1282 557 1285 l 389 1282 q 354 1278 369 1282 q 344 1268 349 1276 q 340 1261 342 1264 q 336 1257 338 1258 l 336 1251 q 338 1249 338 1250 q 336 1246 336 1247 q 336 1218 336 1224 q 338 1208 336 1213 l 338 1189 q 339 1178 338 1179 l 339 1171 q 343 1135 343 1157 l 343 1094 l 351 1050 l 433 1042 "},"İ":{"ha":567,"x_min":42,"x_max":525,"o":"m 143 -26 l 182 -22 l 224 -15 l 367 -15 q 375 -8 368 -8 l 397 -10 q 421 -14 411 -12 q 435 -15 431 -15 q 439 -12 436 -14 q 446 -10 442 -11 l 453 -10 q 456 -8 453 -8 l 463 -10 l 464 -12 q 492 0 483 -12 q 507 83 507 21 q 507 113 506 96 q 510 150 508 129 l 514 210 l 514 521 q 514 560 514 538 q 519 613 514 583 l 524 636 q 525 644 525 640 l 521 896 q 514 912 521 903 q 488 921 507 921 l 403 921 l 393 924 q 382 925 388 925 l 379 925 q 376 924 378 925 q 358 921 361 924 l 353 921 q 340 925 347 921 l 271 925 l 265 921 q 221 922 240 921 q 190 924 201 922 q 176 924 185 924 q 157 926 168 925 q 135 928 146 928 q 115 928 124 928 q 64 923 86 928 q 42 904 42 918 l 42 517 q 43 431 42 482 q 50 308 44 381 l 56 247 q 61 160 60 197 q 64 100 63 124 q 65 69 65 96 q 67 33 65 57 q 78 -12 69 8 q 107 -32 88 -32 l 143 -26 m 315 1014 l 324 1018 q 326 1021 324 1021 q 332 1019 331 1021 q 338 1018 333 1018 q 346 1016 343 1017 q 350 1015 349 1015 l 360 1018 q 365 1019 364 1018 q 371 1021 367 1021 l 403 1024 l 413 1028 l 419 1028 q 422 1025 419 1025 q 435 1026 432 1025 q 442 1028 436 1028 q 457 1049 453 1035 q 458 1054 458 1051 q 460 1058 458 1057 q 461 1062 461 1060 q 463 1065 461 1064 l 463 1243 q 461 1258 461 1247 l 461 1292 q 462 1302 461 1297 q 464 1314 463 1307 l 464 1317 q 428 1335 464 1335 q 408 1333 411 1335 l 289 1333 q 269 1331 278 1332 q 253 1331 260 1331 q 240 1331 246 1331 q 226 1332 233 1331 q 201 1333 222 1333 q 181 1335 194 1335 q 150 1335 168 1335 q 111 1314 114 1335 l 110 1274 q 108 1244 108 1257 q 107 1219 107 1231 q 101 1104 101 1181 q 102 1067 101 1086 q 104 1038 103 1049 l 114 1028 l 232 1018 q 244 1017 238 1018 q 257 1015 250 1017 q 281 1014 261 1014 l 315 1014 "},"Ị":{"ha":567,"x_min":42,"x_max":525,"o":"m 143 -26 l 182 -22 l 224 -15 l 367 -15 q 375 -8 368 -8 l 397 -10 q 421 -14 411 -12 q 435 -15 431 -15 q 439 -12 436 -14 q 446 -10 442 -11 l 453 -10 q 456 -8 453 -8 l 463 -10 l 464 -12 q 492 0 483 -12 q 507 83 507 21 q 507 113 506 96 q 510 150 508 129 l 514 210 l 514 521 q 514 560 514 538 q 519 613 514 583 l 524 636 q 525 644 525 640 l 521 896 q 514 912 521 903 q 488 921 507 921 l 403 921 l 393 924 q 382 925 388 925 l 379 925 q 376 924 378 925 q 358 921 361 924 l 353 921 q 340 925 347 921 l 271 925 l 265 921 q 221 922 240 921 q 190 924 201 922 q 176 924 185 924 q 157 926 168 925 q 135 928 146 928 q 115 928 124 928 q 64 923 86 928 q 42 904 42 918 l 42 517 q 43 431 42 482 q 50 308 44 381 l 56 247 q 61 160 60 197 q 64 100 63 124 q 65 69 65 96 q 67 33 65 57 q 78 -12 69 8 q 107 -32 88 -32 l 143 -26 m 313 -412 l 319 -410 q 322 -407 319 -407 q 328 -408 326 -407 q 329 -409 328 -408 q 332 -410 331 -410 q 340 -410 338 -410 q 343 -411 342 -411 l 353 -410 q 356 -409 356 -410 q 357 -408 356 -408 q 363 -407 358 -407 l 390 -404 l 400 -400 l 406 -400 q 408 -403 406 -403 q 419 -401 417 -403 q 422 -401 421 -401 q 426 -400 424 -400 q 440 -382 438 -392 q 442 -372 440 -375 q 444 -367 442 -372 l 444 -207 q 443 -193 443 -203 l 443 -162 q 444 -154 443 -158 q 446 -143 444 -150 l 446 -140 q 414 -124 446 -124 q 401 -124 404 -124 q 396 -125 399 -125 l 289 -125 q 271 -127 279 -126 q 256 -128 263 -128 q 244 -128 250 -128 q 232 -126 239 -128 q 210 -125 228 -125 q 192 -124 204 -124 q 164 -124 179 -124 q 128 -143 131 -124 l 128 -179 q 126 -206 126 -193 q 125 -228 125 -218 q 119 -332 119 -262 q 120 -365 119 -349 q 122 -392 121 -381 l 131 -400 l 238 -410 q 248 -410 242 -410 q 260 -411 254 -410 q 281 -412 264 -412 l 313 -412 "},"Ì":{"ha":567,"x_min":26,"x_max":525,"o":"m 143 -26 l 182 -22 l 224 -15 l 367 -15 q 375 -8 368 -8 l 397 -10 q 421 -14 411 -12 q 435 -15 431 -15 q 439 -12 436 -14 q 446 -10 442 -11 l 453 -10 q 456 -8 453 -8 l 463 -10 l 464 -12 q 492 0 483 -12 q 507 83 507 21 q 507 113 506 96 q 510 150 508 129 l 514 210 l 514 521 q 514 560 514 538 q 519 613 514 583 l 524 636 q 525 644 525 640 l 521 896 q 514 912 521 903 q 488 921 507 921 l 403 921 l 393 924 q 382 925 388 925 l 379 925 q 376 924 378 925 q 358 921 361 924 l 353 921 q 340 925 347 921 l 271 925 l 265 921 q 221 922 240 921 q 190 924 201 922 q 176 924 185 924 q 157 926 168 925 q 135 928 146 928 q 115 928 124 928 q 64 923 86 928 q 42 904 42 918 l 42 517 q 43 431 42 482 q 50 308 44 381 l 56 247 q 61 160 60 197 q 64 100 63 124 q 65 69 65 96 q 67 33 65 57 q 78 -12 69 8 q 107 -32 88 -32 l 143 -26 m 271 1018 l 282 1022 l 286 1018 l 401 1018 q 428 1060 428 1018 q 423 1102 428 1083 q 417 1132 418 1121 q 386 1238 400 1189 q 358 1335 372 1286 l 347 1343 l 288 1353 l 206 1357 l 197 1353 q 183 1356 192 1356 l 169 1356 q 165 1354 167 1356 q 160 1353 164 1353 l 151 1351 l 93 1349 l 82 1344 q 79 1346 79 1344 l 72 1346 q 35 1335 43 1340 q 26 1322 26 1331 q 31 1308 26 1317 q 35 1299 32 1306 q 44 1282 39 1292 q 58 1258 47 1276 q 86 1210 68 1240 q 99 1189 93 1197 q 107 1175 104 1181 l 125 1142 q 162 1091 150 1108 q 181 1063 174 1074 q 196 1039 188 1053 q 209 1022 204 1026 q 219 1018 214 1018 l 271 1018 "},"Ỉ":{"ha":567,"x_min":42,"x_max":581,"o":"m 143 -26 l 182 -22 l 224 -15 l 367 -15 q 375 -8 368 -8 l 397 -10 q 421 -14 411 -12 q 435 -15 431 -15 q 439 -12 436 -14 q 446 -10 442 -11 l 453 -10 q 456 -8 453 -8 l 463 -10 l 464 -12 q 492 0 483 -12 q 507 83 507 21 q 507 113 506 96 q 510 150 508 129 l 514 210 l 514 521 q 514 560 514 538 q 519 613 514 583 l 524 636 q 525 644 525 640 l 521 896 q 514 912 521 903 q 488 921 507 921 l 403 921 l 393 924 q 382 925 388 925 l 379 925 q 376 924 378 925 q 358 921 361 924 l 353 921 q 340 925 347 921 l 271 925 l 265 921 q 221 922 240 921 q 190 924 201 922 q 176 924 185 924 q 157 926 168 925 q 135 928 146 928 q 115 928 124 928 q 64 923 86 928 q 42 904 42 918 l 42 517 q 43 431 42 482 q 50 308 44 381 l 56 247 q 61 160 60 197 q 64 100 63 124 q 65 69 65 96 q 67 33 65 57 q 78 -12 69 8 q 107 -32 88 -32 l 143 -26 m 208 1021 q 243 1021 228 1021 q 267 1022 258 1021 l 296 1022 l 308 1021 l 318 1021 q 332 1042 332 1021 l 333 1085 q 340 1083 333 1082 q 356 1093 346 1083 q 383 1115 367 1101 q 429 1138 400 1128 q 528 1192 496 1160 q 570 1260 560 1224 q 581 1331 581 1297 q 572 1360 581 1349 q 553 1385 563 1372 q 529 1419 539 1407 q 496 1442 519 1432 q 412 1467 463 1453 q 311 1481 361 1481 q 267 1480 289 1481 q 222 1478 246 1479 q 174 1474 199 1476 q 124 1468 149 1471 q 116 1467 122 1468 q 104 1463 110 1467 q 94 1440 94 1454 q 93 1430 93 1435 q 90 1419 93 1425 q 82 1306 82 1361 q 94 1289 82 1289 q 105 1291 97 1289 q 125 1294 113 1293 q 165 1299 140 1297 q 221 1301 189 1301 q 306 1294 282 1301 q 329 1274 329 1288 q 318 1256 329 1263 q 285 1233 307 1249 q 255 1225 278 1229 q 225 1217 232 1221 q 178 1153 185 1186 q 171 1085 171 1121 q 178 1038 171 1056 q 208 1021 186 1021 "},"Ȋ":{"ha":567,"x_min":-39,"x_max":603,"o":"m 143 -26 l 182 -22 l 224 -15 l 367 -15 q 375 -8 368 -8 l 397 -10 q 421 -14 411 -12 q 435 -15 431 -15 q 439 -12 436 -14 q 446 -10 442 -11 l 453 -10 q 456 -8 453 -8 l 463 -10 l 464 -12 q 492 0 483 -12 q 507 83 507 21 q 507 113 506 96 q 510 150 508 129 l 514 210 l 514 521 q 514 560 514 538 q 519 613 514 583 l 524 636 q 525 644 525 640 l 521 896 q 514 912 521 903 q 488 921 507 921 l 403 921 l 393 924 q 382 925 388 925 l 379 925 q 376 924 378 925 q 358 921 361 924 l 353 921 q 340 925 347 921 l 271 925 l 265 921 q 221 922 240 921 q 190 924 201 922 q 176 924 185 924 q 157 926 168 925 q 135 928 146 928 q 115 928 124 928 q 64 923 86 928 q 42 904 42 918 l 42 517 q 43 431 42 482 q 50 308 44 381 l 56 247 q 61 160 60 197 q 64 100 63 124 q 65 69 65 96 q 67 33 65 57 q 78 -12 69 8 q 107 -32 88 -32 l 143 -26 m 301 1375 q 51 1289 125 1375 q -12 1197 8 1239 q -32 1111 -32 1154 q -35 1063 -32 1085 q -31 1024 -39 1040 q -25 1019 -28 1019 l 169 1013 q 178 1021 178 1013 q 177 1054 176 1038 q 178 1089 178 1071 q 206 1160 178 1131 q 274 1190 235 1190 q 344 1178 313 1190 q 383 1147 376 1165 q 385 1144 385 1146 q 386 1142 385 1143 l 388 1140 l 389 1114 q 385 1038 389 1083 q 387 1029 383 1033 q 396 1025 390 1025 l 579 1024 q 592 1033 589 1024 q 600 1081 597 1057 q 603 1132 603 1106 q 510 1306 603 1236 q 301 1375 417 1375 "},"Ī":{"ha":567,"x_min":-10,"x_max":575,"o":"m 143 -26 l 182 -22 l 224 -15 l 367 -15 q 375 -8 368 -8 l 397 -10 q 421 -14 411 -12 q 435 -15 431 -15 q 439 -12 436 -14 q 446 -10 442 -11 l 453 -10 q 456 -8 453 -8 l 463 -10 l 464 -12 q 492 0 483 -12 q 507 83 507 21 q 507 113 506 96 q 510 150 508 129 l 514 210 l 514 521 q 514 560 514 538 q 519 613 514 583 l 524 636 q 525 644 525 640 l 521 896 q 514 912 521 903 q 488 921 507 921 l 403 921 l 393 924 q 382 925 388 925 l 379 925 q 376 924 378 925 q 358 921 361 924 l 353 921 q 340 925 347 921 l 271 925 l 265 921 q 221 922 240 921 q 190 924 201 922 q 176 924 185 924 q 157 926 168 925 q 135 928 146 928 q 115 928 124 928 q 64 923 86 928 q 42 904 42 918 l 42 517 q 43 431 42 482 q 50 308 44 381 l 56 247 q 61 160 60 197 q 64 100 63 124 q 65 69 65 96 q 67 33 65 57 q 78 -12 69 8 q 107 -32 88 -32 l 143 -26 m 542 1035 q 569 1063 565 1035 q 575 1111 575 1079 l 575 1143 q 574 1161 574 1151 q 574 1181 574 1171 l 574 1194 q 574 1204 574 1199 q 572 1217 574 1210 q 571 1232 571 1224 q 571 1250 571 1240 q 547 1278 571 1271 q 494 1285 522 1285 l 463 1285 q 417 1285 449 1285 q 338 1288 386 1286 l 282 1289 q 236 1291 254 1290 q 208 1292 218 1292 l 25 1292 q 10 1286 17 1292 q 1 1279 3 1281 q -10 1257 -10 1271 q -10 1227 -10 1239 q -8 1208 -10 1215 l -8 1076 q 1 1056 -8 1061 q 60 1042 15 1042 l 282 1042 q 301 1041 293 1042 q 317 1039 310 1040 q 335 1039 324 1036 l 379 1039 l 393 1038 l 428 1038 l 458 1036 q 478 1036 469 1036 q 494 1035 488 1036 l 542 1035 "},"Į":{"ha":567,"x_min":29,"x_max":533,"o":"m 143 -26 l 182 -22 l 224 -15 l 367 -15 q 375 -8 368 -8 l 397 -10 q 421 -14 411 -12 q 435 -15 431 -15 q 439 -12 436 -14 q 446 -10 442 -11 l 453 -10 q 456 -8 453 -8 l 463 -10 l 464 -12 q 492 0 483 -12 q 507 83 507 21 q 507 113 506 96 q 510 150 508 129 l 514 210 l 514 521 q 514 560 514 538 q 519 613 514 583 l 524 636 q 525 644 525 640 l 521 896 q 514 912 521 903 q 488 921 507 921 l 403 921 l 393 924 q 382 925 388 925 l 379 925 q 376 924 378 925 q 358 921 361 924 l 353 921 q 340 925 347 921 l 271 925 l 265 921 q 221 922 240 921 q 190 924 201 922 q 176 924 185 924 q 157 926 168 925 q 135 928 146 928 q 115 928 124 928 q 64 923 86 928 q 42 904 42 918 l 42 517 q 43 431 42 482 q 50 308 44 381 l 56 247 q 61 160 60 197 q 64 100 63 124 q 65 69 65 96 q 67 33 65 57 q 78 -12 69 8 q 107 -32 88 -32 l 143 -26 m 381 -394 q 392 -393 383 -393 q 399 -392 394 -393 q 408 -390 403 -392 q 436 -384 419 -389 q 474 -372 453 -379 q 498 -359 488 -365 q 510 -347 508 -353 l 533 -233 l 533 -226 q 524 -212 533 -217 q 403 -236 457 -236 q 387 -236 393 -236 q 375 -237 381 -236 q 358 -237 367 -240 q 346 -233 349 -235 q 322 -219 331 -229 q 314 -189 314 -210 q 332 -139 314 -171 q 396 -60 360 -90 l 454 0 q 353 4 417 4 l 321 6 l 294 6 q 292 3 293 6 q 290 1 292 1 q 286 0 289 0 l 175 -36 q 166 -41 172 -37 q 153 -49 160 -44 q 138 -58 144 -54 q 126 -68 132 -62 q 49 -142 68 -107 q 29 -240 29 -178 q 36 -285 29 -264 q 135 -365 60 -339 q 367 -397 218 -397 l 381 -394 "},"Ĩ":{"ha":567,"x_min":-124,"x_max":690,"o":"m 143 -26 l 182 -22 l 224 -15 l 367 -15 q 375 -8 368 -8 l 397 -10 q 421 -14 411 -12 q 435 -15 431 -15 q 439 -12 436 -14 q 446 -10 442 -11 l 453 -10 q 456 -8 453 -8 l 463 -10 l 464 -12 q 492 0 483 -12 q 507 83 507 21 q 507 113 506 96 q 510 150 508 129 l 514 210 l 514 521 q 514 560 514 538 q 519 613 514 583 l 524 636 q 525 644 525 640 l 521 896 q 514 912 521 903 q 488 921 507 921 l 403 921 l 393 924 q 382 925 388 925 l 379 925 q 376 924 378 925 q 358 921 361 924 l 353 921 q 340 925 347 921 l 271 925 l 265 921 q 221 922 240 921 q 190 924 201 922 q 176 924 185 924 q 157 926 168 925 q 135 928 146 928 q 115 928 124 928 q 64 923 86 928 q 42 904 42 918 l 42 517 q 43 431 42 482 q 50 308 44 381 l 56 247 q 61 160 60 197 q 64 100 63 124 q 65 69 65 96 q 67 33 65 57 q 78 -12 69 8 q 107 -32 88 -32 l 143 -26 m 408 1408 l 419 1381 l 419 1379 q 429 1349 426 1364 q 432 1324 432 1335 q 394 1293 432 1293 q 346 1324 367 1293 q 336 1338 340 1332 q 325 1349 332 1344 q 315 1358 318 1351 q 311 1368 313 1364 q 284 1403 303 1388 q 229 1428 265 1419 q 215 1432 225 1429 q 190 1442 206 1435 q 164 1449 175 1446 q 143 1453 153 1453 q -44 1401 13 1453 q -95 1326 -78 1372 q -118 1232 -112 1279 q -124 1153 -124 1185 q -122 1142 -122 1147 q -117 1133 -121 1138 q -115 1122 -117 1125 q -107 1101 -112 1107 q -69 1079 -106 1090 q 68 1072 -46 1072 q 75 1072 71 1065 q 81 1099 78 1081 q 83 1125 83 1117 q 92 1169 83 1144 q 118 1193 100 1193 q 163 1182 136 1193 q 243 1111 204 1164 q 256 1099 249 1106 q 274 1088 263 1092 q 285 1077 281 1082 q 292 1072 290 1072 q 357 1042 324 1053 q 431 1032 390 1032 q 510 1042 476 1032 q 575 1072 544 1053 q 674 1181 640 1114 q 686 1212 682 1194 q 690 1251 690 1229 l 689 1303 q 682 1364 688 1336 q 664 1414 676 1392 q 653 1426 660 1419 q 640 1438 647 1432 l 451 1431 q 424 1428 440 1431 q 408 1408 408 1426 "}}}
